<?xml version="1.0" encoding="UTF-8" standalone="no"?>
<!-- Created with Inkscape (http://www.inkscape.org/) -->

<svg
   xmlns:dc="http://purl.org/dc/elements/1.1/"
   xmlns:cc="http://creativecommons.org/ns#"
   xmlns:rdf="http://www.w3.org/1999/02/22-rdf-syntax-ns#"
   xmlns:svg="http://www.w3.org/2000/svg"
   xmlns="http://www.w3.org/2000/svg"
   version="1.1"
   width="248.91154"
   height="76.501106"
   id="svg4978">
  <defs
     id="defs4980" />
  <metadata
     id="metadata4983">
    <rdf:RDF>
      <cc:Work
         rdf:about="">
        <dc:format>image/svg+xml</dc:format>
        <dc:type
           rdf:resource="http://purl.org/dc/dcmitype/StillImage" />
        <dc:title></dc:title>
      </cc:Work>
    </rdf:RDF>
  </metadata>
  <g
     transform="translate(-143.95494,-218.65546)"
     id="layer1">
    <path
       d="M 82.90625,3.34375 C 77.17779,4.61073 71.42654,6.6304 65.71875,7.4375 61.82721,5.80352 57.94863,4.44505 53.8125,6.375 c -7.07001,1.26154 -13.41128,-3.96015 -19.90625,1 8.20443,-0.21412 11.7527,2.91937 19.75,0.34375 2.92528,-1.46141 9.49859,-1.47781 2.90625,1.09375 -2.66068,2.37399 -9.46785,1.09405 -11.03125,2.84375 4.21535,0.47321 7.25954,0.15792 1.84375,1.5 -4.00704,-0.1523 -8.70786,1.04099 -3.46875,3.875 6.11617,3.25852 -5.0926,5.89733 -6.71875,1.96875 -4.24321,0.5299 -10.3997,1.96104 -10.15625,-3.90625 -2.12243,-2.5027 3.25574,-2.37914 -3.625,-3.875 -5.0974,-1.33421 9.16269,-2.97555 0,-2.21875 -1.66787,0.87744 -6.93875,0.90981 -10.71875,3.0625 7.75249,-1.8733 3.46787,0.70844 -0.875,2.25 -0.63386,0.84217 -1.55976,-1.51486 0.34375,2.75 1.49176,-3.38959 0.53458,4.61267 5.65625,3.84375 4.36706,1.07016 1.71146,2.9657 -0.375,2.0625 1.69892,5.06335 -4.45285,5.79809 -5.5,10.375 -2.1266,3.17106 0.33667,8.43388 3.46875,5.8125 0.235824,1.034548 3.551885,-1.341807 4.96875,-1.625 -8.467228,0.835972 3.25749,-2.45656 6.5625,0.5 -2.60042,-0.56004 -9.39467,1.85457 -13.46875,2.0625 -2.442573,0.806988 -1.304217,2.576065 0.71875,2.84375 0.08093,0.02063 0.145489,0.0337 0.25,0.03125 1.066094,0.07119 2.323315,-0.275856 3.4375,-1.375 5.05661,-1.93538 9.83605,-2.71502 11.15625,-3.84375 5.43265,-0.37187 -4.25809,2.79204 -3,3.21875 -5.27904,1.08502 -8.90579,1.87252 -11.8125,2.8125 -0.45542,1.19129 5.30374,1.20735 3.75,-0.25 6.92035,-2.117 1.34174,2.144 -0.5,2.40625 6.97698,1.38577 12.0461,2.77839 19.15625,3.65625 3.81945,1.34677 6.27823,-0.0498 8.25,-1.78125 -2.4201,-1.65696 -7.98336,-1.25865 -2.03125,-1.9375 8.26844,0.18719 11.20723,-9.85064 19.28125,-11.375 6.98693,-3.5451 14.69312,-5.37074 21.71875,-8.78125 0.7431,-3.38957 7.38898,-9.47462 8.25,-3.8125 5.8878,1.60326 2.75512,1.53776 1.78125,4.0625 -1.85716,0.86683 -5.35997,4.16221 -3.9375,4.4375 -3.20063,-0.0265 -4.80362,0.6041 -8.84375,2.53125 -1.32131,0.44621 -1.85302,0.31422 -4,0.46875 -4.93324,-4.50034 -12.85015,5.0162 -6.3125,5.71875 2.76901,-2.09788 11.4848,-5.71255 4.3125,-1.71875 -5.5118,2.37894 -11.22393,6.85084 -16.78125,7.40625 -3.17627,0.51615 -8.28188,2.61104 -6.3125,3.125 -5.47917,-0.26569 -8.7979,2.18768 -7.59375,2.65625 -3.06019,1.06577 7.57849,-0.53633 3.96875,0.6875 4.94595,1.04498 2.79616,-1.573 1.75,-1.65625 5.47606,1.19424 -0.988,-1.69583 4.78125,-1.25 2.20449,-0.71139 3.11413,-1.91106 5.125,-2.65625 -1.14758,3.17188 5.46016,0.36629 4.84375,2.46875 -1.858264,-0.262075 -2.970096,0.815336 -2.75,1.53125 -4.178187,-2.522634 -1.396761,4.947392 -1.4375,1.5 5.39498,-0.93302 7.2343,2.10131 13.875,0.15625 5.7353,0.28146 -2.51359,-3.28461 0.96875,-3.3125 1.18828,-7.48634 13.60849,-7.53102 16.375,-15.1875 0.21659,-7.32838 17.02491,-0.83304 5.8125,-0.09375 1.71772,-2.66483 -7.53814,2.73694 -7.6875,6.5 0.0401,1.91193 -2.76989,10.48059 0.15625,9.65625 3.02675,0.0771 7.09796,0.23292 1.625,0.96875 3.24989,0.33679 -1.83096,1.3372 2.4375,1.0625 -0.76019,2.97434 -7.31473,-2.30111 -5.4375,0.03125 4.23923,1.70218 13.05234,2.27966 17.28125,-0.1875 2.76257,-3.11223 6.16827,-4.66877 9.46875,-7.3125 3.34957,-1.94811 14.96672,-13.16784 9.3125,-3.59375 -0.25312,5.14352 -7.62899,6.18426 -10.5,10.03125 0.0376,1.2042 -2.46785,0.54884 0.46875,1.53125 6.56366,0.81475 -0.74462,1.59697 -2.59375,-0.25 -3.18896,0.27725 -5.1315,1.07437 0.65625,1.28125 6.80898,1.40575 14.08967,1.62044 20.65625,3.6875 5.30557,0.33711 9.52711,0.10379 13.84375,2.65625 -5.55815,0.81928 7.3843,0.78884 9.9375,2.40625 5.82725,0.73316 4.42833,1.55624 -0.5,1.625 -3.65194,1.45998 8.60265,0.0092 10.90625,1.8125 2.66655,0.104943 5.29797,0.597553 7.34375,0.875 -2.07715,0.0937 2.88905,0.773398 0.21875,0.03125 1.44068,0.186489 2.59037,0.276483 3.15625,-0.0625 5.41716,0.26088 4.87195,0.83451 -0.0625,0.90625 6.82259,1.54435 7.64455,-0.39639 15.5,1.75 3.65924,1.02319 19.72404,4.17236 8.75,-0.34375 -1.05383,-1.0574 -5.58682,-3.2055 -7.9375,-5.59375 4.60226,-1.48489 -4.54944,-0.02809 -7.34375,-0.34375 -5.90399,0.46666 -9.32213,-1.07698 -11.8125,0.78125 -3.7637,1.36651 -8.42372,-1.26831 -7.84375,-2.375 0.2561,-2.0333 2.22016,-7.98802 -0.40625,-12.09375 0.79517,-4.981908 9.55274,-11.673115 12.03125,-13 -1.98032,1.419944 0.4688,5.256675 -2.21875,4.875 -2.0704,-0.0713 2.71638,5.64048 2.78125,6.75 3.79746,5.93279 -10.87054,1.96872 -8.34375,10.09375 -6.75502,5.80755 7.08946,4.44221 4.5625,3.1875 1.64404,-0.521032 0.29048,-1.642024 -0.71875,-2.28125 2.82547,-1.08635 7.17805,4.21747 13.21875,2.28125 2.29903,2.30691 14.76895,-1.14413 14.90625,1.59375 -0.5726,1.863123 3.80294,4.544733 4.46875,4.875 -4.0499,1.355655 -5.63507,-2.124513 -5.5,0.21875 1.56394,3.12712 9.54136,0.60473 8.5,1.46875 4.38552,0.10466 8.80088,2.44655 12.625,1.625 -3.86008,-1.04946 -10.42409,-3.83663 -2.6875,-1.5625 2.99964,1.74961 5.33747,0.64678 8.28125,-1.25 L 238.0625,62.5 c -1.86006,-5.58038 -6.73764,0.23767 -5.90625,-3.40625 -5.89657,-2.48487 3.57247,-0.31773 -1.6875,-4.0625 -0.73805,-1.03948 -4.80878,-3.72953 -6.6875,-5.5625 C 221.26759,47.94342 218.16874,45.5896 219.0625,45 c 5.79548,2.9305 -6.56866,-4.22018 -8.4375,-5.40625 -12.47453,-6.7936 -27.63117,-8.04878 -39.03125,-16.9375 -2.61462,-3.84902 0.66284,-7.19635 -4.4375,-10.1875 3.30431,-4.22309 11.24301,5.39624 16.34375,6.09375 7.22538,3.48086 14.62966,7.79578 21.5625,11.03125 1.66604,1.984025 5.8946,3.985473 9.03125,5 -0.0573,-0.06325 -0.0597,-0.165044 0.0312,-0.28125 3.16012,-0.0089 1.1665,0.502943 0.28125,0.375 1.80889,0.558678 3.19862,0.791974 3.40625,0.40625 -8.73189,-3.71876 -17.24146,-8.9474 -26.0312,-13.09375 -0.40106,-0.06054 -0.93966,-0.320181 -1.5,-0.625 0.34685,0.08005 1.07841,0.0648 0.0937,-0.1875 -0.13876,0.02837 -0.21239,0.06843 -0.25,0.09375 -1.12458,-0.628307 -2.26156,-1.40823 -2.40625,-1.3125 -1.78296,-1.58193 -6.48344,-3.11785 -6.2187,-3.71875 -0.74545,0.131926 -1.18817,-0.183706 -1.71875,-0.6875 -0.26557,0.0994 -4.10712,-0.48024 -1.3125,-0.375 0.81034,0.176389 1.18151,0.288141 1.28125,0.34375 -0.6939,-0.664389 -1.52974,-1.657105 -3.34375,-2.375 -2.66189,-1.49968 -5.19256,-3.33027 -7.9375,-4.625 -6.54847,1.63452 -12.88506,7.04994 -19.59375,6.53125 -6.93432,-1.682 -13.76338,-3.97948 -20.75,-5.28125 0.12786,-0.032 -4.49629,-1.63442 -6.5,-1.96875 -4.01126,-0.93336 -7.97034,-2.91696 -12.09375,-1.375 -5.34275,0.8995 -10.69604,1.86322 -16,2.75 z M 20.375,37.53125 C 20.5094,37.51798 20.605282,37.5154 20.75,37.5 20.649632,37.47799 20.521572,37.502 20.375,37.53125 z M 82.4375,3.875 C 78.69413,5.92994 79.70661,5.19356 76.34375,6.65625 78.98395,8.73791 67.58828,10.52003 65.75,13.5625 60.7059,14.45333 50.97567,14.17094 51.0625,12.75 54.9088,10.43754 64.48254,11.85646 65.71875,9 71.08233,6.78746 76.83017,5.34824 82.4375,3.875 z M 30.21875,6.84375 c -3.741398,0.025405 -1.34957,1.36488 2,0.09375 -0.799612,-0.060811 -1.465515,-0.097379 -2,-0.09375 z M 50.9375,6.9375 c 1.32707,0.26193 -1.26288,0.18443 0,0 z m 25.03125,0.28125 c -1.30078,0.22537 1.32983,0.23255 0,0 z m 1.21875,0.9375 C 80.99062,8.6633 85.48495,8.47009 78.875,9.4375 78.02801,9.58908 77.44152,8.8442 77.1875,8.15625 z m 7.875,0.375 c 4.70871,0.12897 -3.25439,1.24612 0,0 z M 35.53125,8.9375 c -1.75485,0.20756 1.43799,0.20543 0,0 z M 31.75,9.1875 c -3.91335,0.87902 -7.77099,3.33354 -1.375,2.53125 1.08064,0.0293 2.2642,-1.54589 1.375,-2.53125 z M 20.65625,9.25 c -0.77381,0.17248 -1.16541,0.39592 0,0 z M 91.3125,9.5 c 0.78717,0.36431 -1.21696,0.13581 0,0 z M 53.375,10.40625 c -2.42537,1.39937 -2.11972,0.26359 0,0 z M 25.59375,10.625 c -1.2733,0.15272 0.71046,0.38562 0,0 z M 42.375,10.78125 c -1.26465,0.73941 3.34332,0.25455 0,0 z m 6.0625,0.28125 c 0.187067,-0.02209 0.449843,-0.02441 0.84375,0 0.977034,1.221159 -2.153217,0.154594 -0.84375,0 z m -25.90625,0.125 c 0.0685,0.73435 -1.20602,0.35879 0,0 z m 21.03125,0.28125 c -1.30274,0.38757 0.43496,1.02759 0,0 z m -3.75,1.4375 c -1.21435,0.15746 0.70127,0.33513 0,0 z m -27.15625,1.125 c 2.30437,-0.0984 -0.86147,1.1612 0,0 z m 3.78125,0 c -0.0341,1.35802 -2.68347,0.26322 0,0 z m -3.8125,0.875 c 1.77954,0.19998 -2.27404,1.74606 -0.40625,0.28125 z M 26.75,15.4375 c 0.53426,0.79759 -0.92246,0.67019 0,0 z m 1.84375,1.21875 c -1.22541,3.24284 4.94346,2.14692 0,0 z m -14.09375,0.5 c 1.00897,0.71858 -1.00897,0.71858 0,0 z m 142.875,0.28125 c -1.53058,3.58759 -16.09496,6.59603 -6.625,2.78125 2.18999,-0.97729 4.34381,-2.02831 6.625,-2.78125 z m 26.6875,0.59375 c 0.89357,0.33936 -1.22751,0.15784 0,0 z m -169.15625,0.9375 c 1.35512,0.26324 -0.56288,0.89312 0,0 z m 28.5,0.46875 c -0.19239,1.34202 1.04004,0.0441 0,0 z m 144.875,0.84375 c 1.47342,0.6183 -0.35434,0.53315 0,0 z m -149.625,1.15625 c 1.44296,0.24082 -1.76123,0.22215 0,0 z m -1.46875,0.28125 c 0.63606,0.81487 -1.90871,0.75859 0,0 z M 35.0625,22.25 c -0.6216,1.97613 -6.64353,2.12057 -0.8125,0.4375 l 0.3125,-0.3125 z m -15.28125,1.59375 c 2.27173,4.5e-4 -0.41844,1.22637 0,0 z m 10.4375,0.4375 c 1.48648,0.17205 -2.03355,0.7904 0,0 z m -1.125,0.25 c -0.12631,1.35626 -1.68946,0.62479 0,0 z m 154.125,5.125 c 3.65604,1.09511 2.89686,2.57083 0.25,0.34375 z M 206.25,30 c 0.90264,0.3288 -1.23843,0.11965 0,0 z m -18.59375,1.46875 c 2.42624,0.43906 2.25647,1.42736 0,0 z m 22.59375,0.5 c 1.30078,0.22535 -1.32984,0.23258 0,0 z M 190.3125,32.25 c 0.90768,0.39193 -1.24249,0.15673 0,0 z m -166.25,0.96875 c 5.87598,-0.0327 -3.93363,3.12421 0,0 z M 67.15625,34.5 c -1.09031,0.63754 1.03664,0.79507 0,0 z m 12.78125,0.3125 c 0.46267,0.50493 -2.34952,0.55348 0,0 z m -12.65625,0.625 c -0.84594,3.48591 -2.37009,-0.02235 -1.21875,3.59375 2.00284,-0.84781 1.93271,-2.14647 1.21875,-3.59375 z M 65,37.1875 c -0.83462,2.01754 0.80234,2.75536 0,0 z m 112.84375,0.15625 c -0.96854,0.56637 0.53862,0.87813 0,0 z M 67.96875,37.625 c -1.51584,2.41003 1.13422,2.57813 0,0 z m 139.21875,0.65625 c 1.8136,0.51726 1.98583,1.56858 0,0 z m -171.28125,0.5 c -4.72191,1.79738 0.1891,5.76617 -1.0625,5.96875 -4.87509,1.0516 1.06735,3.17872 -5.21875,2.25 -4.27498,-0.0497 -8.15246,-1.99439 -1.25,-2.46875 0.29282,-0.303308 0.568034,-0.602291 0.84375,-0.90625 -0.223525,0.0059 -0.46594,-0.255321 0.09375,-0.59375 0.09256,0.15576 0.127383,0.253373 0.125,0.34375 1.781097,-1.975099 3.400408,-3.854953 6.46875,-4.59375 z M 29.4375,43.375 c -0.07326,0.08124 -0.144793,0.168467 -0.21875,0.25 0.110252,-0.0029 0.214781,-0.09952 0.21875,-0.25 z m 113.75,-4.25 c -1.85903,5.16054 -7.98126,11.7085 -2.75,16.40625 -4.14286,0.15965 -6.85254,-6.69096 -3.9375,-11.125 1.73837,-2.2636 4.20713,-3.94574 6.6875,-5.28125 z m 65.71875,0.03125 c 4.75531,2.12828 3.6794,2.78504 0,0 z M 64.5625,39.9375 c -1.21436,0.15745 0.70126,0.33514 0,0 z m 3.53125,0.28125 c -1.67886,0.94783 -0.78142,1.1255 0,0 z m -44.3125,4.25 c 0.54232,0.82197 -1.00408,0.6423 0,0 z M 59.21875,44.75 c 0.43496,1.0276 -1.30274,0.38757 0,0 z M 15.625,45.0625 c -1.21436,0.15746 0.70127,0.33513 0,0 z m 15.1875,0.21875 c -0.196335,-0.01854 -0.466475,-0.0066 -0.84375,0.03125 -0.344181,1.351753 2.218094,0.09851 0.84375,-0.03125 z m -9.75,0.03125 c 1.03664,0.79507 -1.09031,0.63754 0,0 z m 35.625,0.25 c 0.319629,-0.02144 0.771536,-0.013 1.40625,0.0625 0.947012,2.161679 -3.643652,0.08757 -1.40625,-0.0625 z m -33.53125,0.125 c 1.30779,0.33784 -0.53819,0.84036 0,0 z m 197.15625,0.5 c 1.2592,2.09433 3.97276,1.85673 0,0 z m -157.75,0.03125 c 0.90264,0.3288 -1.23843,0.11966 0,0 z M 38.03125,46.375 c 2.43416,0.48246 -4.90212,0.34527 0,0 z M 18.5625,46.46875 c -2.15125,0.39351 0.67536,0.98386 0,0 z m 36.96875,0 c 1.56281,0.4936 -2.1086,0.48135 0,0 z M 85.21875,46.75 c -1.51358,0.63219 1.45318,0.76218 0,0 z M 40.9375,47.03125 c 0.16956,1.85561 -4.10546,-0.20363 0,0 z m 13.6875,0 c -0.82042,1.34125 -2.07687,0.88445 0,0 z m -37.1875,0.5 c 0.28001,0.83398 4.17581,0.12534 0.65625,1.21875 3.23741,1.34959 8.26559,0.27405 3.53125,-0.5 3.40601,-1.13752 -3.84979,-0.27454 -4.1875,-0.71875 z M 59.75,47.75 c 0.74929,1.33033 1.44547,0.0702 0,0 z m 122.03125,0.125 c 3.28856,2.08657 -2.13882,1.80447 0,0 z M 33.96875,48.25 c 1.30779,0.33784 -0.53819,0.84036 0,0 z m 23.375,0.21875 c -1.74454,0.49886 0.91769,0.40464 0,0 z m -22.53125,0.0625 c 1.33076,0.28161 -0.40465,0.97117 0,0 z m 50.71875,0.03125 c -2.47659,0.69323 0.73036,1.20051 0,0 z m 2.5,0.1875 c -0.0267,1.02834 1.03529,0.84108 0,0 z m -61.9375,0.09375 c -2.57069,0.4577 1.19501,1.02264 0,0 z m 57.5625,0.1875 c -1.00897,0.71858 1.00897,0.71858 0,0 z m 25.6875,0.09375 c -0.96352,0.59423 0.22968,1.28623 0,0 z m -27,0.09375 c -5.08484,1.46402 2.6426,0.94248 0,0 z m 122.375,0 c 2.73264,2.055977 7.79885,3.413008 7.5625,4.625 -2.8715,2.29708 -7.75126,-0.42046 -4.4375,-0.53125 4.49184,1.337383 -0.32463,-1.683386 -3.125,-4.09375 z m -177.25,0.09375 c -2.07976,0.68077 1.5671,0.76043 0,0 z m 30,0.0625 c -3.2314,1.38631 0.66934,0.65329 0,0 z m 32.125,0 c -0.24993,1.63856 3.71964,-0.1766 0,0 z m -70.0625,0.28125 C 18.20143,49.70045 21.7783,51.93052 20.46875,50 z M 184.75,49.6875 c 1.32755,0.14774 -0.36457,0.99412 0,0 z M 42.21875,49.96875 c -0.6406,0.87157 1.4177,0.30522 0,0 z m 73.40625,0 c 0.58174,1.02101 -0.4271,0.80795 0,0 z m 72.75,0.09375 c 3.63587,0.73335 10.48212,1.3079 8.28125,2.84375 0.64416,5.44715 -2.92694,-4.61917 -1.8125,0.59375 -3.46219,-5.06814 -3.06532,3.7993 -4.0625,-2.03125 -0.26917,0.84168 -7.54837,-0.79557 -2.40625,-1.40625 z M 58.4375,50.15625 c -2.01538,0.56246 3.15758,0.89821 0,0 z m 21.53125,0 c -1.33724,0.56535 0.56084,0.9038 0,0 z m 3.84375,0 c -5.511,1.9919 2.72826,2.44846 2.09375,1.125 -3.60613,-0.79255 -1.88183,-0.096 -2.09375,-1.125 z m 101.96875,0 c 0.92246,0.67019 -0.53426,0.79759 0,0 z m -164.34375,0.125 c -1.37707,0.88278 1.321,0.54311 0,0 z m 181.84375,0.28125 c 1.82893,0.65652 0.50729,1.7953 0,0 z M 57.625,50.71875 c -1.59354,0.24953 -0.42645,1.00272 0,0 z m -1.46875,0.25 c -1.68443,1.49571 2.81523,1.344 0,0 z M 87.625,51 c -1.04618,0.6961 1.32866,0.45384 0,0 z m -31.96875,0.03125 c -2.8095,-0.0999 -3.45648,1.18013 0,0 z M 79,51.09375 c -3.5368,1.83848 4.736,0.77404 0,0 z m -56.65625,0.0625 c -1.64298,1.32128 4.78287,0.59399 0,0 z m 61.03125,0.125 c 0.55912,0.94092 -1.00155,0.60561 0,0 z m 1.5,0.03125 c 0.17934,1.4109 -1.99342,-0.10116 0,0 z m 114.5625,0.03125 c -0.61398,3.49629 -1.96867,-0.48891 -0.4375,0.3125 l 0.21875,-0.25 z M 28.09375,51.4375 c -1.84336,0.27374 2.41271,1.72239 0,0 z m 34.5625,0.03125 c -2.67164,0.60564 6.00191,0.25804 0,0 z m -4.46875,0.25 c 0.0601,1.01288 1.62219,-0.006 0,0 z M 35.21875,51.75 c -2.31691,0.26006 0.78584,0.70196 0,0 z M 26.625,51.875 c -0.1783,1.24001 1.33404,0.15347 0,0 z m 169.34375,0 c -0.92189,0.7836 1.32223,2.08979 0,0 z m 8.15625,0.0625 c 1.93673,-0.01496 0.65938,1.47722 -0.125,0.90625 1.62506,1.270632 -0.60854,1.824848 -1.0625,-0.625 0.42888,0.20866 0.75213,0.407727 1,0.59375 -0.1748,-0.150926 -0.30301,-0.425023 -0.375,-0.84375 0.20799,-0.02428 0.40111,-0.03 0.5625,-0.03125 z M 76.9375,51.96875 c -0.64218,0.8757 1.34881,0.30176 0,0 z M 200.4375,52 c 4.5408,2.286095 0.79717,0.212302 1.625,1.96875 C 201.19942,53.308045 199.86944,52.893419 200.4375,52 z M 21.65625,52.09375 c 4.39345,0.82319 10.09007,3.12807 11.875,2 1.14795,-0.2481 9.6298,0.39994 1.84375,-0.6875 -4.56397,-0.11588 -9.11209,-0.79832 -13.71875,-1.3125 z m 178.78125,0.0625 c 0.42645,1.00272 1.59354,0.24953 0,0 z m 5.875,0.15625 c 0.14345,2.42143 -1.99435,0.81636 0,0 z M 62.28125,52.46875 c -1.23089,0.17993 0.82309,0.30897 0,0 z M 119.34375,52.5 c 4.65916,0.73635 -2.19245,0.13219 0,0 z M 51.1875,52.71875 c -0.54233,0.82197 1.00408,0.6423 0,0 z m 5.53125,0.09375 c -0.5001,0.93832 1.36706,0.21983 0,0 z m 100.4375,0.03125 c 3.74326,0.71182 1.82635,2.22108 0,0 z m 42.6875,0.09375 c 0.41176,1.55777 -0.22114,1.09376 0,0 z m 16.59375,0.03125 c 4.3932,-0.170841 2.83407,2.269837 -0.0937,1.40625 2.57843,-0.236676 0.52069,-1.266374 -0.5,-1.375 0.19949,-0.01611 0.41438,-0.02428 0.59375,-0.03125 z M 61.03125,53 c -1.09852,0.38864 1.34119,0.76059 0,0 z m 75.75,0 c -0.41376,0.50727 1.51055,0.61669 0,0 z m -14.46875,0.03125 c 1.43794,0.20526 -1.75492,0.20791 0,0 z m -40.125,0.125 c -2.45128,0.48419 2.6801,0.44901 0,0 z m 11.6875,0.4375 c -1.32707,0.26193 1.26288,0.18443 0,0 z m 126.875,0.125 c 3.75007,0.24907 13.68438,1.80366 5.1875,1.34375 -4.4598,-2.05515 -5.70998,2.42014 -7.375,0 1.86803,0.53582 1.12068,-1.08838 2.1875,-1.34375 z M 67.8125,53.875 c 0.50083,0.95363 1.38782,0.35998 0,0 z m 93.59375,0.03125 c 1.7518,2.84968 -1.51492,0.60908 0,0 z m -73.1875,0.03125 c 2.30627,2.30545 0.68729,0.19678 0,0 z M 72.25,54 c 4.56029,2.02271 6.47197,0.18647 0,0 z m 7.6875,0.125 c -0.98764,0.75018 0.98764,0.75018 0,0 z M 28.25,54.15625 c 0.5729,1.1038 1.25663,0.26028 0,0 z m 1.59375,0.03125 c -1.23275,0.14812 0.81611,0.29109 0,0 z m 51,0.125 c 0.5393,1.26767 2.25915,1.34724 0,0 z m 134.375,0 c 2.53237,0.47963 -1.84352,0.81388 0,0 z m -182.375,0.25 c -1.01275,1.01029 1.80806,0.7476 0,0 z m 2.375,0.03125 c 0.35795,1.98063 0.36989,0.38868 0,0 z M 48.78125,55 c -1.45318,0.76218 1.51358,0.63219 0,0 z m 29.1875,0 c -1.09031,0.63754 1.03664,0.79507 0,0 z m 40.65625,0 c 0.91431,2.39628 -7.64023,0.2872 -0.90625,1.53125 2.42706,0.28251 2.25909,0.27817 0.90625,-1.53125 z m -33.5625,0.3125 c -1.73667,0.18619 1.73667,0.18619 0,0 z m 92.78125,0.25 c 0.53862,0.87813 -0.96854,0.56637 0,0 z M 88.1875,55.59375 c -1.21436,0.15746 0.70127,0.33513 0,0 z M 145,55.625 c 2.771,0.59473 9.37786,1.93878 6.9375,2.53125 -2.86374,-0.84789 -7.29837,-1.25334 -4.96875,-1.75 0.4661,-0.38882 -3.52698,-0.4015 -1.96875,-0.78125 z m 78.0625,0.21875 c 1.00897,0.71858 -1.00897,0.71858 0,0 z M 113.65625,55.9375 c -2.49232,0.59078 2.49225,0.49786 0,0 z m 78.1875,0.09375 c 2.71693,2.75519 1.4073,1.84124 1.59375,3.8125 -0.63972,-1.10429 -1.59556,-2.51783 -1.59375,-3.8125 z m -111.75,0.09375 c 0.32793,1.02831 1.6321,0.22547 0,0 z M 233.375,56.25 c -0.31392,0.89335 1.33031,0.15957 0,0 z m -57.65625,0.15625 c 0.54233,0.82197 -1.00408,0.6423 0,0 z m 50.84375,0.03125 c 1.2274,0.20116 0.62444,1.07085 0,0 z M 83,56.875 c 2.63618,0.94182 7.54293,0.65704 1.90625,0.125 L 83.25,56.875 z m 15.375,0.09375 c -1.72631,3.20394 -13.51065,0.98007 -4.25,2.4375 0.64628,0.064 -6.94724,0.34464 -1.0625,0.65625 2.87463,0.21024 13.29135,0.28359 11.09375,1 1.26536,-0.37971 2.27612,0.07236 3.0625,0.59375 -4.49986,-0.248551 1.01201,2.08846 0.875,0.625 0.7764,0.598799 1.163,0.811372 1.1875,-1.0625 6.82326,1.67606 -4.5953,-3.23025 -7.0625,-1.875 2.86032,-3.27517 -2.05147,-1.74558 -2.625,-1.78125 z m 78.03125,0 c 0.98764,0.75018 -0.98764,0.75018 0,0 z m 20.90625,0 c 1.35183,1.62834 0.21629,1.47564 0,0 z M 57.90625,57 c -3.77349,2.48225 -9.44423,0.95109 -2.0625,2.09375 3.34479,-0.48405 5.41612,0.43493 2.0625,-2.09375 z m 87.3125,0.03125 c 1.83177,0.02256 -1.2672,0.679634 -1.125,0.03125 0.48605,-0.02851 0.86332,-0.03447 1.125,-0.03125 z m -53.90625,0.5625 c -2.20306,0.14419 2.28905,0.11876 0,0 z m 54.65625,0 c 1.21984,0.23259 -1.28957,0.16085 0,0 z m 1.1875,0 c 3.63907,0.49789 1.89895,1.65202 0,0 z m -29.625,0.09375 c -1.72709,0.26744 0.60861,0.79637 0,0 z m -12.84375,0.15625 c -1.62511,1.1663 1.68045,1.11546 0,0 z m 61.21875,0 c 2.20673,2.67684 -0.31394,2.14898 0,0 z m 22.71875,0 c 1.09031,0.63754 -1.03664,0.79507 0,0 z M 60.75,58.125 c -1.05031,0.5408 1.00531,0.56093 0,0 z m 48.40625,0 c -2.23312,1.04604 1.90273,0.6245 0,0 z m 5.15625,0 c 3.4456,2.61321 7.92274,1.43053 1.28125,0.5625 z m 41.34375,0 c 4.1186,0.7016 -6.31127,1.11325 0,0 z m 30.125,0 c 1.51476,0.56954 -1.04762,0.73269 0,0 z m -78.25,0.03125 c -2.21298,0.21746 -0.89724,0.989 0.28125,0.03125 z m 5.09375,0.0625 c 0.38785,1.45609 4.6326,1.45871 0,0 z m 5.15625,0.1875 c -1.95204,0.66111 1.96395,0.19657 0,0 z M 207.3125,58.5 c 1.00547,0.53368 -0.95275,1.39934 0,0 z m -9.34375,0.09375 c 0.91646,0.52934 -0.54504,1.12076 0,0 z m -74.3125,0.03125 c -0.1249,0.01937 -0.28983,0.08718 -0.46875,0.21875 -0.86802,0.87863 -5.54123,0.0288 -0.0625,1.15625 0.99098,0.722724 1.40552,-1.510559 0.53125,-1.375 z m -24.1875,0.03125 c 0.172336,-0.0044 0.375301,0.01602 0.59375,0.03125 -0.786394,2.123484 -3.178788,0.03532 -0.59375,-0.03125 z m 8.625,0.0625 c -1.23089,0.17993 0.82309,0.30897 0,0 z m 2.4375,0.03125 c -2.9874,0.17446 5.65748,0.78934 0,0 z M 124.9375,59 c -1.75892,2.27322 5.396,0.22673 0,0 z m 19.125,0 c -2.0909,0.11999 -0.43942,1.16005 0,0 z m -13.9375,0.0625 c -0.31795,0.8979 0.49677,0.93335 0,0 z m -53.96875,0.03125 c 1.07443,1.08955 2.54774,-0.098 0,0 z m 13.4375,0.1875 c -1.77966,0.22582 1.38661,0.22265 0,0 z m 41.5625,0.28125 c -0.0935,-0.0016 -0.2072,0.01379 -0.34375,0.03125 -1.38808,1.977628 1.7467,-0.0067 0.34375,-0.03125 z m 2.625,0 c -1.18203,0.40385 0.0391,0.70745 0,0 z m 4,0 c -3.06728,0.85569 2.29507,0.29198 0,0 z m 70.40625,0 c 1.66987,2.95374 -4.73789,3.97662 0,0 z m -63.375,0.03125 c -1.21984,0.23259 1.28957,0.16085 0,0 z m -15.59375,0.1875 c -4.60037,0.007 0.91279,1.39823 0,0 z m -15.75,0.03125 c -2.8496,-0.02176 -0.59472,1.9027 -0.0312,0.34375 l 1.1875,-0.1875 -0.53125,-0.125 c -0.2375,-0.02037 -0.43503,-0.0298 -0.625,-0.03125 z m 33.59375,0.0625 c -2.06635,0.12867 1.92029,0.12789 0,0 z m 23.03125,0.0625 c 1.34491,0.13456 0.65829,1.76297 0,0 z m -81.25,0.21875 c -1.279,1.40682 4.95471,0.72859 0,0 z M 134.875,60.1875 c -7.77333,0.0251 2.68751,1.10228 0,0 z m 15,0.03125 c -0.34062,-0.01291 -0.75836,-0.01466 -1.25,0.03125 2.4728,1.310111 3.63434,0.05912 1.25,-0.03125 z M 87.1875,60.375 c 0.71598,0.6617 1.04661,0.44639 0,0 z m 31.96875,0.03125 c -1.47334,0.75887 1.06722,3.80367 1.875,2.40625 3.26767,0.46504 -2.58513,-1.17794 -1.875,-2.40625 z m 19.71875,0 c -1.57017,0.516 0.96169,0.7854 0,0 z m 91.5625,0 c 1.39256,0.64105 0.0527,1.17883 0,0 z M 114.65625,60.4375 c -1.27105,0.17213 0.71017,0.29538 0,0 z m 62.875,0 c -1.21346,0.1885 0.69916,0.28246 0,0 z m 14.21875,0 c 0.79288,0.3071 -1.21895,0.16956 0,0 z M 51.0625,60.46875 c -1.903293,0.136409 0.552265,1.493611 1.09375,0.03125 -0.468455,-0.04196 -0.821851,-0.05074 -1.09375,-0.03125 z m 41.5,0.0625 c -2.98102,1.28452 5.90656,0.60399 0,0 z m 28.78125,0.03125 c -3.10005,0.52043 1.7766,0.5131 0,0 z m -21.625,0.09375 c 1.64,1.0951 2.43467,0.51472 0,0 z m 52.0625,0.03125 c 3.22469,1.62251 5.21254,0.40111 0,0 z M 116,60.71875 c -0.41291,0.196392 0.065,2.134572 1.375,0.25 l -1.28125,-0.25 c -0.0355,-0.0039 -0.0662,-0.01309 -0.0937,0 z m 6.65625,0 c -1.35906,1.71911 4.92509,1.01773 0.25,0 z m 15.03125,0 c -1.21436,0.15745 0.70127,0.33514 0,0 z M 202.5625,61 c -1.7295,0.19634 1.33846,0.21874 0,0 z m -98.9375,0.125 c -0.50703,1.89212 1.82222,1.81187 0,0 z m 18.3125,0.125 c -1.00408,0.6423 0.54233,0.82197 0,0 z m 27.15625,0 c -0.69557,0.42368 0.94312,0.74172 0,0 z m -22.0625,0.03125 c -0.13066,1.68915 6.12411,1.94115 0.1875,1.96875 0.18552,0.616812 -1.62119,0.334521 -1.875,0.375 0.0888,0.06762 0.61024,0.262609 2,0.6875 1.24293,-0.86803 8.60015,-0.755 3.0625,-2.09375 -1.56033,-0.48831 -3.04672,-0.60029 -3.375,-0.9375 z m 4.40625,0 c -1.32707,0.26193 1.26288,0.18442 0,0 z m 5.34375,0 c 0.092,1.34023 2.25303,-0.0862 0,0 z m 62.84375,0 c 3.07933,3.43474 5.82078,-0.0707 0,0 z m -43.53125,0.125 c -0.92865,0.72581 2.76782,0.29626 0,0 z m 19.0625,0 c 0.1058,1.12959 2.26905,0.22762 0,0 z M 103,61.53125 c -1.00897,0.71858 1.00897,0.71858 0,0 z m 30.3125,0 c -1.84326,1.19622 7.56136,1.42606 0,0 z M 150.5,61.5625 c -1.32707,0.26193 1.26288,0.18442 0,0 z m -32.84375,0.15625 c -2.6142,0.4537 1.99751,0.57034 0,0 z M 53.1875,61.8125 c -0.72316,0.34245 0.93264,0.008 0,0 z m 105,0.03125 c -1.73667,0.18619 1.73667,0.18619 0,0 z m -45.5,0.09375 c -4.73072,1.05456 5.41338,1.25497 0,0 z M 102.375,62.125 c -1.06767,0.58605 1.76052,0.44946 0,0 z m 22.03125,0.28125 c -0.76065,1.37507 1.75936,-0.0984 0,0 z m -19.75,0.28125 c 0.21614,0.05406 0.34881,0.08756 0.40625,0.09375 -0.0489,-0.02993 -0.28447,-0.122156 -0.40625,-0.09375 z m 33.5625,0.0625 c -5.26702,0.74274 -0.9619,2.53638 0,0 z m -31.75,0.0625 c -0.65091,0.20847 2.32566,0.19543 0,0 z M 139.875,63 c -0.54687,1.6796 2.58599,0.41309 0,0 z m -24,0.0625 c 1.74529,2.05715 5.64972,0.99258 8.28125,1.75 0.75104,-1.11441 -3.2852,-0.46227 -6.1875,-1.3125 -0.60276,0.53659 -1.45163,-0.29423 -2.09375,-0.4375 z m -1.5,0.1875 c -1.66925,0.40934 0.91539,0.97976 0,0 z m 64.21875,0.21875 c 3.36089,1.15386 -1.62156,1.27975 0,0 z M 115.5,63.53125 c -0.8097,0.33335 0.0907,0.64418 0,0 z m 26.5625,0 c -5.6227,2.10432 0.25972,2.33569 0,0 z m 11.28125,0.03125 c -1.21435,0.15746 0.70127,0.33513 0,0 z m -8.46875,0.03125 c -1.18319,2.55268 -6.66907,2.56614 -0.5625,3 0.54209,-0.27238 3.82963,-2.14912 5.625,-0.78125 2.10618,-1.35696 -3.7839,-1.90013 -5.0625,-2.21875 z m -5.9375,0.125 c -3.12986,2.54065 -0.14766,0.78644 0,0 z m 12.21875,0.125 c 2.6271,1.6772 3.60639,0.76354 0,0 z m 4.75,0 c -1.21436,0.15745 0.70127,0.33514 0,0 z M 134.875,63.875 c -2.88083,0.30853 -0.26688,1.76092 0,0 z m -3.5625,0.0625 c 0.0687,0.94249 1.60224,0.10537 0,0 z m 11.09375,0.15625 c -1.09859,0.38856 1.34121,0.76065 0,0 z m -13.4375,0.3125 c -6.48683,0.089 -0.33276,1.47051 1.21875,0.375 l -1.0625,-0.375 z m 17.21875,0 c 5.76172,0.2219 -6.36339,1.56135 0,0 z m 53.8125,0 c -0.64987,1.46957 2.27524,0.36942 0,0 z M 134.96875,64.5 c -1.38311,1.622962 0.2599,0.873341 2.15625,0.90625 -0.70935,-0.28949 -1.41088,-0.668039 -2.15625,-0.90625 z m 24.34375,0.15625 c -0.56714,0.87209 1.04786,0.6945 0,0 z m 22.3125,0 c 7.13702,1.8478 1.529,1.34386 0,0 z M 152,64.96875 c -2.94485,0.17809 4.22386,0.86491 0,0 z m -14.84375,0.4375 c 0.59306,0.239894 1.18655,0.426723 1.84375,0.40625 -0.57756,-0.298885 -1.22116,-0.392581 -1.84375,-0.40625 z M 165.875,65.4375 c 0.1828,2.758228 8.77429,-0.06434 3.90625,0.65625 -0.58454,0.148622 -3.54367,-0.09189 -3.90625,-0.65625 z m 34.0625,0.09375 c -0.36029,0.47268 1.49351,0.64016 0,0 z M 151.625,65.5625 c -1.23023,0.21143 0.82243,0.25369 0,0 z m 3.3125,0 c -0.62005,0.65365 2.62763,1.26073 0,0 z m 3.8125,0 c -1.21984,0.23259 1.28957,0.16085 0,0 z m 3.71875,0 c -1.28957,0.16085 1.21984,0.23259 0,0 z M 153.75,65.625 c -3.26496,0.35346 3.52335,1.70508 0.40625,0.15625 z m 10.0625,0.0625 c -1.55868,1.40124 2.0751,0.0894 0,0 z m -3.25,0.09375 c -0.22632,-0.0077 -0.51616,0.01301 -0.84375,0.0625 1.62547,1.196729 2.42799,-0.0089 0.84375,-0.0625 z m 12.40625,0.0625 c -1.19133,0.18558 0.70784,0.28333 0,0 z m -27,0.03125 c 1.20071,1.9786 3.63209,-0.18956 0,0 z M 174.75,66.09375 c -0.80899,1.76 -6.13408,0.30033 -0.75,1.96875 9.26285,0.95235 1.83147,0.5497 0.75,-1.96875 z m -26.125,0.09375 c -1.29688,0.64867 0.87416,1.2791 0,0 z m 14.34375,0.46875 c -3.23113,0.60436 -16.49301,0.32984 -6.1875,1.03125 0.90076,-0.36946 8.40638,1.19673 6.1875,-1.03125 z m 13.5,0 c -1.21202,0.15087 1.74934,0.84506 0,0 z m 29.0625,0.3125 c 1.31403,-0.18855 0.65381,1.28846 0,0 z m -27.78125,0.125 c 0.43788,0.96546 2.56999,0.62649 0,0 z m 30.25,0.1875 c 2.64395,0.24658 -2.94212,0.83713 0,0 z m 7.3125,0.28125 c 2.72018,1.37366 -0.78927,2.03597 0,0 z m -2.1875,0.0625 c 3.71852,0.52889 -1.84747,0.87108 0,0 z m -26.5,0.21875 c -1.23276,0.14811 0.81611,0.29109 0,0 z m 1.4375,0.53125 c -1.00897,0.71858 1.00897,0.71858 0,0 z m 6.71875,0.375 c -3.83552,1.32105 -11.08899,1.73791 -15.53125,1.28125 3.98209,1.457 -3.87956,-1.03414 -0.21875,2.3125 -2.20301,-0.653465 -1.84606,-2.094169 -1.625,-2.59375 -0.11103,0.194874 -0.35179,0.533351 -0.90625,1.25 3.82002,3.28468 9.83193,1.84914 14.65625,1.90625 3.1814,-0.18338 6.40981,-0.31503 9.53125,-0.25 -3.08261,-1.69799 -6.23418,-0.53806 -5.90625,-3.90625 z m -17.375,1 c 0.0236,-0.04136 0.0832,-0.13378 0.0937,-0.15625 -0.0178,0.02493 -0.06,0.08 -0.0937,0.15625 z m 18.75,-0.78125 c 2.56442,2.95348 9.57077,1.74458 2.09375,0.71875 L 197,69.15625 z m -6.6875,0.28125 c -1.2309,0.17994 0.82308,0.30897 0,0 z m 19.5625,0.4375 c -3.59102,1.67268 12.29175,2.0011 3.53125,0.71875 -1.1791,-0.23249 -2.3136,-0.6962 -3.53125,-0.71875 z m -26.375,0.125 c -1.2733,0.15272 0.71046,0.38562 0,0 z m 13.8125,0.125 c 0.23233,0.92844 1.4759,-0.002 0,0 z m 6.4375,0.5625 c -0.0252,0.193149 0.0188,0.345356 0.0937,0.5 0.0458,-0.0091 0.0629,-0.02159 0.125,-0.03125 0.40974,0.127709 0.18059,0.187729 -0.0625,0.1875 0.9705,1.327431 5.6002,1.067676 5.96875,-0.0625 -1.84492,0.77906 -4.18964,-0.12262 -6.125,-0.59375 z m 0.15625,0.65625 C 203.02784,71.108842 203.02497,71.051548 203,71 c -0.44836,0.08923 -0.20179,0.156001 0.0625,0.15625 z m 5.0625,-0.5 c -1.53423,0.69507 1.53423,0.69507 0,0 z M 187.53125,70.875 c 3.77479,-0.11553 7.22173,0.38699 1.03125,0.28125 -0.54521,0.0542 -4.45489,-0.2199 -1.03125,-0.28125 z M 178.75,71.0625 c 1.84634,0.89619 0.15782,0.95636 0,0 z m 30.71875,0 c -0.86251,1.34588 1.96524,0.3868 0,0 z M 201,71.8125 c 1.04572,1.10802 1.47262,0.0478 0,0 z"
       transform="translate(143.95494,218.65546)"
       id="path5032"
       style="fill:#000000" />
  </g>
</svg>
