<?xml version="1.0" encoding="UTF-8" standalone="no"?>
<!-- Created with Inkscape (http://www.inkscape.org/) -->

<svg
   xmlns:dc="http://purl.org/dc/elements/1.1/"
   xmlns:cc="http://creativecommons.org/ns#"
   xmlns:rdf="http://www.w3.org/1999/02/22-rdf-syntax-ns#"
   xmlns:svg="http://www.w3.org/2000/svg"
   xmlns="http://www.w3.org/2000/svg"
   xmlns:sodipodi="http://sodipodi.sourceforge.net/DTD/sodipodi-0.dtd"
   xmlns:inkscape="http://www.inkscape.org/namespaces/inkscape"
   width="154.33421"
   height="144.70844"
   id="svg4857"
   version="1.1"
   inkscape:version="0.48.4 r9939"
   sodipodi:docname="flor1.svg">
  <defs
     id="defs4859" />
  <sodipodi:namedview
     id="base"
     pagecolor="#ffffff"
     bordercolor="#666666"
     borderopacity="1.0"
     inkscape:pageopacity="0.0"
     inkscape:pageshadow="2"
     inkscape:zoom="2.501582"
     inkscape:cx="77.167106"
     inkscape:cy="72.354217"
     inkscape:document-units="px"
     inkscape:current-layer="layer1"
     showgrid="false"
     fit-margin-top="0"
     fit-margin-left="0"
     fit-margin-right="0"
     fit-margin-bottom="0"
     inkscape:window-width="1024"
     inkscape:window-height="541"
     inkscape:window-x="0"
     inkscape:window-y="27"
     inkscape:window-maximized="1" />
  <metadata
     id="metadata4862">
    <rdf:RDF>
      <cc:Work
         rdf:about="">
        <dc:format>image/svg+xml</dc:format>
        <dc:type
           rdf:resource="http://purl.org/dc/dcmitype/StillImage" />
        <dc:title></dc:title>
      </cc:Work>
    </rdf:RDF>
  </metadata>
  <g
     inkscape:label="Capa 1"
     inkscape:groupmode="layer"
     id="layer1"
     transform="translate(345.41226,-321.1696)">
    <path
       style="fill:#000000"
       d="m 60.625,8.8125 c -5.71034,3.5204 -9.1076,10.00575 -11.5625,16.09375 -1.50907,1.18579 -0.74855,-8.18019 -5.8125,-5.1875 -5.39158,3.35728 -7.70694,10.86258 -4.28125,16.4375 0.603949,1.810395 3.032367,6.336408 3.15625,7.28125 -0.180526,-0.191827 -0.453507,-0.419723 -0.90625,-0.65625 0.04076,0.07872 0.08456,0.117878 0.125,0.1875 -0.08783,-0.100597 -0.176093,-0.185013 -0.28125,-0.3125 -4.79583,-1.87436 -9.68085,-6.7898 -15.28125,-8.46875 -2.80205,-0.5995 -6.69396,-1.85186 -7.65625,-0.625 -4.12315,4.97399 1.39772,9.18658 3.96875,13.6875 1.79013,3.24136 10.52027,6.07012 7.09375,8.375 -1.08146,4.09664 -4.1954,1.63471 -4.90625,3.46875 -5.02096,0.97358 -13.48333,-1.10025 -14.8125,5.46875 5.34923,0.76008 9.76789,-2.9711 15.375,-2.5625 5.14254,0.3137 9.91188,1.98039 14.5,4 4.2031,0.85727 8.12082,4.04065 12.34375,5.625 2.68567,1.60959 12.49267,5.15881 3.875,3.90625 C 51.14383,74.55284 42.89142,75.87611 45.25,81.5 c 0.91906,6.15031 6.23691,10.1637 10.53125,13.84375 2.12108,3.01415 6.7259,3.0692 8.53125,4.34375 -4.70458,2.27008 -11.07155,0.48502 -15.09375,3.25 -3.95667,2.32544 -8.99893,3.22788 -13.53125,5.21875 -4.77506,0.9223 0.41787,4.17575 2.5,5.3125 4.63845,3.92151 11.55813,6.17908 17.53125,4.21875 5.82705,-2.08624 10.82883,-6.55339 15.0625,-10.4375 1.40502,1.25295 -4.71307,6.18857 -3.6875,10.21875 0.46641,5.64335 -4.50524,10.38059 -0.90625,15.8125 4.8557,6.48618 10.88794,-0.89438 13.5,-5.125 6.03966,-0.81576 3.45772,-9.9155 3.65625,-12.25 3.19449,4.68223 7.33251,9.13254 12.625,11.5 2.64542,0.68554 10.85999,2.75542 10.1875,-1.96875 0.24163,-6.19165 -2.47829,-11.86807 -6.59375,-16.34375 -4.64481,-4.746 6.63573,-5.97941 8.71875,-10.03125 2.7893,0.51398 3.10505,-9.74199 -1.59375,-8.96875 -5.11322,-0.44498 -11.74054,-2.05859 -15.75,-2.5 5.55485,-0.96917 7.52351,-7.01843 12.78125,-9.34375 2.75827,-2.22836 5.77682,-4.02006 8.375,-5.90625 2.42246,-0.99219 4.26278,-2.89624 6.875,-3.84375 1.39864,-1.8622 11.98953,-3.17153 6.03125,-1.8125 -3.81185,2.23061 2.20354,6.06403 5.34375,6.09375 3.11994,0.74758 6.47852,-0.65292 9.34375,-1.03125 5.67673,-1.27718 6.79539,-7.95085 0.46875,-9.40625 -5.22151,-1.46486 -11.60497,-1.07361 -16.125,1.46875 -6.70348,2.51346 -13.48747,5.51257 -18.96875,10.21875 -1.84197,1.98098 -8.86514,6.96298 -3.75,1.90625 4.75773,-5.73472 8.50467,-13.65045 16.5625,-15.1875 5.58035,-2.56584 10.81091,-6.1577 15.9375,-9.34375 2.55206,-2.53523 4.44414,-5.62773 -0.0625,-8.53125 -3.51474,-1.28617 -8.60757,-0.064 -11.09375,0.71875 -3.27649,1.27712 -5.43546,2.07151 -2.78125,-1.4375 -4.36167,-4.84666 -3.68107,5.55998 -5.1875,4.84375 2.61303,-3.05526 -1.354,-1.74116 -1.4375,-5.84375 -3.14075,-5.14509 -11.40167,-8.71768 -15.8125,-3.53125 -2.28769,2.34487 -4.7782,7.53179 -4.5625,0.84375 -1.16961,-5.29894 0.64344,-15.77162 -5.03125,-17.21875 -5.61426,0.96448 -0.83879,11.01899 -7.25,7.6875 -4.80575,1.05451 0.11167,8.14779 1.09375,10.4375 4.76725,4.64342 6.54909,10.93916 5.75,17.5625 0.62246,4.77734 -0.05856,10.0964 -6.1875,8.96875 -4.18418,1.03711 -7.28324,10.05351 -9.625,2.0625 -2.53538,-5.23331 -4.96684,-11.06085 -7.09375,-15.5 C 62.99481,47.04279 67.1273,41.38962 65,36 c -0.669692,-0.107456 -1.583523,0.256452 -2.5625,0.6875 0.203683,-0.174376 0.45205,-0.465063 0.71875,-0.9375 -0.98353,0.54908 -1.237533,1.026051 -1.125,1.125 -2.455458,1.101873 -5.056656,2.318785 -4.59375,-2.34375 C 56.7852,32.46016 56.03075,26.27249 57.15625,21.75 58.15106,17.91605 65.9909,12.02975 60.625,8.8125 z m 17.5,22.78125 c -0.45572,1.23925 0.72985,1.17165 0,0 z m 0.1875,1.96875 c -0.39124,1.36235 1.07473,1.31714 0,0 z m -54.5,16.84375 c 0.049,1.32808 2.22979,0.0711 0,0 z m 2.125,6.46875 c -1.48042,0.92402 2.0574,0.91284 0,0 z m 104.40625,7.90625 c 2.12511,0.0263 1.18866,2.495 0,0 z m -42.5,1.25 c 4.94216,4.78481 -7.73234,2.63791 0,0 z m -20.1875,12.8125 c 3.46217,1.37022 3.85484,-0.64849 4.25,4.40625 0.4942,2.14597 -4.13135,-4.15063 -4.25,-4.40625 z M 98.4375,79.1875 c 0.90418,1.0216 -2.14633,0.71996 0,0 z m -7.03125,3.53125 c 0.90129,1.71226 -2.97136,6.25398 -0.8125,1.46875 l 0.4375,-1.03125 z M 94.625,84.0625 c -0.0765,2.77326 -4.33658,1.7967 -0.71875,0.1875 z M 92.5,89 c -0.0273,1.79793 0.98846,-0.11033 2.3125,0.8125 C 94.68706,90.50727 89.59732,92.00711 92.5,89 z m -14.125,9 c 1.91571,1.74504 3.53503,4.2215 1.21875,5.1875 C 78.56455,101.99104 77.59476,99.45679 78.375,98 z m -4.03125,0.53125 c 2.35711,3.72255 -4.04909,4.82803 -0.84375,0.65625 z m 1.0625,4.6875 c 0.68882,0.84946 -0.38155,1.38705 0,0 z m 25.53125,2.09375 c -2.58264,1.29878 -2.64238,2.93683 0,0 z"
       transform="translate(-345.41226,321.1696)"
       id="path4943"
       inkscape:connector-curvature="0"
       sodipodi:nodetypes="cccccccccccccccccccccccccccccccccccccccccccccccccccccccccccccccccccccccccccccccccccccccccccccccccccccccccc" />
  </g>
</svg>
