<?xml version="1.0" encoding="UTF-8" standalone="no"?>
<!-- Created with Inkscape (http://www.inkscape.org/) -->

<svg
   xmlns:dc="http://purl.org/dc/elements/1.1/"
   xmlns:cc="http://creativecommons.org/ns#"
   xmlns:rdf="http://www.w3.org/1999/02/22-rdf-syntax-ns#"
   xmlns:svg="http://www.w3.org/2000/svg"
   xmlns="http://www.w3.org/2000/svg"
   version="1.1"
   width="149.3240966796875"
   height="145.1634216308594"
   id="svg5204">
  <defs
     id="defs5206" />
  <metadata
     id="metadata5209">
    <rdf:RDF>
      <cc:Work
         rdf:about="">
        <dc:format>image/svg+xml</dc:format>
        <dc:type
           rdf:resource="http://purl.org/dc/dcmitype/StillImage" />
        <dc:title></dc:title>
      </cc:Work>
    </rdf:RDF>
  </metadata>
  <g
     transform="translate(10.389432,-894.4224799999999)"
     id="layer1">
    <path
       d="m 68.625,6.90625 c -0.31611823884025,-0.02002355778302 -0.65401053951003,0.0015843735815 -1.03125,0.03125 -5.28135244686035,0.415318769866305 -14.8389917598205,5.18932349419015 -5.375,5.21875 10.26276469270803,2.91242866641983 -10.95618690476921,3.37953790008487 -13.71875,5.875 0.96731654645041,8.90417237030158 14.47263273508396,3.5409991390926 19.6875,8.125 -7.6400324689409,2.16535625614904 -17.23853330303593,0.75965962857162 -24.8125,4.40625 -2.30420129166586,10.70480080538903 11.95174085648417,1.76658950946161 17.90625,3.0625 9.89898599911437,-1.24494884317312 19.68410637405712,-3.19071206373258 29.6875,-3.28125 4.03099462046218,-4.41702119017725 -8.83039203597163,-7.32574526834753 -12.625,-9 C 73.71153603881714,21.04550682821093 62.87883328975654,19.65975216398112 72.9375,17.25 79.02807303123704,15.05176400166943 88.10323395928634,18.97360765020289 92.5,16.46875 87.07371425363371,9.70503120942169 77.88133052804862,7.061413093117949 69.5,7.0625 69.2435699873169,6.989136707199009 68.94111823884024,6.926273557782907 68.625,6.90625 z M 64.53125,38.625 c -5.91890722331547,1.46890644321479 -23.21529861979162,-3.5405377749355 -17.625,7.46875 3.86533362691763,7.8254162088823 3.47525933097302,17.20181861272931 13.25,19.84375 3.05946552690859,6.51568475776969 4.74362872847348,-5.25120885373417 5.375,2.53125 0.11522121901113,6.5132437163345 3.07318901543061,-7.18087722623761 3.53125,0.78125 1.85338173274987,1.58201131469797 3.12311236144998,-5.51103311299584 4.21875,0.84375 1.59909039835947,-0.34932042722085 0.50786679494728,-5.26050661298827 4.15625,-1.46875 0.20278308634134,-7.51735015954307 15.02136481915724,-3.28697053434234 13.46875,-12.5625 0.88965067447592,-7.39297473916224 8.74070111948399,-19.8757406858316 -4.9375,-16.84375 C 78.81710393536403,38.9155733345558 71.69076358632301,38.6111571614731 64.53125,38.625 z m 21.1875,6.34375 c 8.35517739299451,7.87467778700273 -13.35565757125123,14.40813532383948 -9.09375,3.4375 3.41754648360785,-0.14170545228091 6.04467714772223,-2.2989433738968 9.09375,-3.4375 z m -30.875,1.875 c 4.6860080747378,0.0040587802 15.61815159146939,3.60258052410723 5.96875,6.84375 -3.3604812909348,0.65880584087052 -11.06381841661289,-4.20304738679988 -5.96875,-6.84375 z m 15.375,3 c 5.1055254222665,1.79450708550849 6.06818297032091,11.9753144022593 -0.09375,8.5625 -6.68618973783464,3.91888832004453 -4.09318492273451,-7.58271259852927 0.09375,-8.5625 z m 43.9375,8.03125 c -7.7834368164845,1.69723323743097 -9.7973713317926,11.21817449296405 -17.03125,14.59375 -5.743283762755,12.31702280055094 11.3208016717841,-1.48302480454322 16.6875,-1.34375 8.1429220978807,0.24500564901882 10.2058137473244,-6.88265778280743 3.28125,-11 -0.6607222662856,-1.00411469538494 -1.5348801358361,-2.33821692061281 -2.9375,-2.25 z m -15.875,1.84375 c -5.27239261855829,7.38999458127489 -6.37278416626403,17.58585202880317 -12.9375,24.53125 -1.89853495895234,3.08272431598471 -9.20385263992984,11.80230154643516 -5.0625,3 3.89663576581334,-1.42800225698922 10.39311866815295,-11.25959445677324 1.84375,-6.0625 -2.89565773583536,2.98521519757558 -14.88121767956294,1.19344612557677 -11.8125,6.25 2.20234286513958,8.01992881042156 9.23208217889827,5.07481938604224 10.4375,12.5 7.24493375893324,0.4425593916166 11.13999542554417,-12.33833925010254 12.78125,-19.25 0.0750351751527,-6.9200587014135 9.3476037056044,-15.00037837308378 4.75,-20.96875 z m -67.125,0.875 C 23.86002273077643,62.47314592668944 15.23929759096706,78.11869914752799 29.25,75.71875 36.94502119772558,74.35121189692813 43.43515054244054,78.96234956447277 50,82.125 c 0.85082237810363,4.95666048139378 2.97567209410097,10.20490781840157 2.46875,15 -1.57600012616871,-8.63802052043197 -12.14027336608406,3.5405026527059 -18.125,-0.40625 -8.67623253498456,-1.45237611895163 -11.06732076525391,10.294403249596 -2.71875,12.4375 1.46668730724985,9.953920124315 9.79048699057706,2.280130025346 11.625,-3.1875 3.71539982203641,-2.7095439939561 12.50743398462591,-11.62994207187705 11.21875,-1.4375 1.74176089041734,10.2442131915924 6.06287365266127,20.7126673151469 13.78125,27.84375 4.38497359474557,2.9472229508699 5.86056043138201,12.915179613741 13.4375,9.21875 -6.41824061754015,-5.767334687803 -8.92798765953373,-13.453207105836 -12.625,-20.96875 -6.60258096598091,-9.669778495322 -8.53945959001476,-21.49421500547771 -13.78125,-31.84375 -5.23250764973601,-8.92379094164403 6.47439897194912,-2.142752302997 2.375,2.625 1.87949670572007,9.2107296537779 9.99806624960524,0.75262717641976 3.5,-4.25 C 58.87543170632742,79.68980331095302 50.64070412330669,83.09484277194053 52.03125,74.25 47.79587151172997,65.57277057406611 48.31004167172302,77.79742037947198 48.5625,79.46875 46.59864420506595,70.77101051057762 35.51557102642117,69.25437414176406 32.625,60.78125 z M 57.0625,67.5625 C 56.00802150692728,73.8236812049314 58.31991338435387,80.87335666214538 65.125,82.625 73.8116802734968,85.05943376747336 85.57682095115649,78.99955477371611 83,68.71875 c -1.87999023048063,2.039547429506 -3.38761731374389,8.82216009836918 -8.84375,5.5625 -5.1865410104412,2.95751636862131 -8.54688903232074,-0.49934453345236 -14.03125,0.53125 -2.07156583851738,-1.87379989477483 -2.31631387414225,-4.73912170365315 -3.0625,-7.25 z M 40.59375,79.375 c -6.6442616327395,3.7276981024952 -3.31463946367485,22.6080575950714 4.96875,13.71875 C 44.61028289746462,88.64810464998366 45.94459997471357,81.24068966082211 40.59375,79.375 z M 101,81.53125 C 94.88960598678895,85.32407529068996 91.77114856804843,102.6135724509329 102.90625,96.875 103.5559159031529,92.04568158249081 108.1733653084075,83.51889562561234 101,81.53125 z M 60.78125,83.4375 c 3.42218988015102,9.4648106022571 10.75344124194326,17.3753055752577 16.34375,25.8125 8.02783680985822,8.706087741331 1.80748229021664,-6.6796692960471 -1.21875,-9.46875 -4.35637452007369,-6.23177520172101 -5.60523799304538,-16.48431433620465 -15.125,-16.34375 z m -33.5625,5.4375 c -5.75934290133301,0.28590806084058 -4.24276867483851,18.0222985651793 0.46875,8.28125 4.80436929125652,-0.54695475684127 3.45517023351213,-7.76707169946712 -0.46875,-8.28125 z m 86,0.53125 c -7.0495707920101,2.60038928227073 2.1771389389598,12.58825482897331 1.09375,4.1875 -0.4187684926279,-1.21498934773992 0.1319429499784,-3.32519115852551 -1.09375,-4.1875 z m -24.4375,5.6875 c -7.01719750467912,7.53748074403769 10.68581668792758,9.4630330794264 13.46875,15.40625 4.7227679827904,9.036109522488 12.8270652956916,2.3669762725581 11.625,-5.78125 2.7268870885045,-9.32168162182133 -6.8270345833951,-7.39512705289611 -12.21875,-5.59375 -4.66735781906002,-0.071888865205 -8.42542522014224,-3.30103981284026 -12.875,-4.03125 z m 37.15625,0.59375 c -8.5954392452844,6.0179083165674 -10.6561620716442,17.759102799983 -18,25.125 5.7694064030591,3.203828544511 11.395407425284,-5.09400326932 15.6875,-8.8125 2.0173271473264,-2.425237458488 5.9643658654864,-4.1836664101832 4.5,-7.875 -0.4705208958676,-2.7146151243039 0.020043521787,-6.73904419936719 -2.1875,-8.4375 z m -79.15625,8.78125 c -4.77249306836512,6.7755810697298 5.34616009906837,13.977446623424 5,21.40625 7.49710221673272,8.3723908279591 2.03262643788068,-8.237551345257 -0.46875,-11.28125 -1.81054923257447,-3.012907365036 -1.30013483118258,-8.2075937836781 -4.53125,-10.125 z m 47.5625,1.71875 c -2.57275325013693,1.969413662354 -6.06886097880754,18.282825761353 -0.46875,9.375 0.73727445761035,-2.436886762488 5.77474167920511,-8.7986158995681 0.46875,-9.375 z m -68.5,1 c 2.16403598819518,8.966591363262 8.51883085741865,17.3991676521059 12.15625,26.1875 9.80289728682815,7.3481968351739 0.0865091083973,-11.235850712839 -1.4375,-15.21875 -3.09518587294387,-3.741574169777 -5.79670542671765,-9.208698106759 -10.71875,-10.96875 z m 58.75,5.375 c -6.54690018632738,2.866091823233 6.73863667347139,8.661126221058 2.0625,1 l -1,-0.6875 z m 16.53125,0.09375 c -5.15778317667824,7.002945553488 -11.573732834613,13.4907074366979 -16.78125,20.59375 7.56821906021366,0.02474447552 16.3115454462181,-10.483708983032 20.1875,-17.53125 -0.5127998883652,-1.388429315124 -1.9469687109893,-2.741567589187 -3.40625,-3.0625 z"
       transform="translate(-10.389432,894.4224799999999)"
       id="path6105"
       style="fill:#000000" />
  </g>
</svg>
