<?xml version="1.0" encoding="UTF-8" standalone="no"?>
<!-- Created with Inkscape (http://www.inkscape.org/) -->

<svg
   xmlns:dc="http://purl.org/dc/elements/1.1/"
   xmlns:cc="http://creativecommons.org/ns#"
   xmlns:rdf="http://www.w3.org/1999/02/22-rdf-syntax-ns#"
   xmlns:svg="http://www.w3.org/2000/svg"
   xmlns="http://www.w3.org/2000/svg"
   version="1.1"
   width="145.14758"
   height="99.522194"
   id="svg4318">
  <defs
     id="defs4320" />
  <metadata
     id="metadata4323">
    <rdf:RDF>
      <cc:Work
         rdf:about="">
        <dc:format>image/svg+xml</dc:format>
        <dc:type
           rdf:resource="http://purl.org/dc/dcmitype/StillImage" />
        <dc:title></dc:title>
      </cc:Work>
    </rdf:RDF>
  </metadata>
  <g
     transform="translate(-151.88226,-571.9029)"
     id="layer1">
    <path
       d="m 60.125,5.0625 c -1.076544,0.055878 -1.499761,0.1192181 -1.5625,0.15625 0.367276,0.1189041 5.122743,0.1004525 1.5625,-0.15625 z m 5.875,0 c -3.48703,0.11031 5.60621,1.60254 6.46875,3.3125 2.943,2.43866 3.93565,7.38259 8.4375,6.59375 2.06292,5.18525 8.47366,6.18345 12.34375,9.78125 3.72088,2.84549 7.36337,5.85779 11.5,7.71875 4.45371,3.18034 10.0286,4.27004 14.1875,7.75 2.10724,0.86626 6.90007,5.05902 7.46875,4.15625 -3.07562,-4.32716 -8.38718,-5.76084 -12.625,-8.71875 -4.33931,-1.27588 -8.05926,-3.67452 -11.84375,-6.0625 C 97.24798,27.0317 93.31473,23.28706 88.84375,20.375 83.54028,18.79439 81.93142,13.17959 76.5625,12.5 74.85218,7.9584 70.77358,5.20318 66,5.0625 z M 51.59375,5.09375 c -3.85901,4.12022 -9.51172,4.67785 -14.25,7.125 -4.57113,1.81264 -9.86798,1.19775 -13.21875,5 -4.17725,0.94327 -9.63779,1.19541 -12.5,4.53125 -0.57308,4.98078 -3.75554,8.0461 -3.90625,12.875 -1.06533,5.47492 1.94397,10.72713 1.125,16.28125 0.61342,4.76176 1.91721,9.67283 3.65625,13.96875 0.30461,5.14787 3.08049,9.53138 5.96875,13.6875 4.2112,3.38313 9.37533,4.64995 13.8125,7.5625 4.75041,2.4643 10.92753,-1.44147 15.8125,1.59375 5.13626,2.20462 10.39836,3.35373 16.03125,2.625 5.50574,-0.39944 10.23824,2.49642 15.34375,4.0625 0.70456,-0.0909 2.31402,-5.6759 1.96875,-1.09375 3.00966,1.19972 7.22119,0.83291 10.1875,0.3125 -1.06038,-0.77399 -2.65091,-3.55995 -4.03125,-1.03125 3.92209,0.9413 -2.06036,0.58606 -1.96875,-1.375 -2.35601,-1.67462 -1.14557,-2.86811 0.46875,-0.65625 2.9974,1.92058 4.09099,-4.34266 6.65625,-2.78125 -2.38801,-4.9242 1.42725,-2.10844 1.46875,0.3125 2.64846,0.50071 3.90996,5.29735 3.09375,5.875 3.50097,0.596 7.23393,0.98758 4.78125,-2.6875 0.95176,-3.5029 -6.15774,-4.61288 -0.25,-4.25 1.4139,3.85954 -0.35958,-5.10335 3,-1.03125 1.081,0.0995 -1.46044,-2.53374 1.34375,-0.34375 1.62522,-3.32869 3.95293,11.07163 -1.75,6.6875 -3.9765,-3.81443 0.46082,4.74396 3.8125,1 2.88729,-0.79542 4.68081,-4.97633 1.15625,-1.46875 -1.31932,0.16053 1.71719,-4.32412 0.0937,-6.3125 0.0464,-1.84682 -0.14188,-3.2839 0.9375,-2.875 0.93839,-3.19016 6.90265,0.38431 3.3125,-4.375 3.03713,-0.65379 2.39783,3.94756 0.4375,5.34375 -5.03221,0.80673 1.18815,6.54194 -0.78125,1.65625 1.97359,-2.811493 0.0479,3.607096 1.59375,3.5625 -1.94799,1.193996 -3.91703,2.436849 0.0312,1 4.98448,-2.6316 8.55224,-7.41297 13.6875,-9.90625 1.33983,-0.4809 7.03376,-4.85736 5.40625,-4.15625 -2.4378,1.39132 -9.53742,5.85826 -9.4375,5.5 0.18201,-1.03679 -3.588,1.79926 -5.15625,0.875 -3.6547,1.54598 -1.25134,-5.83131 -4.1875,-4.125 0.10384,0.99418 -0.85669,-4.62171 0.90625,-3.0625 -1.11861,-2.5912 -0.49016,-7.68035 -3.03125,-6.5 -1.32213,1.77301 -0.77825,8.58756 0.90625,9.0625 -1.7097,1.87888 -2.1258,3.8684 -3.6875,1.21875 2.54157,0.8987 -0.78804,-5.60499 -0.46875,-0.78125 -0.91786,1.95172 -1.49027,2.80576 -3.03125,0.84375 -0.006,0.40198 -1.01888,0.3713 -1.53125,1.03125 3.33807,0.10947 4.39589,2.90373 0.28125,2.875 -1.54296,3.4356 -3.52743,-1.00774 -6,-1.6875 1.5123,-0.079 6.53485,1.95462 3.875,-0.90625 0.82691,-2.79139 -1.47435,0.07014 -1.15625,0.46875 -2.28853,-1.97883 -0.11891,-2.77783 0.40625,-2.9375 -1.86052,0.10049 -4.04749,-2.90414 -0.5,-2.78125 2.61607,-1.28764 -2.13953,-0.0778 -0.59375,-2.59375 -0.6719,-0.83411 -3.17778,-0.7839 -2.625,-3.3125 -0.42184,-1.8532 4.79357,3.7519 6.65625,3.09375 1.50267,0.48223 -1.89709,0.92198 1.09375,2.15625 -2.97347,2.30855 3.85408,3.0386 1.4375,-0.625 -3.13642,-3.60496 -5.75194,-4.42248 -7.09375,-8.125 1.2644,-1.27961 -1.77744,-2.13676 -0.75,0.6875 -0.62289,2.37997 -0.82262,-1.72856 -3.0625,-0.75 -1.0044,-2.87056 -2.90719,-2.57371 -3.09375,-0.375 -0.54019,-0.96838 -5.36792,-3.0958 -6.34375,-2.71875 -3.71709,0.65355 -5.93157,-4.58585 -6.84375,-5.03125 -2.62924,-1.8056 -5.58174,-3.69993 -8.125,-3.625 -0.13898,-1.76191 3.03218,-3.86332 0.125,-5.03125 1.61493,3.49751 -7.17294,1.52909 -2.65625,3.46875 -2.4278,2.41186 2.76736,6.22744 1.3125,6.125 -3.33495,-0.47392 -7.91206,-3.05785 -9.09375,-4.28125 -3.60381,-0.35868 1.215,-4.9224 -2.65625,-1.25 -1.36028,-2.89342 -2.27124,0.73263 -4.71875,-0.625 -1.14868,-1.66564 -3.59986,-5.93404 -3.3125,-5.6875 -0.0338,-0.9832 -2.59977,-0.2422 -2,-0.09375 0.39117,0.82305 4.03836,4.33014 0.125,1.46875 -1.88081,-0.19651 -3.20392,-4.14972 -3,-0.75 -0.10645,-3.44161 -5.6779,-5.86904 -3.6875,-6.0625 -2.516434,-0.751863 -4.29256,-1.895952 -4.21875,-2.6875 -2.693471,3.17627 -5.192177,-0.08775 -6.40625,-0.34375 -0.1968,-0.22176 -4.55968,-2.18023 -3.03125,-4.0625 -1.47759,-1.97725 2.26967,-5.00747 -2.34375,-5.28125 -1.55934,-2.6347 -2.23365,1.27158 -2.625,-2.25 -1.98586,0.14603 -1.3854,-0.70264 -3.65625,0.1875 C 19.9216,22.50997 18.1403,25.3765 15.96875,26.1875 15.16568,28.76213 12.8448,28.42022 12.875,29.34375 9.11962,26.29549 12.77533,21.39694 15.75,20.5 c 2.69483,-1.88069 4.68454,3.65532 3.375,-0.65625 2.86954,-0.48155 5.59812,-2.30383 8.5,-2.1875 -1.25551,1.60414 2.04373,-0.23062 -0.0625,-0.96875 4.50309,-1.16472 2.33873,-0.35309 0.3125,-1.09375 4.67112,-1.0559 10.23769,-1.81549 14.59375,-4.71875 3.07137,-1.23429 8.91753,-1.84455 9.125,-5.78125 z m 0.71875,9.5 c -2.89243,0.30671 2.89389,0.30058 0,0 z m -23.25,2.59375 c 0.9318,0.7778 1.27159,2.54473 1.28125,0.4375 z m -1.15625,1.5 c -3.77227,1.02217 2.46287,0.49838 0,0 z M 44.75,19.09375 c -1.95071,0.22352 2.38954,3.62151 0.9375,0.625 l -0.5,-0.4375 z M 24.09375,19.25 c 1.24922,1.19688 -6.86553,4.5971 -1.34375,3.8125 0.46179,-1.26523 2.90529,-2.69226 5.71875,-1.5 -0.34208,-2.07155 -1.97613,-1.60986 -4.375,-2.3125 z M 48.4375,20 c -0.62461,3.65228 4.86523,4.55268 0,0 z m -17.78125,0.84375 c -2.00703,0.83514 1.74503,1.20087 0,0 z m 20.53125,0.9375 c 0.45284,3.14782 1.73553,2.13469 0,0 z m -4.59375,0.65625 c -1.1809,3.92059 6.97228,4.53235 1.5,0.875 L 47.4375,22.875 z M 21,23.65625 c -2.24707,0.69441 2.33894,1.90377 0,0 z m 8.0625,0 c -1.68682,1.08334 1.58374,1.05149 0,0 z m 22.375,0.8125 c -1.45008,1.02401 1.44208,1.82461 0,0 z m -12.78125,0.3125 c 1.69645,0.84477 -2.39797,2.01481 1.3125,1.34375 0.26166,3.41406 5.40001,1.34721 1.4375,0.125 -0.94247,-0.43319 -1.70389,-1.29276 -2.75,-1.46875 z m -17.875,2.625 c 1.47732,1.0221 -1.47306,0.86159 0,0 z m 23.375,0 c 0.34629,1.46012 2.64129,0.40761 0,0 z m 7.96875,0.0625 c -1.73042,5.04692 3.06069,0.14256 0,0 z M 41.4375,29.0625 c -0.88971,1.3787 2.04735,1.67903 0,0 z m -23.8125,0.125 c 1.39822,1.25672 -0.37644,1.5538 0,0 z m 8.65625,0 c 0.70151,0.89184 -0.38565,1.49871 0,0 z M 44.3125,29.875 c -3.96633,0.94608 2.8548,1.60367 0,0 z m -16.875,0.5 c 2.31867,2.04708 -3.04232,1.79367 0,0 z m 25.65625,0.3125 c -1.36002,1.31929 1.24705,2.58255 0,0 z m -5.40625,1.25 c -2.3834,1.66322 1.37253,1.40957 0,0 z m 7.59375,0.15625 c -1.34036,0.63989 0.0579,2.05958 0,0 z m -12.15625,0.25 c -0.19828,1.05494 -3.61853,1.34278 -0.15625,2.90625 3.09911,0.53675 0.17181,-2.06899 0.15625,-2.90625 z m 6.0625,0.1875 c -1.28894,0.23466 0.56079,2.45379 0,0 z m -22.59375,0.25 c 0.91972,0.82439 -1.38098,0.91447 0,0 z m 13.8125,1.03125 c -1.29321,1.9741 0.68654,1.25253 0,0 z m 0.5,1.4375 c -2.32308,1.01295 2.20837,0.43227 0,0 z m 8.46875,0.28125 c -1.51874,4.47831 1.89455,3.17318 0,0 z m 9.8125,0.5625 c -0.42216,1.54412 2.21092,1.13378 0,0 z m -19.21875,0.5625 c 0.38375,2.54513 2.24183,0.67455 0,0 z m 21,0.8125 c -0.26953,1.33892 2.83589,3.61776 0.1875,0.28125 z m -21.40625,0.3125 c -0.216468,0.128711 -0.349421,0.297042 -0.375,0.46875 0.121802,-0.144681 0.25246,-0.296774 0.375,-0.46875 z m 15.34375,0.4375 c -0.51257,1.65664 1.81745,0.88562 0,0 z m -0.59375,0.8125 c -2.1471,0.25952 1.96012,0.40575 0,0 z m -4.78125,0.4375 c -0.79895,1.93108 1.79473,2.97097 0,0 z m 18.5625,0.34375 c -2.01947,1.34949 -0.15907,2.71145 0,0 z M 42.875,40 c 0.41965,1.76604 2.5001,0.51639 0,0 z m 6.0625,0 c -0.57236,0.88529 -1.12146,0.74969 0.15625,2.46875 C 49.77123,41.94138 49.6437,40.43869 48.9375,40 z M 101,40.34375 c -1.20701,0.82495 1.8225,0.91404 0,0 z M 63.125,40.6875 c 0.64441,2.30641 1.49036,1.57076 0,0 z m -25.6875,0.375 c 2.21289,0.7384 -1.26011,0.6529 0,0 z m 14.9375,0.625 c -4.41454,1.30641 1.79566,1.73837 2.3125,2.3125 1.134496,0.304487 1.984568,0.414727 2.59375,0.40625 1.323396,-0.01841 1.402246,-0.615145 0.03125,-1.125 C 56.21978,42.2785 53.76108,43.02189 52.375,41.6875 z m 4.90625,2.71875 c -2.30731,0.22624 2.13981,0.34419 0,0 z M 102.9375,42.375 c -0.531,1.72172 1.82439,0.81614 0,0 z m 18.34375,0.90625 c -1.39981,1.84066 1.47678,0.84614 0,0 z m -56.125,0.03125 c -0.48853,2.13959 2.61229,1.82679 0,0 z m 51.125,0.625 c -1.62538,1.03678 0.88322,1.17118 0,0 z m -9.375,0.40625 c -0.9248,0.72419 1.66096,1.1864 0.375,0.125 z m 2.0625,0 c -0.64531,1.65056 -3.07479,5.89077 -0.28125,2.59375 0.83921,2.71872 3.52883,4.97277 1.1875,0.9375 -0.47147,-2.34737 1.61519,-1.54543 0.78125,-0.90625 3.83394,-0.71907 -1.1093,-1.83157 -1.6875,-0.78125 0.0243,-0.58825 0.45255,-1.3326 0,-1.84375 z m -55.84375,0.25 c -0.30971,1.32337 2.51371,1.28121 0,0 z M 115,45.3125 c -2.15974,1.23303 0.68939,1.32046 0,0 z M 96.1875,45.375 c -1.39043,0.61988 1.46107,0.75964 0,0 z m -2.09375,0.21875 c -2.388622,0.192897 -4.776616,3.756791 -0.8125,1.625 l 0.78125,-0.8125 0.5,-0.8125 c -0.157317,-0.01974 -0.309509,-0.01286 -0.46875,0 z m -39.625,0.59375 c -1.76022,1.31721 0.99808,1.60874 0,0 z m 58.8125,0.25 c 1.42667,2.91013 -4.44749,-0.5921 -0.21875,2 2.51416,1.55087 1.01555,-1.24594 0.21875,-2 z m 14.375,0 c -1.40235,1.61301 4.47119,6.91102 1.0625,2 -0.569,-0.52215 -0.36453,-1.68123 -1.0625,-2 z M 78.375,46.84375 c -2.97845,1.66048 2.78278,0.63939 0,0 z m 36.46875,0.03125 c -1.44136,1.2391 2.35524,1.41149 0,0 z M 99.40625,47 c -2.89485,1.9996 4.75043,3.71463 0.53125,0.15625 z m 0.3125,0.625 c 0.48456,-0.07663 -0.164682,0.539563 -0.28125,0.09375 0.120395,-0.04367 0.212026,-0.0828 0.28125,-0.09375 z m -10,0.0625 c -2.47521,1.34941 1.65519,1.07629 0,0 z m 7.3125,0 c -2.10773,0.83068 -0.0861,1.61681 0,0 z m -12.375,0.5625 c -0.66707,1.23383 1.97652,0.43023 0,0 z m -29.5625,0.25 c -2.37008,0.99808 2.76897,0.37112 0,0 z m 1.78125,0.03125 c 0.46861,1.82649 5.26051,3.13616 2.5,1.65625 -0.73576,-0.65077 -1.49765,-1.45157 -2.5,-1.65625 z m 53.9375,0.03125 c -0.62279,1.58259 1.85234,1.02826 0,0 z M 93.5625,49 c -3.391102,1.813216 2.6912,0.39583 -0.1875,0.75 0.293695,-0.115791 0.993322,-0.907386 0.1875,-0.75 z m 18.75,0 c -2.68327,3.006795 2.04267,4.523133 0.375,0.78125 -0.0664,0.346379 -0.93573,0.0861 -0.125,-0.3125 -0.0774,-0.155495 -0.15143,-0.296895 -0.25,-0.46875 z m 0.25,0.46875 c 0.0489,0.09821 0.0841,0.220675 0.125,0.3125 0.0158,-0.08245 0.0234,-0.182729 -0.0937,-0.34375 -0.0178,0.0081 -0.0149,0.02321 -0.0312,0.03125 z m 3.3125,0.1875 c -0.14174,-0.0022 -0.25246,0.02367 -0.34375,0.09375 -2.13514,2.21662 6.30518,4.92325 1.375,1.0625 1.86851,0.39431 -0.0391,-1.141071 -1.03125,-1.15625 z M 114.0625,49.75 c -0.49075,-0.0093 0.13652,0.81899 0.28125,0.0625 -0.12052,-0.04257 -0.21114,-0.06117 -0.28125,-0.0625 z m -7,0.40625 c -0.4905,1.91711 3.82414,2.62071 0.625,0.1875 l -0.53125,-0.1875 z m -40.59375,0.0625 c -4.29691,0.23536 2.02776,2.15658 -0.84375,0.46875 0.46787,0.0104 2.91262,-0.42821 0.84375,-0.46875 z m 17.84375,0.9375 c -0.55237,1.39711 2.65379,1.35535 0,0 z m 3.28125,0.25 c -3.42505,3.62649 3.87441,1.41214 0,0 z m -3.8125,0.21875 c -0.14515,1.48906 1.99143,0.84361 0,0 z m 36.125,0.03125 c -2.90155,1.70527 5.33075,3.61682 1.5625,1.125 l -0.625,-0.59375 z M 91.1875,52.625 c -0.92211,0.86527 1.37764,0.96498 0,0 z m -1.25,0.03125 c -2.35085,3.21759 5.85267,5.17732 2.46875,2.6875 -2.51414,1.20178 1.74632,-0.94781 -1.59375,-0.75 -1.09021,-0.33923 -0.22248,-1.56207 -0.875,-1.9375 z M 26.53125,53.0625 c 1.54676,0.95324 -0.94621,1.07352 0,0 z m 105.34375,0.625 c -0.006,1.93037 3.72367,5.27124 1.125,1.25 l -0.4375,-0.59375 z m -78.5,0.03125 c 3.46925,0.79607 -0.75523,1.57339 0,0 z m 3.71875,0 c 1.29463,2.25663 -2.80932,0.48589 0,0 z m 48.25,0.15625 c -0.68826,2.12645 -3.58232,0.8807 -3.125,2.8125 1.77386,2.648107 3.65328,1.479952 3.25,-0.78125 0.29372,0.382052 0.4374,-1.873341 -0.125,-2.03125 z m 21.4375,0 c -1.48444,1.39897 -1.7247,1.70284 -0.53125,3.28125 -5.2161,-2.099206 2.85625,3.980739 1.0625,-1 0.17112,0.16421 0.54082,-0.464519 0.125,-1.28125 -0.15862,0.474711 -0.22224,0.791655 -0.21875,1 -0.0481,-0.119958 -0.0664,-0.21223 -0.125,-0.34375 -0.3171,-0.23388 0.29865,-1.41485 -0.3125,-1.65625 z m -11.09375,0.03125 c -1.66298,1.55743 3.01026,1.53027 0,0 z m -22.40625,0.1875 c 0.54728,2.49991 3.15426,1.42339 0,0 z M 83.5625,54.8125 c -2.32757,2.24472 0.84428,4.75359 0,0 z m -47.625,0.125 c 1.69606,1.4283 -0.47714,3.85656 1.6875,4.5 -2.71208,0.51647 -2.55523,-3.10056 -1.6875,-4.5 z m 68.4375,1.03125 c 1.503,0.88227 -0.93369,1.11905 0,0 z M 88.28125,56.0625 c -2.55666,1.21573 3.45623,1.19749 0,0 z M 63.5,56.125 c 1.44785,1.45253 -1.23848,1.22554 0,0 z m 1.375,0.25 c 0.86063,1.15757 -1.49799,0.78908 0,0 z m 21.65625,0.84375 c -0.98933,0.85763 -4.6349,-0.08247 -1.25,1.125 0.5344,-0.0281 1.40289,-0.44367 1.25,-1.125 z m 28.375,0.09375 c -1.78777,3.14929 2.39853,0.83358 0.28125,0.1875 z m -17,0.03125 c -0.54528,1.26072 0.77182,1.32014 0,0 z m -9.3125,0.375 c -2.35899,1.52801 -3.26607,2.52414 -5.15625,1.65625 1.20913,3.13683 7.98368,1.73732 5.125,0.25 0.46614,-2.39182 3.25176,3.90823 3.875,1.0625 0.67466,2.40484 4.73045,1.66513 1.1875,0.25 -0.66947,-2.40854 -3.71953,-3.02434 -0.90625,-0.8125 -1.94174,-1.14843 -2.13192,-2.01398 -4.125,-2.40625 z M 134.65625,58 c 1.08106,4.42434 3.23522,9.67634 0.78125,14.15625 1.16238,4.77979 0.52986,-2.97838 1.875,-4.28125 0.19353,-2.41686 1.06156,-5.96049 -0.4375,-8.125 -0.70194,-0.62723 -1.3572,-1.33599 -2.21875,-1.75 z M 88.5,58.0625 c 1.27299,0.31721 -0.43644,0.58092 0,0 z m 23.59375,0.125 c -0.58154,2.2434 0.63543,1.15612 0,0 z m -6.65625,0.375 c 0.62609,3.3777 2.08051,2.71394 0,0 z m -80.375,0.03125 c 2.02568,0.45121 -0.7787,1.24769 0,0 z m 61.65625,0.4375 c 2.98456,1.4501 -0.73977,2.33224 0,0 z m 29.25,0 c -1.93908,0.297322 -1.92439,8.487618 -1.25,7.0625 1.99098,1.07132 0.8611,-4.05273 1.5625,-5.78125 -0.005,-0.29368 0.36777,-1.08475 -0.125,-1.28125 -0.0667,-0.0074 -0.12495,-0.0096 -0.1875,0 z m -45.40625,0.25 c 2.01893,-0.0216 -2.18877,0.88864 -0.9375,1.875 -2.55619,-0.92763 -0.60584,-1.4541 0.9375,-1.875 z m 36.15625,0.15625 c -0.56498,1.72647 0.61623,1.51526 0,0 z m -40.25,0.375 c 1.47328,1.88821 -0.50165,2.9861 0,0 z M 89.9375,60.125 c -1.36097,10e-4 0.0813,0.7658 0.34375,0.125 z m 20,0 c 1.12393,0.93585 -0.61965,3.69558 2.5625,3.09375 -1.05449,-0.98768 -0.91651,-2.71718 -2.5625,-3.09375 z m -7.59375,0.375 c -1.28755,2.135091 1.34069,3.59928 1.65625,2.78125 -0.14393,0.15 -0.41994,0.202457 -0.28125,-0.3125 0.17046,-0.0041 0.26031,0.01906 0.3125,0.0625 C 104.00122,62.668332 103.7246,62.104638 103,61.25 l -0.28125,-0.53125 z m 1.6875,2.53125 c 0.008,0.09619 -0.006,0.184294 -0.0312,0.25 0.074,-0.07708 0.11195,-0.182834 0.0312,-0.25 z m -23.125,-2.46875 c 3.37176,0.84272 1.5401,1.47893 0,0 z m 46.6875,0.375 c -1.71097,1.05207 1.59848,0.99841 0,0 z m -8.71875,0.40625 c -1.86754,2.04567 1.59634,4.24929 0,0 z m -12.25,0.5 c -0.23877,2.05012 2.26055,2.45425 0,0 z m 16.65625,0.46875 c -1.37242,1.5675 2.02164,1.18 0,0 z m 4.03125,0.4375 c -2.37345,1.59482 1.98735,0.94178 0,0 z m -68.625,0.3125 c 1.62051,1.57892 -0.59777,1.97903 0,0 z m -4.3125,0.09375 c 1.51338,1.2531 -1.31263,1.40216 0,0 z M 52.8125,63.875 c 1.79488,0.2827 -1.38823,0.52712 0,0 z m 58,0.0625 c 0.15634,0.412502 0.32016,0.637523 0.46875,0.8125 -2.27372,1.675021 -0.92267,5.790515 -0.0625,1.15625 l 0.15625,-0.9375 -0.0312,-0.15625 c 0.67553,0.68709 1.0386,-0.687513 -0.53125,-0.875 z M 56.375,64.34375 c 2.431652,0.01744 -3.814772,3.754656 -0.46875,4.75 1.89995,1.06701 -2.18626,1.45738 1.65625,1.15625 3.22785,1.64478 1.90317,-2.52178 0.375,-2.34375 0.24285,-1.77596 4.9744,1.73192 2.21875,-1.1875 2.36752,-1.82282 1.1986,-1.10394 1.59375,0.40625 0.93979,-2.08614 4.71972,7.84631 -0.03125,5.53125 -3.41002,-1.09623 -7.65995,-1.81946 -10.3125,-0.71875 -0.975869,-0.147729 -1.375749,-1.169889 -1.375,-2.15625 -0.403653,0.405072 -2.458897,0.741149 -1.5625,-0.375 L 49.125,69.3125 c 0.520501,0.04925 0.789172,0.122951 0.90625,0.21875 0.09599,-1.340799 0.925426,-2.499032 2.03125,-1.1875 1.71799,2.60975 1.75501,-3.27863 3.71875,-3.9375 0.244764,-0.03361 0.43164,-0.06366 0.59375,-0.0625 z m -6.34375,5.4375 c 0.07879,-0.07906 0.08281,-0.143752 0,-0.21875 -0.0047,0.07523 5.8e-5,0.142876 0,0.21875 z m 15.40625,-5.125 c 2.02713,0.77552 -0.71725,1.13796 0,0 z m 37.53125,0.125 c -0.60095,1.16461 0.70224,1.42202 0,0 z M 49.5,65.46875 c 1.23202,1.59611 -0.60446,2.36654 0,0 z m 2.90625,0.21875 c 1.95322,1.6662 -1.96803,1.60789 0,0 z m 38.34375,0 c 3.6431,0.70222 2.05133,6.68381 3.65625,7.1875 0.82063,1.68885 1.44329,3.48566 -0.625,2.28125 1.07433,2.34432 -1.21723,2.8957 -1.25,5.375 -0.37385,-2.0884 -3.48163,-2.82129 -0.125,-3.03125 -3.76892,-1.14049 -0.28393,-4.09828 2.03125,-3.3125 -2.34218,-1.34482 -5.74559,-0.59618 -6.53125,-4.46875 -2.38206,-1.8991 4.22013,-0.69787 -0.53125,-3.0625 -3.01815,-1.87188 2.85705,1.00808 3.375,-0.96875 z m 38.59375,0 c 0.92228,4.10524 -1.91757,-0.83181 -2.875,0.6875 1.31469,1.97215 4.18393,6.46376 3.125,3.34375 0.67952,-0.85621 0.28548,-2.7993 -0.25,-4.03125 z M 42.5,66.09375 c 1.64772,-0.0166 0.99544,1.54769 0,0 z M 65.6875,66.5 c 2.3887,0.68886 -1.96589,0.96877 0,0 z m -0.40625,1.25 c 2.34662,0.63498 -1.93239,0.99171 0,0 z m 1.59375,0.34375 c 0.63184,0.94625 -0.42876,1.46853 0,0 z m -24.125,0.0625 c 1.53877,0.82292 -2.55584,0.75293 0,0 z m 22.40625,0.625 c 2.25059,1.22772 2.86068,11.25204 0.875,4.6875 0.92191,-1.69893 -1.60002,-3.57492 -0.875,-4.6875 z m -4.5,0.15625 c -0.62997,1.27023 0.76298,1.30245 0,0 z m 49.75,0.3125 c -0.81997,-0.062 -1.76302,1.50997 0.5,1.75 0.11794,-0.55885 0.14174,-1.48904 -0.5,-1.75 z m -37.34375,0.5 c 0.68523,0.89397 -0.37236,1.50817 0,0 z m 1.65625,0 c 0.68523,0.89397 -0.37236,1.50817 0,0 z m 52.21875,0.03125 c -0.44969,1.61746 2.57847,1.12571 0,0 z m -57.625,0.40625 c 1.36436,1.76673 -1.11035,2.03094 0,0 z M 64.78125,71 c 0.70152,0.89181 -0.38565,1.49874 0,0 z m 57.6875,0.5 c -1.73867,5.56856 3.60126,2.04697 0,0 z M 76.25,71.6875 c 1.63742,1.52637 -1.59127,1.60504 0,0 z m 27.21875,0.125 c -1.22563,0.88575 1.89216,0.83811 0,0 z m 7.0625,0.0625 c -0.51586,3.93606 0.78487,3.39157 1.28125,2.96875 0.18738,-1.15311 0.18013,-2.73654 -1.28125,-2.96875 z M 44.5,72.25 c 0.71113,0.90988 -0.41679,1.39446 0,0 z m 42.625,0.59375 c 1.95769,2.60951 0.22131,5.33234 0,0 z m -57.65625,0.5 c 1.65947,1.12372 -1.60055,0.99066 0,0 z M 50.75,73.375 c 0.110798,0.0077 0.241649,0.05642 0.375,0.15625 2.2056,0.60998 -1.5211,0.72192 -0.0625,2.375 -1.4327,1.67132 -3.71315,2.29876 -0.3125,2.71875 -1.55562,2.49516 3.0436,-0.45531 2.3125,3.625 0.22829,4.09849 -1.54528,1.47872 -1.4375,-0.25 -2.09486,-0.18316 -2.35043,-2.5919 -3.59375,-2.21875 -1.12609,1.86658 3.13504,3.22608 -0.28125,3.1875 -1.62049,-2.65965 0.27459,-7.97179 1.71875,-8.28125 0.255596,0.52584 0.505666,-1.366523 1.28125,-1.3125 z m 22.84375,0.375 c 0.88597,1.09808 -1.74656,1.14592 0,0 z m 15.96875,0 c 1.85454,2.13029 -2.19693,5.69714 0,0 z m -26.90625,0.4375 c 1.5707,0.66693 2.5324,1.868 2.90625,1.71875 -0.94124,4.61403 -2.2212,-0.46398 -2.90625,-1.71875 z m 34.78125,0.625 c 2.56856,1.26428 0.61075,2.1874 -0.03125,0.03125 z M 44.40625,75 c 2.58164,2.48268 -1.10323,3.05803 -1.1875,1.03125 C 44.2002,76.3658 43.83127,75.3486 44.40625,75 z m 24.375,0 c 1.52267,0.90631 -0.93654,1.18313 0,0 z M 62,75.40625 c 0.93004,1.46707 -1.55982,1.79012 0,0 z m 7.78125,0.5625 c 0.90038,0.99655 -1.62715,1.12817 0,0 z M 123.53125,76 c -2.64821,0.8004 1.61059,0.85018 0,0 z m -12.0625,0.21875 c -0.92211,0.86528 1.37763,0.96496 0,0 z m 8.875,1.28125 c -2.41946,1.07691 2.28888,0.38968 0,0 z M 88.1875,77.65625 c 0.20353,1.86334 4.79345,6.4915 0.6875,3.40625 -0.84924,-1.12483 -1.5437,-1.8479 -0.6875,-3.40625 z m -44.5,0.375 c 1.08637,0.68482 0.0152,1.77739 0,0 z m 51.71875,0.8125 c 3.70758,3.82122 -3.00414,3.43743 0,0 z m 31.375,0.3125 c -1.503,0.88229 0.93369,1.11904 0,0 z M 51.8125,80.375 c -1.61786,1.12695 1.56955,1.01212 0,0 z m 33.0625,0 c 2.94435,1.21932 -1.56523,1.32605 0,0 z M 62.5,80.46875 c 2.55122,2.16738 -2.2037,6.07291 -0.8125,1.28125 L 62.03125,81 z m 35.46875,0.09375 c 1.77894,0.57332 -1.02907,1.44913 0,0 z m -13.875,0.65625 c 1.50302,0.88234 -0.93372,1.11899 0,0 z m 4.84375,0.71875 c 2.20167,1.81917 2.96541,2.958 -0.03125,1.03125 z m -39.03125,0.25 c 0.95339,0.0876 -0.0852,1.31121 0,0 z m 70.46875,0.84375 c 4.76873,1.50082 -4.07118,1.13865 0,0 z m -71.46875,0.25 c 1.72803,1.07834 -1.61383,1.03194 0,0 z m 66.25,0.40625 c 0.0175,1.49846 2.57427,1.10203 0.53125,3.34375 -0.22282,-0.75543 -1.60862,-2.81068 -0.53125,-3.34375 z m -16.34375,1.25 c 2.14214,1.38744 -1.50366,1.45853 0,0 z m -46.25,0.84375 c 1.40581,1.73285 -1.33766,1.19657 0,0 z m 37.71875,0 c 1.52126,0.77813 -0.83244,1.2104 0,0 z m -36.6875,0.15625 c 2.54493,1.34451 -0.0783,1.12787 0,0 z m 50.625,0.5625 c -0.90502,-0.12304 1.19416,4.73919 1.15625,1.25 1.57408,-0.68662 -0.42787,-1.17023 -1.15625,-1.25 z m -47.9375,0.1875 c 3.47248,0.67833 -1.40832,1.64616 0,0 z M 59.5,87 c 0.98047,1.04369 -1.71867,1.20615 0,0 z m 29.375,0.1875 c 2.30722,0.68321 -1.86612,1.00634 0,0 z m -7.53125,0.75 c 1.07736,2.27238 -0.641,4.41997 0,0 z m 31.625,0.3125 c -0.2146,0.92459 1.89185,0.56208 0,0 z m -21.4375,0.375 c -0.06287,-0.01073 -0.117092,0.0022 -0.1875,0.03125 -3.52306,1.51348 1.39302,2.98847 3.40625,3.59375 -0.20661,-1.92588 -2.78992,-2.60664 -3.25,-3 0.692326,0.357035 0.471315,-0.549917 0.03125,-0.625 z m -29.5625,0.25 c 2.97876,0.31496 -1.13953,1.07559 0,0 z m 30,1.71875 c 1.69948,0.2329 1.3134,0.55166 0,0 z m 0.09375,0.96875 c -1.503,0.88227 0.93369,1.11905 0,0 z m 3.03125,1.25 c -1.62767,1.03467 0.88957,1.11368 0,0 z m 6.4375,0 c 0.96212,0.74049 -1.09789,0.35455 0,0 z m -7.8125,0.15625 c -1.58129,1.52942 1.58397,1.27254 0,0 z"
       transform="translate(151.88226,571.9029)"
       id="path4622"
       style="fill:#000000" />
  </g>
</svg>
