<?xml version="1.0" encoding="UTF-8" standalone="no"?>
<!-- Created with Inkscape (http://www.inkscape.org/) -->

<svg
   xmlns:dc="http://purl.org/dc/elements/1.1/"
   xmlns:cc="http://creativecommons.org/ns#"
   xmlns:rdf="http://www.w3.org/1999/02/22-rdf-syntax-ns#"
   xmlns:svg="http://www.w3.org/2000/svg"
   xmlns="http://www.w3.org/2000/svg"
   xmlns:sodipodi="http://sodipodi.sourceforge.net/DTD/sodipodi-0.dtd"
   xmlns:inkscape="http://www.inkscape.org/namespaces/inkscape"
   width="169.7807"
   height="138.8073"
   id="svg4705"
   version="1.1"
   inkscape:version="0.48.4 r9939"
   sodipodi:docname="piedra-b.svg">
  <defs
     id="defs4707" />
  <sodipodi:namedview
     id="base"
     pagecolor="#ffffff"
     bordercolor="#666666"
     borderopacity="1.0"
     inkscape:pageopacity="0.0"
     inkscape:pageshadow="2"
     inkscape:zoom="2.6079322"
     inkscape:cx="84.890351"
     inkscape:cy="69.403652"
     inkscape:document-units="px"
     inkscape:current-layer="layer1"
     showgrid="false"
     fit-margin-top="0"
     fit-margin-left="0"
     fit-margin-right="0"
     fit-margin-bottom="0"
     inkscape:window-width="1024"
     inkscape:window-height="541"
     inkscape:window-x="0"
     inkscape:window-y="27"
     inkscape:window-maximized="1" />
  <metadata
     id="metadata4710">
    <rdf:RDF>
      <cc:Work
         rdf:about="">
        <dc:format>image/svg+xml</dc:format>
        <dc:type
           rdf:resource="http://purl.org/dc/dcmitype/StillImage" />
        <dc:title></dc:title>
      </cc:Work>
    </rdf:RDF>
  </metadata>
  <g
     inkscape:label="Capa 1"
     inkscape:groupmode="layer"
     id="layer1"
     transform="translate(389.42838,-348.21931)">
    <path
       style="fill:#000000"
       d="m 76.84375,7.28125 c 2.66618,2.26939 11.7845,3.91537 16.90625,5.78125 6.86201,1.96918 12.78059,6.34215 20.03125,7.21875 6.62112,0.16331 9.49998,6.66226 15.40625,7.75 0.88015,-0.29944 -6.78561,-4.77973 -8.375,-7.0625 C 114.14827,19.03801 106.95804,18.05516 101.03125,14.3125 95.22844,11.46206 88.84184,10.93285 82.8125,8.5625 80.84126,8.05978 78.8759,7.47064 76.84375,7.28125 z m -4.5625,1.4375 c -0.139639,0.00538 -0.289858,0.030347 -0.46875,0.0625 -1.98399,2.2233 -9.94247,4.98937 -6,4.8125 0.2304,5.44507 4.89268,-6.68452 5.46875,-1.78125 0.952116,-0.422559 3.094583,-3.1744562 1,-3.09375 z m -14.21875,6 c -3.47276,-0.11485 -16.41323,1.45336 -6.875,1.1875 0.89671,-0.13023 9.33931,-0.22868 6.875,-1.1875 z m 7.28125,1.3125 c -2.72895,1.07945 0.98788,1.51845 0,0 z m -19.53125,0.0625 c -3.59325,1.22008 -0.93726,1.07389 -0.3125,3.125 -0.5914,-0.96183 0.41904,-2.89025 0.3125,-3.125 z m 38.59375,1.59375 c -1.22371,1.11475 1.87189,1.21754 0,0 z m -42.8125,0.875 c -5.29512,3.752691 -9.592186,8.149184 -13,13.75 -6.59829,2.7405 -3.45537,12.06137 -8.28125,16.1875 -6.8349,1.55906 -9.52695,9.49674 -11.34375,15.125 3.21626,5.68501 0.07399,10.95638 6.5,14.59375 5.66367,3.24755 11.74642,4.82757 17.03125,8.40625 0.14742,8.0572 8.38236,9.75288 13.65625,13.71875 5.4738,4.55574 11.45413,8.60763 17.625,11.9375 5.4278,3.19558 10.60205,8.47883 17.5,7.65625 6.43812,-1.39165 12.00591,6.16006 18.375,1.96875 3.43775,-0.48578 8.54336,-4.15563 2.09375,-4.71875 -3.14927,-3.56335 3.32147,-0.041 -0.125,-3.59375 2.32333,-2.20846 7.07291,-3.18458 2.28125,-5.59375 0.97425,-1.35071 0.46685,-6.53313 -0.375,-3.875 0.23856,2.97516 -5.35416,-10.08172 -0.21875,-4.6875 0.46161,3.04075 6.79528,7.00233 2.96875,6.875 -0.25258,-3.17761 -1.89254,3.59303 1.78125,2.28125 2.38504,0.55893 3.46415,-0.76488 4.125,-2.53125 4.04371,2.32542 -4.06263,6.52426 -2.21875,8.8125 -0.96078,2.00353 3.17355,2.90392 -0.78125,2.5 5.10555,4.57894 1.87748,-14.20043 4.71875,-4.90625 -1.24115,4.70726 2.79508,4.10674 2.4375,-0.1875 4.07332,-2.22709 9.02183,-3.06131 7.3125,-9.0625 -3.40664,0.0568 -3.62409,1.00345 -0.15625,-1.75 -2.02627,-3.37517 4.27533,-7.54357 4.5,-6.65625 -1.09742,2.55479 -0.50111,9.29826 1.5625,4.75 5.35766,-1.36127 2.28619,5.92343 -0.46875,3 -5.98758,1.91729 3.58033,8.31122 -3,4.40625 -2.88899,-1.95165 -1.39448,2.32214 0.75,2 -3.73331,1.24952 -9.30635,4.59074 -7.21875,7.46875 -1.42632,2.07023 -2.68501,4.17114 0.8125,2.15625 0.55687,3.27905 -4.10293,1.76075 -0.5625,4.9375 -0.92414,5.40462 1.99065,0.79599 2.40625,1.625 2.58577,-2.84791 2.96159,-7.47662 4.125,-1.96875 2.00744,0.21889 8.50713,5.59914 5.46875,0.84375 3.12202,-2.23062 4.0058,-7.75046 6.15625,-11.1875 3.3732,0.34516 -2.42167,-10.76614 -2.875,-3.5 -0.24113,4.05408 -1.725,9.43393 -4.34375,11.90625 1.02696,-2.86968 1.05829,-4.32917 -0.34375,-5.9375 3.80701,-0.12814 4.03467,-8.39584 4.375,-9.78125 -0.93162,-0.2983 -3.20923,3.2298 -2.21875,-0.59375 -0.74703,-4.11837 0.5089,-5.00995 1.5625,-1.0625 -1.00399,-3.41776 2.63817,-3.94896 3.84375,-3.21875 -1.42858,5.68 2.62674,3.34074 2.875,-0.53125 1.18758,-3.61555 3.20586,-9.55027 5.53125,-3.0625 1.53307,2.79114 2.19476,-3.85869 1.53125,-4.34375 -3.42578,-2.87056 -0.98886,-6.92332 0.875,-8.25 -3.46995,2.73132 -1.13323,-2.44313 -1.40625,-3.5625 5.99509,0.27392 -1.8444,-2.79226 -2.46875,0.25 -2.27427,-2.6194 -2.83689,-0.90416 -5.03125,-4.375 -2.36584,0.59897 3.78801,6.52261 0.78125,4.375 -0.59547,-0.78827 0.70589,4.10305 -1.71875,1.6875 1.40622,-3.02354 -5.39881,-5.85708 -2.875,-3.09375 1.28584,2.33907 -2.90107,0.0862 -2.4375,3.875 -0.25168,4.61867 -0.85087,6.03903 -6.09375,7.71875 -4.12602,3.67743 -5.53711,3.33621 -7.9375,8.25 2.37351,1.14836 -4.75781,5.87061 0,7.84375 0.90803,1.26233 -1.1668,1.32684 -2.21875,3.625 -3.67687,-1.35491 2.59803,-9.26581 -3.28125,-4.4375 -0.0195,-1.88106 7.64485,-5.43124 4.0625,-9.03125 1.15187,-1.95685 -2.36461,-2.34567 -0.71875,-4.0625 -3.14427,-4.41344 -8.35482,-0.82944 -13.65625,0.5625 -2.27189,3.3428 -7.45357,3.67142 -6.28125,0.75 -0.69299,-1.79776 -3.98865,-4.97525 -4.625,-7.28125 5.10905,2.68992 1.6738,-5.72293 7.3125,-5.0625 -2.10312,2.68574 4.24116,7.92347 -1.09375,6.65625 -4.619869,-1.106081 0.430111,3.850254 0.65625,4.71875 0.66526,-3.139231 0.131193,-4.912062 3.34375,-1.59375 -0.74509,-3.21037 -3.26924,-13.07191 1.0625,-6.3125 -0.1998,-4.57425 -6.70254,-3.42063 -1.375,-7.15625 2.75326,-4.76798 -7.70417,-2.79274 -3.59375,-1.5 0.19861,0.85081 3.22219,2.53101 1.15625,-0.21875 5.34682,2.122023 -2.792747,1.609036 -3.90625,4.25 0.468205,-3.106331 -1.941662,-1.079137 -3.34375,-4.03125 2.08767,0.98155 3.44261,-4.07297 3.25,-5.21875 1.39165,-3.11069 -1.92776,0.39364 -1.75,-2.40625 -4.08602,-1.72899 -1.43625,-1.63769 0.21875,-2.03125 1.19081,0.64342 3.9478,5.00384 4.8125,2.53125 3.40357,4.86483 6.86451,9.27186 7.6875,15.875 7.64238,1.49334 -4.09512,-6.11212 3.0625,-4.90625 1.75615,-1.04775 6.33719,-8.71773 1.4375,-4.34375 -2.83671,-3.23893 0.007,-9.53206 2.21875,-4.25 3.18839,1.88401 -3.83989,-7.95762 -3.53125,-7.8125 4.20291,-2.6309 -1.30938,-10.15289 1,-12.875 -2.31017,-1.66845 3.03071,0.41765 2.34375,-0.8125 3.79022,3.45858 -1.66541,-6.793 -2,-1.3125 -1.14524,-3.15501 -7.9032,-1.6128 -2.4375,-0.0625 1.6582,1.8538 -1.66693,4.27771 -1.1875,0.84375 -4.54384,-0.19602 4.30836,8.14954 1.59375,11.71875 0.001,4.08598 -6.23597,0.29035 -4.53125,4.0625 -1.59879,2.35398 -0.94527,4.54817 -0.59375,6.875 -1.92357,-2.05925 -5.22917,-3.86303 -2.28125,-3.6875 -1.01666,-3.95679 -6.13675,-5.07218 -7.125,-5.8125 -0.34319,4.44962 -2.69642,-4.84751 -1.9375,1.78125 3.54055,2.86902 -6.59912,-1.78527 -1.15625,-0.78125 -1.90509,-4.86777 -11.96802,-4.47335 -8.375,1.40625 0.50583,3.73919 -2.12387,-1.59989 -2.78125,-2.5625 -0.34154,-2.80938 -2.38983,4.90112 -3.15625,-0.6875 3.46124,0.98663 -0.40716,-6.65189 3.21875,-2.5625 1.27713,0.63101 1.66767,-4.48519 -1,-2.5625 C 79.86198,53.46544 78.4238,51.367 75.40625,49 80.2409,52.68456 75.9271,45.87495 72.75,46.53125 c -0.89844,-1.68306 5.93964,0.38697 1.84375,-3.125 -2.30767,-2.48258 -4.27003,-5.48316 0.09375,-2.21875 3.62904,-5.33759 4.73393,9.9237 5.375,3.59375 0.78901,-2.92586 1.94023,8.21849 4.4375,6.59375 0.31211,2.46799 5.83183,11.74323 5.28125,7.21875 1.11155,-3.2484 -5.30807,-4.04929 -4.1875,-8.6875 -2.59447,-3.02386 -4.3629,-8.59129 -5.53125,-10.59375 0.35989,-3.0664 -8.65476,-3.20881 -8.21875,-5.75 -5.00644,-2.00803 -6.1989,-4.86533 -12.21875,-6.21875 -0.61179,-1.09525 -4.24936,-4.26073 -2,-0.03125 1.32306,1.47017 -0.51666,6.19722 1.90625,2.28125 3.67728,-0.52981 3.59678,5.29409 0.9375,4.8125 2.11635,2.07416 -4.23936,2.59413 -4.3125,0.90625 C 54.69626,36.2514 53.03241,31.93143 53.9375,36.75 52.77758,35.28547 49.59431,31.69848 52,29.1875 c -5.81615,5.36797 2.846,-9.5409 -5,-8.125 -2.51305,1.153 -2.07696,-0.52182 -3.28125,1 -3.023859,-0.149672 -4.004362,-1.893474 -2.125,-3.5 z m 62.125,1.03125 c -4.176,3.21812 5.85347,4.7825 1.53125,1.9375 -0.0727,-0.84231 -0.58048,-1.84181 -1.53125,-1.9375 z M 81.15625,19.875 c -2.22045,1.94243 2.10902,2.12931 0,0 z M 39.3125,20.40625 c 1.06325,1.49824 -1.92012,1.1093 0,0 z m 68.6875,2.75 c -1.7624,1.33624 1.80845,2.38746 0,0 z m -2.71875,0.5625 c -1.98126,1.07765 1.13467,1.6108 0,0 z M 78.03125,25 c -0.87501,1.69272 2.65149,0.56275 0,0 z M 98.625,26.0625 c -4.23466,1.24614 1.7228,1.7038 0,0 z M 51.84375,27 c -2.73581,1.5157 3.51283,1.0258 0,0 z m 45.96875,1.09375 c -1.95393,1.33262 2.64419,1.06576 0,0 z m 35.5,0.09375 c -2.24936,2.22773 5.39647,1.38038 0,0 z m -49.46875,1.53125 c -1.14798,1.15444 1.8264,1.20724 0,0 z M 40.25,32.6875 c 1.77383,1.70201 -0.12767,3.16481 0,0 z m 29.28125,1.96875 c 3.82055,1.24998 -2.5877,0.74311 0,0 z m -20.5,0.1875 c 0.95405,1.20449 -0.56436,1.90319 0,0 z M 67.15625,36 c 0.15891,2.70927 4.92937,2.64285 1.4375,4.40625 2.55369,1.05719 3.31219,1.04762 2.0625,3.125 1.59269,2.78857 3.32778,8.81746 -0.03125,3 -0.28876,-2.8081 -7.41486,-5.64492 -4,-6.75 0.68948,-1.08067 0.14578,-2.5781 0.53125,-3.78125 z m 5.5,1.375 c 3.14907,2.18356 -2.54527,1.14812 0,0 z m 60.90625,0.15625 c -5.19797,1.40132 6.92233,2.94048 0,0 z m -75.09375,0.0625 c -0.26897,2.79524 4.85665,0.98441 0,4.28125 -2.53592,1.34045 -8.80098,-3.46007 -2.78125,-2.3125 0.79919,-0.80603 1.541,-1.87388 2.78125,-1.96875 z m -8.5,0.34375 c 1.93244,1.34759 -1.90936,1.17295 0,0 z m 66.71875,0 c -1.14546,1.14009 1.84239,1.19374 0,0 z m -7.09375,0.53125 c -1.22021,1.10511 1.78523,1.25616 0,0 z M 76.875,38.53125 c 3.59329,1.01021 -1.05551,0.92012 0,0 z M 121.1875,39 c 0.57092,3.04314 4.93972,0.49231 0.65625,0.1875 z m 22.28125,0.09375 c -0.18716,3.24651 7.60948,5.41142 10.09375,5.5625 1.95135,-2.29649 -8.76273,-3.47974 -10.09375,-5.5625 z m -5.8125,0.0625 c -1.13047,2.95632 2.69388,2.34884 0,0 z m -10.625,2.09375 c -0.10412,2.38648 4.3448,1.23161 0,0 z m -29.6875,0.15625 c -1.42933,1.51396 2.52942,2.2267 0,0 z m 35.5625,0.34375 c -2.96824,2.03413 -1.01402,8.82837 1.875,6.59375 1.06941,-0.32241 -0.99489,-2.97691 2.15625,-2.75 -1.32106,-3.13638 -1.22904,-2.84888 -4.03125,-3.84375 z m -45.125,0.3125 c -2.91818,2.31499 -1.13817,3.88932 -0.96875,6.6875 1.30019,-1.78898 0.69445,-4.52984 0.96875,-6.6875 z M 63.0625,42.34375 c 5.42783,2.45773 -0.25453,3.25818 0,0 z M 103.9375,42.5 c -1.64975,1.08668 2.40759,1.18049 0,0 z m 7.59375,1.125 c 1.14119,2.43711 6.84583,6.82808 2.9375,1 -0.72873,-0.77889 -1.90818,-1.03575 -2.9375,-1 z M 67.375,44 c 0.85366,2.43773 -2.76436,2.71702 0,0 z m 24.375,0.0625 c -4.87166,3.41008 7.24733,1.91809 0.90625,0.09375 z m 14,0.4375 c -1.22502,1.13258 1.85434,1.22816 0,0 z m -37.0625,0.0625 c 2.26924,2.33949 -0.55401,4.04305 0,0 z m 40.65625,1.21875 c -0.71942,1.31822 1.66528,1.75054 0,0 z m -5,0.03125 c -2.72561,1.45945 1.86423,2.12208 0,0 z m 25.21875,0.0625 c -0.5974,1.67561 3.00219,0.15009 0,0 z m -34.5,1.3125 c -2.65038,2.41892 2.46949,0.99995 0,0 z m 10.34375,0.25 c -0.87501,1.69272 2.65149,0.56275 0,0 z m 51.53125,0.03125 c -3.8156,1.13932 -4.45557,2.74997 -5.78125,0.625 -3.40826,4.19999 -1.47653,-2.29555 -5.9375,0.59375 -4.86158,-0.95485 -4.96022,7.88461 -7.78125,5.5625 -2.39466,-3.83094 -4.49425,5.21197 -1.96875,6.8125 1.67722,5.46715 -9.1284,-5.81565 -4.96875,0.78125 2.15429,2.405537 4.40531,1.785141 4.71875,4.78125 0.0379,-1.908159 2.53118,-4.272394 2.0625,-1.03125 3.09678,-2.37532 -3.04708,5.42658 2.0625,1.71875 0.52026,-4.07979 0.49643,-1.61592 1.78125,-0.40625 0.84731,-3.31734 5.52672,-0.10028 1.34375,-1.09375 -3.82025,3.69183 6.88512,9.46405 1.625,4 2.51531,-0.27376 2.7714,5.18998 4.15625,0.96875 0.5741,1.10387 2.84087,3.44793 -0.25,2.875 1.46806,2.51658 6.8002,-1.90422 3.40625,1.9375 -2.48886,7.18126 5.73356,-3.27502 7.4375,-5.125 4.23262,-4.06528 -1.10465,-6.81701 0.21875,-11.4375 2.92718,0.29009 -5.0806,-6.57991 -0.4375,-9.03125 -0.2655,-0.86718 -0.42333,-2.4832 -1.6875,-2.53125 z M 98.53125,47.75 c -0.0739,2.22904 3.83511,4.83947 2.46875,8.625 1.93672,1.53233 6.82828,2.72816 3.15625,-1.15625 -0.734,-4.13051 2.52553,4.98532 2.5,-1.0625 -2.19886,-1.51569 -3.62542,-3.39365 -2.90625,-6.03125 -1.54604,1.10684 -3.74996,0.64334 -5.21875,-0.375 z m -8.625,0.59375 c -1.93244,1.34758 1.90936,1.17295 0,0 z M 131.1875,49 c -4.14963,0.123312 -1.724,11.104573 0.71875,5.40625 -1.10206,-3.49093 4.88916,0.2592 0.46875,-4.0625 -0.51919,-0.20907 -0.0476,-1.30034 -0.75,-1.3125 -0.14774,-0.01952 -0.30364,-0.03523 -0.4375,-0.03125 z m -5.4375,0.625 c -0.76783,1.56247 2.225,5.98726 2.28125,0.5625 -0.74962,-0.22819 -1.51491,-0.40112 -2.28125,-0.5625 z m -31.34375,0.03125 c -2.53988,2.71705 2.12085,3.50032 0,0 z m 44.53125,0.875 c -4.11503,2.58863 3.05086,3.50434 0,0 z m 10.6875,0.5625 c 1.65992,1.92768 0.56114,4.6617 0,0 z m -57.90625,0.1875 c -0.73399,1.74202 1.03932,1.65259 0,0 z m 25,0.78125 c -1.24844,1.60158 -2.24057,4.79068 -0.15625,3.0625 1.69337,5.43266 3.9469,-2.47619 0.15625,-3.0625 z M 83.125,53.5 c -1.85423,3.13069 2.71505,1.65578 0,0 z m 42.40625,2.5625 c -1.36146,3.21352 -1.10528,10.28553 2.375,6.09375 3.17672,-0.36651 -5.55608,-3.48287 -0.21875,-2.84375 -0.33942,-1.20958 -1.02016,-2.61467 -2.15625,-3.25 z M 92.4375,56.53125 c -4.24086,2.86 2.7759,1.84736 0,0 z m 14.25,0 c -1.21447,3.15933 4.44616,3.3925 0,0 z m 28.25,0.21875 c 0.93893,1.13418 -0.4555,1.92192 0,0 z m -5.34375,0.34375 c -3.02598,1.30594 2.87362,0.62156 0,0 z m 11.71875,0.0625 c 1.66262,0.83713 -2.35986,0.18283 0,0 z m -24.15625,0.03125 c -1.24539,2.92209 4.98912,4.55893 0,0 z M 74.3125,57.65625 c 4.73404,-0.32387 2.36583,7.12453 0.6875,1.4375 1.59091,0.59051 -1.51199,-1.31542 -0.6875,-1.4375 z m 83.125,0.0625 c 2.4473,0.32985 -1.87101,0.68347 0,0 z M 133.53125,57.75 c -1.60796,1.55509 -0.41551,3.04281 0.15625,0.15625 z M 44.6875,57.875 c 1.92994,1.71086 -1.37297,5.47862 0,0 z m 56.71875,0.3125 c -2.23922,1.41903 2.10606,1.32651 0,0 z m 38.25,0.8125 c 3.1935,1.12756 -1.86914,1.89132 0,0 z m -19.96875,1.0625 c 0.0484,2.66149 3.15353,0.80766 0,0 z M 107.875,60.375 c -3.28763,0.62195 3.66098,1.31691 0,0 z m 7.21875,0 c -0.58379,3.93713 4.8879,7.45958 3.9375,12.46875 2.56717,-2.95208 -1.15015,-8.50834 -1.5625,-11.65625 -1.4621,2.79225 -1.53215,0.56507 -2.375,-0.8125 z m 28.9375,1.0625 c 2.02482,1.37732 -1.28255,2.44119 0,0 z m -24.71875,1.375 c -2.93162,2.07679 2.50676,0.69733 0,0 z m -5.34375,0.3125 c -1.22749,1.04835 -1.12283,5.41606 0.21875,2.28125 3.08309,4.41539 0.92916,-0.60724 -0.21875,-2.28125 z m 40.46875,0 c 2.70621,1.03437 -0.97591,1.52007 0,0 z M 143.25,63.65625 c 2.87542,1.29398 -2.04219,1.17678 0,0 z m -67.84375,0.25 c 3.00584,0.25811 0.35496,1.83969 0,0 z m 70.21875,0.3125 c 1.90273,4.6981 -0.8967,4.69919 0,0 z m -46.8125,1.1875 c 2.25859,3.13483 -0.69736,3.51562 0,0 z m 25,0.4375 c -1.22073,1.08578 1.8108,1.28453 0,0 z m -47.875,0.125 c 2.39285,1.82631 0.60029,4.4521 -0.03125,0.34375 z m 5.40625,0.40625 c 1.82656,2.30053 0.18851,7.86061 -0.46875,2.46875 0.0498,-0.82962 -0.0132,-1.73433 0.46875,-2.46875 z m 26.9375,0.03125 c 2.97466,2.65729 -2.1516,2.75782 0,0 z m 19.75,0.0625 c -1.89733,3.6158 0.20207,3.65424 0.40625,2.25 2.21631,2.93362 2.64942,-3.853 0.46875,-0.9375 -0.51479,-0.22225 -0.23496,-1.2647 -0.875,-1.3125 z m 22.40625,0.8125 c 0.13755,2.88872 -2.39436,4.15455 0,0 z m 3.8125,0.78125 c 4.7848,2.03185 -0.89607,2.17458 0,0 z m -81.625,0.09375 c 1.32422,2.76443 1.64289,2.93472 2.9375,2.75 2.75229,9.03607 -3.85243,0.44933 -2.9375,-2.75 z m 60.28125,0 c -2.11327,1.90583 -0.58487,3.62969 0.21875,0.09375 z m -15.8125,0.875 c -0.92405,3.70375 4.21507,8.27424 0.96875,3 -0.2478,-1.01269 -0.32537,-2.12832 -0.96875,-3 z m 22.21875,0.15625 c -0.0235,1.70988 2.02542,1.63898 0,0 z M 77.53125,69.75 c 2.44088,0.3776 -1.87428,0.65668 0,0 z m 58.1875,0.59375 c -2.18977,1.59278 2.33135,3.05679 0,0 z m 20.78125,0 c -0.22305,3.19024 -1.95908,1.93134 0,0 z m -69.875,0.4375 c 2.23921,1.41903 -2.10606,1.32651 0,0 z m 42.375,0 c -1.632,1.63903 2.47706,2.47594 0,0 z m -22.71875,0.53125 c 1.77514,2.88604 -1.90338,3.94616 0,0 z m 47.625,0.5625 c 2.05002,1.17745 -1.25182,1.52682 0,0 z M 77.4375,72.21875 c 1.61618,2.03634 0.8955,6.07285 2.5,5.65625 2.20957,5.52265 -3.42922,2.7898 -5.4375,2 0.12258,-3.03772 -1.6805,0.002 -1.71875,-3.96875 1.23392,-4.726 6.83483,8.39878 4.1875,0.875 1.64609,-1.43737 -1.30983,-3.5762 0.46875,-4.5625 z m 17.09375,0.1875 c 2.87543,1.29399 -2.04221,1.17675 0,0 z m 16.90625,0.125 c -0.57053,3.79192 2.32019,2.56881 0,0 z m 22.96875,0.09375 c -0.734,1.74206 1.03934,1.65255 0,0 z m -35.75,0.34375 c -1.93245,1.34757 1.90936,1.17296 0,0 z M 122.1875,73.5 c -2.60341,1.09258 -2.79736,9.04929 -3.6875,2.75 -1.73642,2.37919 -1.42928,4.79304 -1.4375,0.625 -2.36883,2.12604 0.23484,9.69471 2.15625,5.125 1.27809,-2.93273 2.27551,-9.89976 6.71875,-4.875 1.81113,-0.61583 -3.08371,-3.02463 -3.75,-3.625 z m 14.59375,0.1875 c -1.62907,1.09331 2.41073,1.20354 0,0 z m -27.15625,0.375 c 0.91083,3.87668 -1.49617,9.11874 -3.09375,2.4375 -2.3674,-0.1812 3.28845,-1.28591 3.09375,-2.4375 z M 79.5,74.59375 c 2.19576,1.42223 -2.07429,1.34749 0,0 z m 76.5625,0.5625 c -2.02457,0.61542 -2.73724,2.76358 -0.5,2.65625 -4.20066,2.3729 -3.21131,7.26244 -3.15625,11.15625 2.98208,4.84145 2.76149,-2.87832 3.84375,-4.90625 -5.28384,-2.99039 3.12194,-5.51788 -0.1875,-8.90625 z m -40,0.0625 c -1.61045,1.46156 -5.06138,9.43078 -1.40625,5.59375 -0.64817,-2.1508 1.9418,-3.47877 1.40625,-5.59375 z m 17.34375,0.75 c -1.13963,3.28284 -1.60302,11.606 -0.28125,4.65625 1.22335,-2.74325 6.49493,-4.48738 0.75,-4.46875 z M 83.875,76.78125 c 2.19577,1.42223 -2.07429,1.3475 0,0 z M 72,77 c 0.93899,1.1343 -0.4557,1.92177 0,0 z m 72.875,0.15625 c -0.91721,3.89379 2.7183,2.18398 0,0 z m -21.4375,0.3125 c -0.11073,-0.0072 -0.21328,2.7e-4 -0.3125,0.03125 -2.00978,1.49084 0.1927,6.90883 1.4375,2.34375 3.26075,1.812328 0.53598,-2.267652 -1.125,-2.375 z m -32.28125,0.625 c 0.93899,1.13431 -0.45571,1.92175 0,0 z m -29,2.21875 c 3.24014,0.99013 -1.65192,4.86403 -0.3125,0.1875 z m 89.5625,0.375 c -1.80445,-0.0641 0.10767,1.01221 0.4375,0.15625 z m -85.9375,0.4375 c 2.07497,1.44467 -1.51521,2.39918 0,0 z m 44.90625,0.59375 c -1.21883,1.08771 1.8016,1.24533 0,0 z m 27.25,0.03125 c 1.95351,1.59725 -3.18668,1.52751 0,0 z m -9.625,0.03125 c -5.0833,0.63616 0.1782,5.6191 -4.46875,4.34375 -1.43986,-0.94897 -1.17793,7.04224 1.65625,1.96875 0.6735,-1.76522 4.25174,-4.75342 2.8125,-6.3125 z m 20.90625,0.15625 c -2.65069,1.83019 1.85291,3.05827 0,0 z M 79.875,82 c 3.34212,3.5958 0.45071,4.53746 -1.84375,1.65625 C 75.61474,82.3925 76.36915,83.14664 79.875,82 z m 13.65625,0.40625 c 2.20027,1.94955 0.61525,4.34708 -0.125,0.4375 z m 28.75,0.1875 c -1.72337,1.44475 -2.66493,11.10437 -1.71875,9.28125 2.39214,-3.13892 0.44585,-6.5997 3.09375,-8.0625 -0.3988,-0.35665 -0.68426,-1.24916 -1.375,-1.21875 z M 71.6875,82.6875 c 3.9683,2.65303 0.57968,1.46691 -0.25,2.1875 -0.52447,4.3218 -2.9013,1.03033 0.25,-2.1875 z m 47.78125,0.125 c -2.10637,1.9936 1.79671,1.32594 0,0 z m -58.875,0.34375 c -1.66727,2.89164 8.31318,8.63477 2,5.40625 -3.59648,-3.08687 -5.70221,0.012 -2,-5.40625 z m 73.75,0.8125 c 1.36396,2.09453 6.55614,-0.64485 2.625,1.75 2.78057,3.85197 -3.59866,-0.54547 -2.625,-1.75 z m -71.21875,0.5 c 2.32797,2.70763 -3.05336,1.31517 0,0 z m 87.71875,0.125 c -2.60647,2.5251 0.94429,2.07275 0,0 z M 113.46875,85 c -1.76239,1.33624 1.80845,2.38747 0,0 z m -63.1875,0.71875 c 4.68673,-0.0386 0.30223,3.13482 -0.21875,0.09375 z M 140.75,86.375 c -1.09157,1.41028 0.32547,4.66757 -1.25,1.3125 l 0.5,-0.84375 z m -42.71875,0.3125 c -0.58396,3.02514 3.74699,1.68354 0,0 z m 21.15625,0.15625 c -1.73237,1.77819 2.16836,3.93991 0,0 z M 64.15625,87.1875 c 2.01192,1.18298 -1.24281,1.50849 0,0 z m 49.25,0 c -1.22502,1.13258 1.85434,1.22816 0,0 z m 37.5625,0 c -2.18514,1.40863 1.18487,1.48992 0,0 z m -8.25,0.1875 c 2.21074,2.76021 -0.9522,1.041 0,0 z m -60.75,0.0625 c 0.70178,1.77813 -0.72568,2.17046 0,0 z m 28.71875,0.1875 c -1.64374,1.72525 1.77517,3.99288 0,0 z M 55.40625,87.75 c 2.0124,1.26236 -1.25216,1.46476 0,0 z m 56.9375,0.53125 c -2.16853,1.52277 2.15268,1.25338 0,0 z m 35.34375,0.5625 c -2.20666,1.36358 1.18643,1.5102 0,0 z m -12.75,0.1875 c 0.93892,1.13418 -0.4555,1.92194 0,0 z M 79.46875,89.875 c 2.19332,-0.15841 8.14423,2.58524 5.5625,3.96875 -2.46272,1.38881 3.4416,3.18024 0.84375,6.4375 -0.68432,3.94879 4.78712,0.14726 5.125,2.0625 2.50282,-1.71477 6.71112,-5.0569 5.0625,0.9375 -2.82708,5.26893 10.28589,5.37353 4.40625,8.40625 -0.79446,5.12797 -3.94601,-1.65999 -4.84375,0.8125 1.12129,-3.33091 -4.77162,-3.3374 -6,-0.46875 -1.18389,1.11247 1.93334,6.44479 -2.3125,2.59375 1.00574,4.28161 -4.40203,0.0337 -4.9375,3.46875 -1.57572,-1.26211 -5.24031,1.57439 -4.03125,-2.4375 -2.99553,3.14844 -6.85348,-0.96391 -3.40625,-1.8125 -3.09344,0.39663 -1.07462,-3.27492 0.65625,-1.84375 -0.1028,-2.97721 -1.95461,-4.22061 -1.9375,-6.1875 3.76261,-2.72013 8.47347,-6.59907 8.09375,-12.15625 -0.67543,-1.31617 -1.51097,-2.52047 -2.28125,-3.78125 z m 56.8125,0.59375 c 1.16946,1.25884 2.27353,7.23839 -1.4375,4.03125 1.51443,-1.74974 -1.08767,-2.06626 1.25,-3.21875 l -0.0625,-0.5625 z M 122.375,91.3125 c -2.05761,2.27369 3.96708,0.61384 0,0 z m -25,0.4375 c -1.62907,1.09332 2.41073,1.20353 0,0 z m 41.5,0.09375 c 0.81573,1.76253 -1.55448,2.02654 0,0 z M 63.21875,91.9375 c 3.46029,4.57419 -2.65374,6.44016 0,0 z m 91.3125,0.71875 c -1.95541,1.09749 1.13446,1.58115 0,0 z m -38.625,1.125 c -1.74824,2.39146 0.38689,7.97458 -1.625,9.28125 -3.65403,1.69217 2.51461,-4.20453 -2.0625,-3.28125 -2.21395,-3.56288 -5.46193,3.23821 -5.5625,-2.34375 2.95472,0.91044 1.08705,-4.1542 3.59375,-1.125 0.88185,-2.15583 4.03198,-0.64791 5.65625,-2.53125 z m -15.03125,1.0625 c -1.93042,1.1952 1.22994,1.49453 0,0 z M 151.4375,95 c -3.58125,1.41518 -5.30854,7.87756 -0.90625,4.0625 0.14446,0.18849 0.25156,-3.03139 0.90625,-4.0625 z m -84.25,2.03125 c 2.26417,1.31984 -3.82262,2.88957 0,0 z m 66.46875,1.09375 c 3.79126,1.32561 -2.85868,1.14136 0,0 z m -21.53125,2.75 c -0.39952,2.51566 -2.37765,2.32655 0,0 z m -4.6875,0.53125 c 1.91127,1.13918 -2.0899,2.23997 0,0 z m 19.65625,0 c -1.22501,1.13259 1.85434,1.22814 0,0 z m -54.5625,0.25 c 5.65208,1.52309 -1.80133,1.98333 0,0 z m 75.9375,0.84375 c -2.0622,2.07924 1.84488,1.25892 0,0 z m -7,0.5625 c -1.77437,2.43208 1.7028,3.03244 0,0 z m -49.375,1.09375 c -2.16853,1.52278 2.15269,1.25338 0,0 z m -15.28125,0.8125 c -3.46287,1.84504 2.59615,0.98034 0,0 z m 45.375,0.28125 c 2.19577,1.42224 -2.0743,1.3475 0,0 z m -37.375,0.25 c -4.00333,0.36164 -1.39095,3.01876 -0.375,6.03125 -0.14543,-2.46117 4.85255,-5.49929 0.375,-6.03125 z m 24.84375,0.3125 c 1.86869,1.52529 -2.74864,1.0889 0,0 z M 97.0625,108 c -2.83572,1.22801 1.83839,1.38633 0,0 z M 73.5,108.53125 c 2.16853,1.52278 -2.15269,1.25337 0,0 z m 57.4375,0.15625 c -0.12537,-0.10527 1.12988,4.28971 -1.375,0.625 0.18312,-0.55168 0.98561,-0.41791 1.375,-0.625 z m -51.84375,0.0937 c -2.32838,4.814 0.86332,4.5448 0,0 z m 2,0.0625 c -2.82594,3.01993 2.44535,6.99614 0.625,1.4375 L 81.5,109.46875 z M 72,110.9375 c 0.95499,1.12122 -0.4674,1.92394 0,0 z m 51.5,0.71875 c 3.21613,1.71507 -4.66347,3.12375 1.34375,2.625 -0.71691,4.29262 -4.69991,-1.28595 -2.28125,3.8125 -0.53633,6.95855 -3.25732,-5.10644 0.9375,-6.4375 z m -18.03125,0.15625 c 0.41333,2.65745 3.17562,1.00777 0,0 z m 26.71875,0.0937 c 1.61396,0.72292 -2.53844,2.18639 -0.625,0.28125 z m -62.25,0.65625 c 1.66528,2.51 -0.7887,1.93862 0,0 z m 16.4375,0.59375 c -4.55881,1.76544 1.03212,3.40853 0,0 z m -6.15625,0.5 c -0.73402,1.72768 1.03255,1.75588 0,0 z M 117.3125,114 c -3.27737,1.81 2.10612,3.10328 0,0 z m 21.625,1.09375 c -2.1183,1.3464 1.08102,1.54391 0,0 z m 5.125,0 c -1.22074,1.08576 1.81081,1.28457 0,0 z m -5.875,2.46875 c -1.7259,1.55756 -4.67679,7.274 -0.96875,3.71875 -0.19637,2.88554 5.59094,7.07742 4.125,1.28125 4.70988,2.46775 1.94947,-7.279 -1.53125,-1.5 -2.05048,0.45634 -0.46455,-2.95347 -1.625,-3.5 z m -61.65625,0.28125 c 1.04278,1.50116 -1.90411,1.08246 0,0 z m 50.5625,0 c 2.83573,1.22801 -1.83838,1.38635 0,0 z m -2.5,0.625 c 2.44728,0.32989 -1.87099,0.68341 0,0 z m -21.03125,3.1875 c -1.82745,1.63712 1.05293,2.54062 0,0 z m 26.78125,0.53125 c 2.02482,1.37732 -1.28255,2.44118 0,0 z m -20,0.25 c -3.08592,1.58772 3.59738,0.82473 0,0 z m -9.53125,1.4375 c -4.46648,0.99792 5.17832,1.1719 0,0 z m 6.21875,2.28125 c -0.87334,2.23964 8.73916,3.07166 11.9375,3.84375 3.32081,-0.21255 12.93467,3.80014 10.1875,-0.96875 7.14653,0.75099 1.46994,-4.80948 -1.15625,0.21875 1.20639,3.76487 -7.32246,-2.77141 -10.4375,-0.0937 -3.39064,-0.879 -1.9694,-2.57341 -4.4375,-1.125 -2.33171,-1.7805 -3.46871,-1.22794 -6.09375,-1.875 z m 13.09375,1.03125 c -3.90758,1.78258 1.20363,0.69434 0,0 z m 7.5625,0.0937 c -5.43309,1.16124 1.43382,1.7271 0,0 z m 5.71875,2.59375 c -2.01036,2.46343 3.28598,1.72958 0,0 z m -1.59375,0.21875 c -2.53546,2.895 0.8485,0.72791 0,0 z m 8.5625,0.375 c -4.35011,-0.0327 1.37475,2.45277 0,0 z"
       transform="translate(-389.42838,348.21931)"
       id="path4791"
       inkscape:connector-curvature="0"
       sodipodi:nodetypes="ccccccccscccscccccccccccccccccccccccccccccccccccccccccccccccccccccccccccccccccccccccccccccccccccccccccccccccccccccccccccccccccccccccccccccccccccccccccccccccccccccccccccccccccccccccccccccccccccccccccccccccccccccccccccccccccccccccccccccccccccccccccccccccccccccccccccccscccscccccccccccccccccccccccccccccccccccccccccccccccccccccccccccccccccccccccccccccccccccccccccccccccccccccccccccccccccccccccccccccccccccccccccccccccccccccccccccccccsccsccccccccccccccccccccccccccccccccccccccccccccccccccccccccccccccccccccccccccccccccccccccccccccccccccccccccccccccccccccccccccccccccccccccccccccccccccccccccccccccccccccccccccccccccccccccccccccccccccccccccccccccccccccccccccc" />
  </g>
</svg>
