<?xml version="1.0" encoding="UTF-8" standalone="no"?>
<!-- Created with Inkscape (http://www.inkscape.org/) -->

<svg
   xmlns:dc="http://purl.org/dc/elements/1.1/"
   xmlns:cc="http://creativecommons.org/ns#"
   xmlns:rdf="http://www.w3.org/1999/02/22-rdf-syntax-ns#"
   xmlns:svg="http://www.w3.org/2000/svg"
   xmlns="http://www.w3.org/2000/svg"
   xmlns:sodipodi="http://sodipodi.sourceforge.net/DTD/sodipodi-0.dtd"
   xmlns:inkscape="http://www.inkscape.org/namespaces/inkscape"
   width="105.34875"
   height="109.44704"
   id="svg3211"
   version="1.1"
   inkscape:version="0.48.4 r9939"
   sodipodi:docname="Documento nuevo 12">
  <defs
     id="defs3213" />
  <sodipodi:namedview
     id="base"
     pagecolor="#ffffff"
     bordercolor="#666666"
     borderopacity="1.0"
     inkscape:pageopacity="0.0"
     inkscape:pageshadow="2"
     inkscape:zoom="2.4668363"
     inkscape:cx="-9.1067817"
     inkscape:cy="35.672444"
     inkscape:document-units="px"
     inkscape:current-layer="layer1"
     showgrid="false"
     fit-margin-top="0"
     fit-margin-left="0"
     fit-margin-right="0"
     fit-margin-bottom="0"
     inkscape:window-width="1024"
     inkscape:window-height="541"
     inkscape:window-x="0"
     inkscape:window-y="27"
     inkscape:window-maximized="1" />
  <metadata
     id="metadata3216">
    <rdf:RDF>
      <cc:Work
         rdf:about="">
        <dc:format>image/svg+xml</dc:format>
        <dc:type
           rdf:resource="http://purl.org/dc/dcmitype/StillImage" />
        <dc:title></dc:title>
      </cc:Work>
    </rdf:RDF>
  </metadata>
  <g
     inkscape:label="Capa 1"
     inkscape:groupmode="layer"
     id="layer1"
     transform="translate(-58.332577,3.6693967)">
    <path
       style="fill:#000000"
       d="m 54.0625,3.65625 c -5.500696,0.067859 -10.959384,1.014793 -16.3125,2.3125 -5.378946,1.6792633 -11.062556,3.7954506 -15.15625,7.75 -3.324633,2.283035 -6.071873,5.345058 -8.625,8.5 -0.973002,2.613636 -1.75823,3.946843 0.375,0.9375 5.552996,-4.392902 -3.585163,6.352461 -2.65625,2.8125 -3.436794,4.845416 2.055839,0.825149 3.0625,-1.09375 3.894278,-4.628834 0.638705,1.345617 -1.40625,2.78125 1.448406,0.734331 -2.91624,5.747452 -2.03125,5.9375 -2.846472,7.562029 -4.522717,15.767396 -4.75,23.9375 -1.461872,2.62447 -0.238956,6.996815 -1.75,8.5625 0.96668,3.262651 2.04296,-2.698942 1.71875,-5.15625 1.350811,3.008533 0.61999,6.909473 0.65625,10.28125 -0.543896,3.521562 1.149347,0.442071 1.25,3.3125 -2.140071,-0.956568 0.317632,4.63777 1.65625,5.4375 1.488278,3.48601 3.734022,7.15227 6.96875,9.3125 2.72639,3.614547 6.793619,6.213939 10.84375,8.25 8.002554,3.55594 16.27622,7.08357 25.03125,8.15625 C 62.57057,106.47716 72.20299,103.00629 80,97.5 101.85435,81.510853 108.34484,48.610079 94.71875,25.3125 87.71823,12.757641 74.11352,3.9527149 59.59375,3.90625 57.75511,3.7144139 55.896065,3.6336303 54.0625,3.65625 z m 24.28125,9.03125 c 2.781285,0.81308 5.295409,1.918077 7.46875,3.4375 -0.389581,-0.203 -0.614003,-0.219036 0.0625,0.40625 0.702684,0.347217 0.983221,0.437991 1.03125,0.40625 0.816827,0.660917 1.581494,1.384839 2.28125,2.1875 2.64388,3.264533 3.77437,4.783693 5.5625,8.34375 l 0.34375,1.09375 c -3.57687,-3.638045 -6.71922,-7.833182 -10.75,-11.0625 -1.23504,-1.542876 -7.91997,-4.083449 -6,-4.8125 z m -62.9375,8.46875 c 0.117803,-0.07994 0.03273,0.07377 -0.40625,0.6875 -1.92107,1.872145 0.05284,-0.447678 0.40625,-0.6875 z M 18.71875,22 c 0.331052,-0.0062 -1.877201,3.788792 -2.21875,4.96875 0.881159,0.0019 2.629507,-3.869002 1.03125,0.0625 -5.893217,11.704236 -9.127699,25.089382 -7.25,38.1875 1.716045,4.903299 -0.569177,5.141388 1.3125,9.65625 0.376761,1.167294 0.78274,2.327268 1.03125,3.53125 C 9.767022,72.326698 7.57717,65.83735 7.375,59.0625 6.740144,46.555753 10.860478,34.074374 17.375,23.5 18.209798,22.412115 18.608399,22.002064 18.71875,22 z m 1.6875,2.375 c 0.120255,0.01183 0.227321,0.188059 0.28125,0.5625 -0.197135,0.63142 -0.512541,1.225207 -0.8125,1.8125 -2.381351,4.939854 -0.310538,-2.457834 0.53125,-2.375 z m 1.6875,0.84375 c 0.119392,-0.0104 0.207682,0.172571 0.28125,0.6875 L 22.25,26.75 c -1.36015,2.338074 -0.673616,-1.486201 -0.15625,-1.53125 z m 0.96875,0.25 c 0.09626,0.0093 0.384771,0.289287 1.03125,1.0625 -0.453732,0.158403 -1.243016,-1.082998 -1.03125,-1.0625 z m 40.71875,1.125 c 1.873481,-0.02096 3.725932,0.09393 5.0625,0.46875 2.6373,0.894477 -0.86553,7.156111 -0.40625,10 -0.13478,3.943228 -5.02281,13.46665 2.25,12.5625 4.16768,-2.186016 9.2168,-4.982452 11.15625,-8.84375 0.66347,2.768064 3.394,-1.547304 0.34375,-0.59375 -3.65993,1.631599 1.83722,-3.450216 1.96875,-1.65625 0.41111,2.470256 -0.92458,6.247568 2.34375,6.90625 -2.92116,3.295374 -7.49247,3.518407 -11.53125,5.625 2.32933,-0.191033 7.75365,-1.548384 10.3125,-3.96875 1.46191,1.701669 0.98332,5.845575 -2.65625,5.03125 C 78.39204,54.078707 69.978,52.603798 70,59 c 2.79934,3.666705 6.37319,6.649408 9.625,9.90625 3.67273,0.23943 4.08086,-8.326897 5,-11.5 -0.14,-2.952958 0.02468,-5.60277 2.875,-4.6875 0.27199,5.877745 -0.95506,12.041443 -3.84375,17.1875 -3.72267,-2.847879 -1.05229,3.037657 -3.8125,4.09375 -2.26099,-1.97471 -5.23613,-7.130313 -8.65625,-9.53125 -0.28582,0.735016 3.65582,4.326738 4.625,6.09375 3.65938,2.004583 2.41389,8.019222 -1.5625,6.625 -2.3286,1.760704 -0.68859,-3.593775 -2.59375,-5.59375 -2.11011,-2.882376 -4.21166,-11.435594 -8.96875,-7.625 -2.04557,4.548302 -2.655,9.718124 -4.5625,14.375 l -0.5,0.875 -0.53125,0.53125 c -2.65648,-0.743385 -5.1785,-2.510811 -7.3125,-4.59375 1.70086,-2.456313 3.4173,-4.901889 5.09375,-7.375 3.07891,-2.967207 6.57568,-11.922177 -0.5625,-11.65625 -3.762,-1.04822 -9.79699,0.862896 -12.15625,-2.21875 -0.47211,-5.140598 2.51247,-2.911625 5.4375,-1.5 6.89081,0.462177 -6.932617,-2.287311 -2.46875,-2.78125 1.93537,-0.01412 11.17735,4.040246 7.4375,1.625 -2.28406,-3.063482 -10.76856,-0.574211 -8.71875,-4.84375 2.6835,-4.260518 8.555,2.33122 12.09375,3.53125 5.32676,3.539362 6.83445,-4.271587 5.875,-8 C 62.45092,37.868362 57.36668,29.9923 64.125,30 c 0.99023,0.526982 4.50998,0.549074 4.875,-0.59375 -0.891495,-2.049714 -2.858282,-2.116424 -5.03125,-1.8125 0.201968,0.170176 0.507295,0.486028 0.9375,0.96875 0.464605,1.79175 -1.015989,-0.221689 -1.25,-0.90625 -2.470702,0.375282 -5.167669,1.082968 -6.9375,-0.28125 0.791006,-0.317811 3.940032,-0.746326 7.0625,-0.78125 z m -0.125,1.0625 c 0.107357,-0.01631 0.206141,-0.04762 0.3125,-0.0625 -0.329758,-0.27785 -0.391723,-0.169254 -0.3125,0.0625 z m 7.5625,-0.78125 c 1.826865,-0.06448 5.446144,2.194989 6.75,3.84375 1.18196,1.679635 5.7142,4.06762 3.78125,6.15625 l -0.65625,0.75 -0.34375,0.4375 c -2.86735,-3.123146 -5.91001,-6.36357 -10,-7.9375 -1.07583,-2.334546 -0.627369,-3.21131 0.46875,-3.25 z M 12.78125,27.5 C 12.289558,27.739948 9.9750107,32.75974 8.6875,33.375 6.543772,36.840483 8.482821,34.441118 9.71875,32.84375 9.962109,34.637454 7.421458,38.735615 5.59375,40.625 6.367972,41.169666 7.955,37.849745 7.875,39.65625 10.654359,35.280215 9.772847,33.235559 12.5625,29.1875 12.904117,27.86673 12.945147,27.420017 12.78125,27.5 z m 40.8125,0.125 c 1.026195,-0.09447 1.844434,0.479156 2.15625,2.3125 -3.91689,3.403692 -9.72259,6.344525 -11.15625,11.8125 0.4061,1.885747 -1.70529,-1.080811 -2.3125,-0.96875 1.06996,2.9404 -1.936174,-0.954783 -0.4375,-0.84375 3.30899,1.869536 1.70321,0.149133 -0.03125,-0.9375 0.55825,-2.069316 3.02393,-4.464292 4.625,-6.28125 1.564943,-1.311888 4.89862,-4.885907 7.15625,-5.09375 z m 17.71875,0.03125 c -0.138903,0.05036 -0.26762,0.281506 -0.3125,0.78125 1.252688,0.416078 0.72921,-0.932332 0.3125,-0.78125 z m -51.21875,0.0625 c 0.793566,-0.168337 0.970398,5.086422 -0.28125,5.90625 -1.951836,5.63088 -2.109444,-3.676214 -0.375,-4.8125 0.236484,-0.736093 0.473119,-1.054903 0.65625,-1.09375 z m -4.3125,0.5 c -0.15585,-0.03981 -0.598365,0.506732 -0.90625,1.71875 0.931283,-1.05277 1.0621,-1.678938 0.90625,-1.71875 z m 38.28125,0.4375 c -0.09555,-0.01325 -0.241327,0.142891 -0.4375,0.59375 0.564172,0.938768 0.724151,-0.553993 0.4375,-0.59375 z m 5.375,0.3125 c 0.0744,-0.06361 0.304766,0.196002 0.71875,1.1875 -0.375121,0.703756 -0.882436,-1.047559 -0.71875,-1.1875 z M 17.75,29.03125 c 0.27987,0.137709 -0.323745,2.817223 -0.9375,4.3125 -0.262817,0.611229 -0.429133,1.25958 -0.8125,1.8125 0.244559,-2.804432 -0.955254,-1.429113 0.75,-4.375 0.565239,-1.335797 0.872786,-1.812595 1,-1.75 z m 57.21875,0.65625 c -0.102476,0.02466 -0.232966,0.146894 -0.40625,0.40625 0.657223,1.085784 0.850312,-0.5131 0.40625,-0.40625 z M 14.5625,30.53125 c -0.06838,-0.01109 -0.197069,0.166843 -0.40625,0.625 0.279944,0.931152 0.611397,-0.591728 0.40625,-0.625 z m 35.6875,0.875 c -0.102473,0.02466 -0.232972,0.146894 -0.40625,0.40625 0.657215,1.085783 0.850301,-0.5131 0.40625,-0.40625 z m 13.8125,0.5 c -0.262167,0.01587 -0.625062,1.484849 -0.3125,2.84375 0.40252,3.45049 0.574,0.591985 0.5,-0.96875 0.101644,-1.368811 -0.0302,-1.884523 -0.1875,-1.875 z m 14.34375,0.53125 c -0.102475,0.02466 -0.232968,0.146894 -0.40625,0.40625 0.657223,1.085783 0.850309,-0.513101 0.40625,-0.40625 z m -61.125,1.21875 c 0.815859,-0.238545 -0.845206,5.866372 -0.875,7.46875 2.312983,-2.588464 0.492764,0.300114 1.0625,1.15625 -2.558509,1.193195 -1.972239,-6.168894 -0.375,-8.46875 0.07776,-0.07527 0.133109,-0.140347 0.1875,-0.15625 z m 29,0.9375 c -0.07424,0.0375 -0.09981,0.232426 0,0.6875 0.89232,0.459103 0.222705,-0.800009 0,-0.6875 z M 15.125,34.78125 c 0.126241,-0.0019 0.172944,0.377301 0.09375,1.3125 -0.246431,0.906877 -1.334328,8.147579 -1.75,5.78125 -0.544632,-0.897758 -0.257812,5.454987 -1.21875,7.34375 -0.174238,0.307155 -0.44192,-2.968435 -0.34375,0.4375 0.04335,1.373871 -0.04484,7.029961 -0.46875,6.5 -1.704518,-4.055205 -0.11297,-8.352384 0.71875,-12.4375 0.329145,-1.616918 2.421705,-8.92929 2.96875,-8.9375 z m 66.03125,0.90625 c -0.105895,0.03337 -0.24349,0.197569 -0.40625,0.625 0.723623,0.449004 0.723935,-0.725116 0.40625,-0.625 z m -63.0625,0.375 c 0.162751,-0.04424 0.298345,0.496414 0.3125,2.09375 -1.536928,3.299869 -0.800752,-1.961042 -0.3125,-2.09375 z m 25.125,2.0625 c -0.190237,-0.01961 -0.240203,0.27043 0.09375,1.15625 1.355564,0.382104 0.324771,-1.113117 -0.09375,-1.15625 z M 65.5,38.1875 c -0.100084,-0.0578 -0.2969,0.598866 -0.6875,2.625 0.257723,4.201939 0.987751,-2.451594 0.6875,-2.625 z m -56.6875,1.875 c -1.55123,0.618651 -2.691687,5.053934 -4.625,7.40625 2.264522,-1.051315 3.178418,-5.061522 4.625,-7.40625 z m 6.09375,0.21875 c 0.861357,0.08469 2.694379,6.312566 1.09375,8.4375 -3.112183,1.018348 -2.079722,-6.209018 -1.25,-8.375 0.04758,-0.05191 0.09883,-0.06815 0.15625,-0.0625 z M 41.625,42.5625 c 0.775823,-0.08188 1.262604,2.508758 0.3125,4.09375 -2.645047,1.98472 0.477377,6.218686 -2.53125,8.125 -3.125542,-0.132103 0.57313,-7.976807 1.09375,-10.09375 0.355798,-1.477979 0.772353,-2.087781 1.125,-2.125 z m 23.15625,0.5625 c -0.02424,0.01808 -0.04551,0.164985 -0.09375,0.53125 0.114059,1.802556 0.198794,-0.609586 0.09375,-0.53125 z m -58.6875,3.25 c -0.033033,0.0058 -0.09365,0.115557 -0.15625,0.34375 0.1733241,1.210548 0.2993923,-0.36897 0.15625,-0.34375 z m 7.1875,0.40625 c -0.188384,1.380787 3.156858,4.223124 1.78125,6.28125 -1.213969,-0.943484 -1.20544,-2.55553 -1.03125,0.46875 0.08922,3.821177 0.809983,-1.667801 1.15625,1.4375 l -0.15625,0.9375 c -2.974771,-0.900656 -2.813108,-6.270021 -1.75,-9.125 z M 7.125,46.8125 C 5.199925,47.692667 5.507351,51.942726 3.5,53.78125 4.896757,54.857648 6.469063,48.541754 7.125,46.8125 z m 73.8125,0.03125 c -0.106282,-0.02363 -0.244865,0.07943 -0.375,0.40625 0.786068,0.81509 0.693847,-0.335369 0.375,-0.40625 z M 4.375,48.25 c -0.024242,0.01808 -0.076763,0.196235 -0.125,0.5625 0.1140653,1.802558 0.230047,-0.640836 0.125,-0.5625 z M 63.90625,51 c -3.776217,0.354573 -6.976898,6.80633 -1.6875,8.8125 4.22841,1.826405 7.46124,-4.249139 4.8125,-7.4375 -0.968638,-1.086929 -2.067659,-1.47428 -3.125,-1.375 z m 0.6875,1 c 0.141094,-0.0056 0.410967,0.09967 0.875,0.40625 C 64.94951,53.011785 64.170469,52.016776 64.59375,52 z M 62.75,52.125 c 0.114436,0.0066 0.283547,0.132725 0.5,0.46875 -0.708975,0.541141 -0.843309,-0.488657 -0.5,-0.46875 z m 5.875,1.25 c -0.60719,-0.03859 1.06986,0.965406 1.96875,1.5 0.85512,0.362093 0.51472,-0.9502 -0.5,-1.0625 -0.8211,-0.292959 -1.266353,-0.424637 -1.46875,-0.4375 z m -6.3125,0.0625 c 0.127305,-0.02865 0.116606,0.187002 -0.09375,0.71875 3.58543,-0.466511 0.94849,2.039443 -0.125,3.21875 -3.110209,0.531391 -0.332907,-3.813344 0.21875,-3.9375 z M 12.25,53.59375 c 1.791523,3.184651 3.513429,5.973029 3.15625,9.84375 L 15.5,63.6875 C 12.135741,61.577112 11.894636,57.196044 12.25,53.59375 z M 5.71875,53.6875 c -0.4298027,0.05354 -0.4941626,4.450875 -1.6875,6.6875 1.465126,1.499194 1.689835,-4.534131 2.0625,-5.96875 -0.1587435,-0.532196 -0.2758148,-0.731106 -0.375,-0.71875 z m 80.9375,0.375 c -0.102476,0.02466 -0.264216,0.146893 -0.4375,0.40625 0.657223,1.085781 0.881562,-0.513102 0.4375,-0.40625 z m -20.375,0.125 c 0.644778,-0.127462 0.980219,0.383738 0.25,2.28125 L 65.625,56.8125 c -3.668184,1.078033 -0.762261,-2.344583 0.65625,-2.625 z M 10.5,54.21875 c 0.248214,-0.321142 1.079883,5.141427 1.21875,6.21875 -0.11359,0.009 0.608035,3.434428 0.03125,2.6875 -1.576302,-2.527238 -1.37105,-5.429476 -1.3125,-8.375 0.0069,-0.312206 0.02704,-0.485373 0.0625,-0.53125 z M 37.84375,56.875 c 0.15266,-0.05418 0.343345,0.05182 0.46875,0.5 -1.239803,1.326821 -0.926729,-0.337471 -0.46875,-0.5 z m 27.96875,0.40625 c 0.06332,-0.01496 0.10863,0.02987 0.15625,0.15625 -1.284509,2.897259 -0.599461,-0.05153 -0.15625,-0.15625 z m 1.8125,0.40625 c -0.02557,0.03444 0.21728,0.171681 0.9375,0.53125 0.256985,0.05276 0.401359,0.07016 0.46875,0.0625 C 68.936197,58.130926 67.680944,57.612158 67.625,57.6875 z M 38.59375,58.375 c 0.223107,-0.0089 0.474502,0.02061 0.75,0.0625 2.144565,2.93054 1.765566,9.275272 4.625,12.90625 0.22058,0.913235 2.10626,2.2327 0.6875,2.8125 -3.662772,3.670215 -4.976992,-4.332907 -6.25,-6.78125 -0.828552,-3.267584 -3.159103,-8.866231 0.1875,-9 z m 23.59375,0.1875 c 0.0097,-0.01403 0.358905,0.118314 1.375,0.46875 1.736152,0.765467 -1.404006,-0.426662 -1.375,-0.46875 z m 24.125,0.3125 c -0.102476,0.02466 -0.264216,0.146894 -0.4375,0.40625 0.657231,1.085783 0.881565,-0.513101 0.4375,-0.40625 z m -47.71875,0.34375 c -0.102475,0.02466 -0.232968,0.146894 -0.40625,0.40625 0.657221,1.085782 0.850309,-0.513101 0.40625,-0.40625 z M 12.625,61.6875 c 0.52155,0.305433 1.806383,4.066075 2.09375,5.53125 1.414542,4.890003 -2.521761,-2.025438 -2.1875,-3.28125 -0.227951,-1.815879 -0.143318,-2.388833 0.09375,-2.25 z M 10.78125,62.5 c 0.449179,0.207523 1.882164,3.682833 2,5.125 C 13.816616,72.175581 10.852153,65.79886 11,64.75 10.578614,62.982211 10.577078,62.405671 10.78125,62.5 z m 28.53125,1.625 c -0.124051,0.02488 -0.233598,0.193443 -0.25,0.65625 1.16137,0.594207 0.622154,-0.730889 0.25,-0.65625 z M 15,64.53125 c 0.236642,0.0083 0.487648,0.436295 0.53125,1.625 l 0.21875,1 C 13.993331,66.55599 14.479388,64.513045 15,64.53125 z m 44.59375,1.28125 c -0.157345,-0.32778 -2.24748,4.288451 -2.53125,5.8125 0.84308,1.072502 1.41585,-2.868423 1.90625,-3.53125 0.517375,-1.499813 0.677448,-2.17199 0.625,-2.28125 z m -52.8125,1.5 c -0.033033,0.0058 -0.093651,0.115556 -0.15625,0.34375 0.1733225,1.210546 0.2993916,-0.368971 0.15625,-0.34375 z M 7.8125,67.5 c 0.1439203,-0.02022 0.4912793,1.009792 0.8125,2.53125 l 0.21875,0.875 c 0.745146,4.265601 -0.978519,1.235505 -0.875,-1.1875 C 7.7113215,68.163545 7.700562,67.515725 7.8125,67.5 z m 7.84375,0.625 c 0.04132,-0.0086 0.102401,0.156491 0.25,0.65625 0.179195,2.994523 -0.429058,-0.618943 -0.25,-0.65625 z m 67.5625,0 c -0.102476,0.02466 -0.232968,0.146894 -0.40625,0.40625 0.657231,1.085783 0.850312,-0.513101 0.40625,-0.40625 z M 13.5,68.59375 c 0.472102,-0.187041 2.400043,2.347395 2.8125,3.84375 0.08913,2.887662 -2.467485,-0.433083 -2.28125,-1.5625 C 13.363643,69.312728 13.285408,68.678768 13.5,68.59375 z M 40.96875,68.875 c -0.09323,0.03205 -0.212158,0.196128 -0.375,0.53125 0.5683,1.399937 0.779011,-0.670133 0.375,-0.53125 z m 32.34375,0.09375 c -0.21886,0.194233 2.115315,4.449972 3.46875,5.53125 2.39202,1.33986 -1.9015,-2.970747 -1.8125,-3.46875 -1.08848,-1.595265 -1.570609,-2.138504 -1.65625,-2.0625 z M 12.25,69.78125 c 0.09489,0.0092 0.37071,0.369311 0.90625,1.28125 l 0.40625,0.78125 c 1.175337,4.324153 -1.72368,-2.102469 -1.3125,-2.0625 z m 30.96875,3.5 c -0.150782,0.02421 -0.356778,0.147257 -0.59375,0.40625 1.069884,1.090953 1.24714,-0.511148 0.59375,-0.40625 z M 46.75,77.9375 c 0.517922,0.0062 2.860231,1.21353 4.40625,1.6875 -0.71121,2.40023 6.21213,-0.0031 4.4375,3.25 -1.91483,0.865747 -5.30354,-1.884128 -7.21875,-3.25 -1.567601,-1.25004 -1.935753,-1.691231 -1.625,-1.6875 z m 26.65625,0.40625 c 0.181368,0.07474 0.449903,0.680605 0.78125,2.25 -1.14471,2.107413 -1.325355,-2.474218 -0.78125,-2.25 z m -20.6875,0.625 c 0.06494,0.01635 0.145283,0.06085 0.21875,0.15625 l -0.09375,0.3125 c -0.758336,0.947385 -0.579577,-0.58321 -0.125,-0.46875 z M 69.5625,80.1875 c 3.79459,0.299532 -0.36694,5.473612 -3.3125,4.65625 -2.38407,0.439688 -4.83196,0.46495 -7.25,0.46875 -3.61563,1.348032 -1.22674,-2.49136 -2.90625,-2.40625 3.84135,-2.611593 9.41412,0.156142 13.46875,-2.71875 z m 0.9375,1.375 c -0.122924,0.01947 -0.309709,0.142829 -0.5625,0.375 0.531586,1.013817 1.09517,-0.459373 0.5625,-0.375 z m -4.09375,1.34375 c -0.09555,-0.01325 -0.241325,0.14289 -0.4375,0.59375 0.56418,0.938772 0.724155,-0.553992 0.4375,-0.59375 z m -8.625,0.375 c -0.116841,0.01551 -0.248501,0.114013 -0.375,0.34375 1.155554,1.063621 0.881312,-0.41095 0.375,-0.34375 z m 4.40625,0.15625 c -0.07044,0.0067 -0.168751,0.08775 -0.3125,0.34375 0.310993,1.35488 0.617748,-0.3729 0.3125,-0.34375 z m -9.0625,2.75 c 2.076545,-0.157023 6.285325,0.588348 7.375,1.5625 -1.93743,1.786768 -6.23386,-0.195099 -8.5625,-1.0625 0.02737,-0.277193 0.495318,-0.447659 1.1875,-0.5 z"
       transform="translate(58.332577,-3.6693967)"
       id="path3302"
       inkscape:connector-curvature="0"
       sodipodi:nodetypes="sccccccccccccccccccccscccccccccscsscccccccssccssccsscssccccccccccccccccccccccccccccccccccccccccscccscccccsscccccssccccccsscssccsscsscsscsscccsscsscsscssccsscsscccsscssccccccsscsscsscsscscccsccsscccsscsscscccccccccscscccsccsscsscssccssccsccccsccsscssccsscccsscsscssccssccccscccscsscssccssccsscssccssccsscsscccsscsscssccsscssccssccsscsscccsscssccscccccscsscsscsscssccs" />
  </g>
</svg>
