<?xml version="1.0" encoding="UTF-8" standalone="no"?>
<!-- Created with Inkscape (http://www.inkscape.org/) -->

<svg
   xmlns:dc="http://purl.org/dc/elements/1.1/"
   xmlns:cc="http://creativecommons.org/ns#"
   xmlns:rdf="http://www.w3.org/1999/02/22-rdf-syntax-ns#"
   xmlns:svg="http://www.w3.org/2000/svg"
   xmlns="http://www.w3.org/2000/svg"
   xmlns:sodipodi="http://sodipodi.sourceforge.net/DTD/sodipodi-0.dtd"
   xmlns:inkscape="http://www.inkscape.org/namespaces/inkscape"
   width="332.0511474609375"
   height="320.832763671875"
   id="svg6396"
   version="1.1"
   inkscape:version="0.48.4 r9939"
   sodipodi:docname="remera.svg"
   inkscape:export-filename="/home/manuq/prog/nodakar/static/nodakar/imagenes/remera.png"
   inkscape:export-xdpi="165.3359680175781"
   inkscape:export-ydpi="165.3359680175781">
  <defs
     id="defs6398" />
  <sodipodi:namedview
     id="base"
     pagecolor="#ffffff"
     bordercolor="#666666"
     borderopacity="1.0"
     inkscape:pageopacity="0.0"
     inkscape:pageshadow="2"
     inkscape:zoom="1.389646153890622"
     inkscape:cx="234.4339911428939"
     inkscape:cy="225.463471851236"
     inkscape:document-units="px"
     inkscape:current-layer="layer3"
     showgrid="false"
     inkscape:window-width="1024"
     inkscape:window-height="541"
     inkscape:window-x="0"
     inkscape:window-y="27"
     inkscape:window-maximized="1"
     fit-margin-top="0"
     fit-margin-left="0"
     fit-margin-right="0"
     fit-margin-bottom="0" />
  <metadata
     id="metadata6401">
    <rdf:RDF>
      <cc:Work
         rdf:about="">
        <dc:format>image/svg+xml</dc:format>
        <dc:type
           rdf:resource="http://purl.org/dc/dcmitype/StillImage" />
        <dc:title></dc:title>
      </cc:Work>
    </rdf:RDF>
  </metadata>
  <g
     inkscape:groupmode="layer"
     id="layer3"
     inkscape:label="Capa"
     transform="translate(686.5181756105187,259.25)">
    <g
       id="g7097">
      <path
         sodipodi:nodetypes="cssscssssssscsssscsssssssssssssssssssssssssssssssssssc"
         inkscape:connector-curvature="0"
         id="path6978"
         d="m -559.1081135419008,-258.626289749159 c 5.1451666890363,5.8311889142405 6.8392899699263,9.3836843121278 16.1005900101909,12.127773212947 9.2613000402646,2.7440889008191 33.7342638860316,4.2175853409708 45.2597440022604,-0.1223842718633 5.3810574517251,-2.0262605626742 12.0440440844609,-10.6333444906742 13.4160885348704,-10.9763556032767 1.3720444504095,-0.3430111126025 3.0871000134215,0.3430111126025 3.0871000134215,0.3430111126025 0,0 1.715055563012,-0.3430111126025 4.1161333512287,2.4010777882167 2.4010777882168,2.7440889008192 1.3720444504096,1.0290333378073 12.3484000536862,5.1451666890359 10.9763556032766,4.1161333512287 14.7494778419029,7.8892555898552 25.7258334451795,10.2903333780716 10.9763556032766,2.4010777882171 26.0688445577819,5.4881778016387 28.812933458601,6.5172111394457 2.7440889008191,1.0290333378071 15.0924889545053,11.3193667158789 19.8946445309388,20.5806667561435 4.8021555764335,9.2613000402643 26.4118556703841,60.3699558180213 28.4699223459986,64.8291002818523 1.0290333378072,2.2295722319155 1.7273055957199,8.8080360840959 4.2018861293794,10.7619736579 3.332110266044,2.6310460946097 2.6583361226685,7.417615310027 2.6583361226685,7.417615310027 0,0 -12.6914111662885,11.3193667158787 -17.493566742722,14.7494778419027 -4.8021555764335,3.4301111260241 -14.749477841903,9.6043111528671 -22.9817445443605,10.2903333780719 -8.2322667024574,0.6860222252049 -13.7204445040957,-0.3430111126027 -16.8075445175173,-1.0290333378073 -3.0871000134215,-0.6860222252046 -3.7731222386263,-5.4881778016379 -3.0871000134215,-7.20323336465 0.6860222252048,-1.7150555630121 -4.1161333512287,-9.9473222654694 -4.1161333512287,-9.9473222654694 0,0 -3.430111126024,7.8892555898551 -6.5172111394455,12.0053889410837 -3.0871000134215,4.1161333512287 -4.4591444638311,7.5462444772527 -4.4591444638311,11.31936671587883 0,3.77312223862623 3.6674272022139,14.82924687495006 1.2663494139972,20.3174246765884 -2.4010777882167,5.48817780163833 -3.8776782667634,10.42081540957426 -3.1916560415587,13.16490431039344 0.6860222252047,2.74408890081917 4.8862560022533,10.92769598104334 4.2002337770485,15.25408039682176 -0.391081136758,2.46634478186116 -4.7500447528289,11.05368228088038 -5.0930558654315,13.11174895649495 -0.3430111126023,2.05806667561454 2.7013851305962,7.98012976389054 4.4164406936081,17.92745202935998 1.715055563012,9.947322265469436 5.0888049372841,32.14238571139549 5.4249491897004,36.17611674039039 0.3361442524163,4.03373102899445 -1.3445770096649,10.14123179088507 -0.3361442524164,13.50267431504733 1.0084327572488,3.36144252416229 1.6807212620811,10.08432757248671 0.6722885048326,12.10119308698405 -1.0084327572488,2.01686551449712 -33.9505694940383,13.78191434906478 -52.4385033769305,15.79877986356212 -18.487933882892,2.01686551449746 -27.5638286981298,3.36144252416214 -37.6481562706164,2.68915401932973 -10.0843275724867,-0.6722885048323 -71.598725764655,-6.0505965434919 -83.6999188516387,-8.73975056282166 -12.1011930869837,-2.68915401932977 -14.9610597615092,-4.70601953382711 -18.3225022856715,-8.40360631040551 -3.3614425241619,-3.6975867765784 -3.697586776579,-10.75661607731887 -3.697586776579,-12.77348159181633 0,-2.01686551449734 0.5337307441846,-22.103867117221625 2.5505962586823,-28.15446366071319 2.0168655144977,-6.050596543492019 6.646390852722,-24.454293656155858 6.3033797401197,-29.256449232589368 -0.343011112603,-4.8021555764335 -3.4301111260237,-17.15055563011947 -3.4301111260237,-22.2957223191554 0,-5.14516668903595 2.5557668277902,-11.97849397147958 2.5557668277902,-16.78064954791303 0,-4.80215557643346 -0.2767976521003,-21.8552142207843 -0.9628198773055,-27.00038090982025 -0.6860222252045,-5.1451666890359 2.8659020211112,-10.85454248298504 2.522890908509,-12.91260915859914 -0.3430111126022,-2.0580666756143 -2.3241211644713,-1.0738898343539 -4.7251989526884,-4.8470120729802 -2.4010777882163,-3.7731222386262 -1.9362535553222,-7.058991996085 -3.6513091183341,-8.4310364464945 -1.7150555630119,-1.3720444504095 -0.9969332106092,3.3628263812036 -2.3689776610189,4.734870831613 -1.3720444504097,1.3720444504095 -4.1263408723122,8.6425625598802 -5.4983853227219,9.6715958976872 -1.3720444504097,1.0290333378076 -17.4935667427219,1.0290333378074 -26.7548667829866,-1.0290333378073 -9.2613000402647,-2.0580666756143 -16.8294371236318,-5.4881778016381 -18.8875037992459,-7.5462444772524 -2.0580666756141,-2.0580666756144 -14.4064667293012,-12.3484000536867 -14.7494778419034,-14.4064667293008 -0.1715055563011,-1.029033337807 4.4682505227828,-6.4933016501637 6.0190074646523,-11.8334938247704 4.3475077889068,-14.9710934360674 16.7912315234072,-47.1644175428419 17.9917704175158,-49.222484218456 2.4010777882171,-4.1161333512282 14.0634556166982,-28.8129334586008 17.4935667427219,-33.6150890350342 3.4301111260238,-4.8021555764335 29.155944571203,-19.551633418336 33.9581001476373,-20.5806667561435 4.8021555764334,-1.0290333378073 13.3774333914929,0.3430111126022 17.4935667427219,-0.6860222252049 2.0580666756141,-0.5145166689035 8.5978177984747,-3.4444712764626 19.5579042363795,-6.8504961398108 1.7102022614996,-0.5314731281569 0.1536350972018,-1.3744505692781 4.7849626776748,-3.651166622189 3.3153978236619,-1.6298176528782 9.6152332335821,-4.9338373051077 9.6152332335823,-4.9338373051075 z"
         style="fill:#ffffff;stroke:#000000;stroke-width:1px;stroke-linecap:butt;stroke-linejoin:miter;stroke-opacity:1" />
      <path
         sodipodi:nodetypes="sssssssssscssssssscsscssssssssss"
         inkscape:connector-curvature="0"
         id="path6999"
         d="m -415.15625,-176.78125 c -0.3630682065221,0.087930932536 -0.5993985873342,0.8211770577627 -0.5,2.40625 0.2410070120372,3.8432507333866 -5.0213981079935,7.2533886479607 -5.5,10.125 -0.4786018920066,2.8716113520393 -1.9276481079934,22.9639810799344 -2.40625,27.75 -0.4786018920066,4.7860189200655 -7.1810367559541,14.837286755954 -10.53125,18.1875 -3.3502132440458,3.350213244046 1.398922262839,23.87268330287043 -0.7982045144,27.85296186180631 -1.1564569426891,2.09501828524549 -5.2387034444376,3.54645714269077 -6.8319963262967,7.0201723224518 -2.3312989703546,5.08272440935866 5.4045060070201,5.29174389176184 3.3687265566194,22.3555036737032 -0.623668940605,5.22754907652097 5.3221730833694,8.05820229964638 2.7283584683355,17.28831665643861 C -437.6866839291863,-36.46566283666789 -436.0197037840132,-27.83866702805903 -435.0625,-23.53125 c 0.893217900495,4.01948055222715 3.4706192291485,20.128549488701992 10.03125,28.875 -1.2148072434625,-8.282555026798036 -2.7969234099456,-18.615905777684481 -3.84375,-24.6875 -1.7150555630118,-9.94732226546944 -4.7805111126023,-15.87943332438545 -4.4375,-17.9375 0.3430111126025,-2.05806667561456 4.702668863242,-10.62740521813885 5.09375,-13.09375 0.6860222252051,-4.32638441577842 -3.5014777747953,-12.53716109918082 -4.1875,-15.28125 -0.6860222252047,-2.74408890081916 0.7864222117833,-7.66807219836164 3.1875,-13.15625 2.4010777882168,-5.48817780163834 -1.25,-16.53937776137377 -1.25,-20.3125 0,-3.7731222386262 1.3503999865785,-7.1963666487714 4.4375,-11.3125 3.0871000134217,-4.1161333512287 6.53125,-12 6.53125,-12 1e-13,0 4.8110222252048,8.2224444369879 4.125,9.9375 -0.6860222252049,1.7150555630121 -0.024600013421,6.5014777747954 3.0625,7.1875 1.4823727198594,0.3294161599688 3.5598894977843,0.7402698531064 6.1875,1 -0.088719938455,-2.885031443712 -0.022959595655,-6.2783182419398 0.75,-7.75 0.9175728759448,-1.7470192113653 9.5944539105432,-1.2312916852345 8.125,-3.84375 -0.5668781731894,-1.0078203789738 -8.6052962159869,-1.431036755954 -9.5625,-4.78125 -0.9572037840133,-3.350213244046 -2.5476014034049,-7.4776970245248 -4.3125,-9.09375 -4.2298876412614,-3.8731531215301 -0.5834440991602,-9.4565517865829 -1.90625,-12.9375 -1.0752566947499,-2.8295253809936 -4.1891943239803,8.1545556760197 -5.625,6.71875 -1.4358056760194,-1.4358056760198 1.6620612466157,-3.3353672548749 2.75,-9.75 0.4080709058414,-2.4060407691152 -0.9684483538301,-8.923880990837 -0.46875,-12.75 0.4958949818774,-3.7969971327025 3.7941656049517,-11.328239829144 2.71875,-15.875 -0.3725340908599,-1.5750405320616 -1.0331980201858,-2.5193040561183 -1.5,-2.40625 z"
         style="fill:#cccccc;stroke:none" />
      <path
         sodipodi:nodetypes="ssscssscsssssssssscssssssssssssssss"
         inkscape:connector-curvature="0"
         id="path7005"
         d="m -620.90625,-178.4375 c -1.5699030126245,0.3924757531561 -3.5174757531558,22.751637949503 -3.125,29.03125 0.3924757531562,6.279612050497 2.709874754357,9.0212337412877 1.5625,11.78125 -1.0981699754223,2.6416538933645 -8.2753088650059,-10.0366682476388 -10.96875,-8.5625 -0.8124234314821,2.289142639647 11.4869529964748,15.0811331951534 9.78125,19.9375 -0.6503015166955,1.8514962483805 -5.664609197614,-4.6008328091305 -6.25,-3.3125 -1.2083688261159,2.6593878787817 7.0245796055016,10.7969118529486 3.5,14.6875 -5.3990775294149,5.9597425486343 -2.5484109871391,7.4588872471386 -4.46875,11.21875 2.7588845658818,-0.084502980137 4.8102159078466,-0.2951619308847 5.25,-0.625 1.37204445041,-1.0290333378073 4.1279555495903,-8.2842055495905 5.5,-9.65625 1.3720444504096,-1.3720444504095 0.6599444369881,-6.1220444504095 2.375,-4.75 1.7150555630118,1.3720444504095 1.2239222117842,4.6643777613738 3.625,8.4375 2.4010777882175,3.7731222386262 4.4069888873983,2.7856833243857 4.75,4.84375 0.3430111126022,2.0580666756141 -3.2172722252045,7.76108331096407 -2.53125,12.90625 0.686022225205,5.14516668903595 0.96875,22.19784442356649 0.96875,27 0,4.8021555764335 -2.5625,11.63608331096407 -2.5625,16.78125 -1e-13,5.14516668903593 3.0944888873973,17.5103444235665 3.4375,22.3125 0.3430111126027,4.80215557643351 -4.2956344855023,23.19940345650798 -6.3125,29.25 -0.2226131179228,0.667839353768386 -0.4372477411245,1.533328085078438 -0.625,2.5 2.8795122429613,-6.0247915574780108 5.5322471911807,-10.913812470853144 6.6875,-12.28125 4.5309064154324,-5.36309578839769 5.1149272594683,-25.501637949503219 3.9375,-31.78125 -1.1774272594683,-6.27961205049678 1.1912015063123,-34.15151671528361 0.40625,-38.46875 -0.7849515063112,-4.31723328471639 1.3432469363461,-10.12078003937609 -0.875,-13.46875 -1.8521382421472,-2.79540708296713 3.2362257531566,-8.37766972790769 2.84375,-11.125 -0.3924757531564,-2.7473302720923 3.7817410658288,-13.6773749119009 2.2118380532046,-14.0698506650567 -1.5699030126237,-0.3924757531561 -2.7984802202412,0.9682562333507 -3.1909559733975,3.715586505443 -0.392475753156,2.7473302720924 -0.9997048203387,5.517917172238 -2.1771320798071,3.9480141596137 -1.1774272594675,-1.5699030126243 -1.6109173198035,-6.2124210032623 -1.1875,-13.34375 0.2093578857007,-3.5260720125582 1.3336330462919,-3.2284604004892 1.8386335151636,-7.060768394053 1.3581943527223,-10.3069588952671 0.3536005073969,-15.9561097920418 -2.0079502727451,-15.4789829696731 -1.6725824190677,0.3379279164649 0.039473973596,7.5967904964369 -3.8772826969281,13.9170340606541 -2.0083599907381,3.240774286955 -2.1270198202981,5.6509359026381 -5.3596505454904,4.685217303072 -2.1927508770817,-0.6550640905905 0.7711772594686,-9.0164439747516 -0.40625,-12.15625 -1.1774272594683,-3.1398060252484 -1.1700242468439,-14.1175969873759 -1.5625,-15.6875 -0.3924757531555,-1.5699030126241 0.3824030126242,-25.5174757531561 -1.1875,-25.125 z"
         style="color:#000000;fill:#cccccc;fill-opacity:1;fill-rule:nonzero;stroke:none;stroke-width:1px;marker:none;visibility:visible;display:inline;overflow:visible;enable-background:accumulate" />
      <path
         sodipodi:nodetypes="cscsscssc"
         inkscape:connector-curvature="0"
         id="path7027"
         d="m -570.03125,-252.96875 c -2.9817357818062,1.7471939350387 -1.9508248011575,2.4657800918358 -3.46875,2.9375 -2.6887000723239,0.8355572146538 -5.1254928109435,1.6253747836304 -7.28125,2.375 3.5262012829083,1.4813787817743 7.0540670507719,1.4305955370035 10.4191972409292,4.2635711036283 2.2947744718671,1.9318836545249 4.6616094557679,5.0878493339756 7.1483200032632,5.9873646904203 1.9696032880663,0.7124626569442 9.626934966741,5.2326722689723 9.8178555181415,2.4750676547899 0.3729979673715,-0.9406220942028 -2.6930994791854,-0.6839245377584 -4.82510896698,-2.5113612415819 -2.132009487794,-1.8274367038233 -2.1422600823823,-1.9331592383699 -4.4908222778648,-3.502521793396 C -568.3942154311544,-244.7412428602842 -569.5611770608873,-247.3599690820911 -570.03125,-252.96875 z"
         style="color:#000000;fill:#cccccc;fill-opacity:1;fill-rule:nonzero;stroke:none;stroke-width:1px;marker:none;visibility:visible;display:inline;overflow:visible;enable-background:accumulate" />
      <path
         id="path7049"
         d="m -479.625,-256.875 c 0.7068276360479,6.3226156651638 -0.1235871573851,13.3885057360777 -0.96875,14.65625 -1.3230380159832,1.9845570239747 -2.7695634247648,5.1694740971327 -0.34375,4.28125 3.9412909481543,-1.4431240087233 3.5719542622195,-11.229938254821 8,-14.5 -2.2663337473336,-0.6473591138208 -2.7554860736912,-0.7696626556471 -4.1875,-2.40625 -0.9642337271685,-1.1019814024783 -1.8236786494792,-1.7028336486235 -2.5,-2.03125 z"
         style="color:#000000;fill:#cccccc;fill-opacity:1;fill-rule:nonzero;stroke:none;stroke-width:1px;marker:none;visibility:visible;display:inline;overflow:visible;enable-background:accumulate"
         inkscape:connector-curvature="0" />
      <path
         style="fill:none;stroke:#000000;stroke-width:1px;stroke-linecap:butt;stroke-linejoin:miter;stroke-opacity:1"
         d="m -559.1081135419008,-258.626289749159 c 5.1451666890363,5.8311889142405 6.8392899699263,9.3836843121278 16.1005900101909,12.127773212947 9.2613000402646,2.7440889008191 33.7342638860316,4.2175853409708 45.2597440022604,-0.1223842718633 5.3810574517251,-2.0262605626742 12.0440440844609,-10.6333444906742 13.4160885348704,-10.9763556032767 1.3720444504095,-0.3430111126025 3.0871000134215,0.3430111126025 3.0871000134215,0.3430111126025 0,0 1.715055563012,-0.3430111126025 4.1161333512287,2.4010777882167 2.4010777882168,2.7440889008192 1.3720444504096,1.0290333378073 12.3484000536862,5.1451666890359 10.9763556032766,4.1161333512287 14.7494778419029,7.8892555898552 25.7258334451795,10.2903333780716 10.9763556032766,2.4010777882171 26.0688445577819,5.4881778016387 28.812933458601,6.5172111394457 2.7440889008191,1.0290333378071 15.0924889545053,11.3193667158789 19.8946445309388,20.5806667561435 4.8021555764335,9.2613000402643 26.4118556703841,60.3699558180213 28.4699223459986,64.8291002818523 1.0290333378072,2.2295722319155 1.7273055957199,8.8080360840959 4.2018861293794,10.7619736579 3.332110266044,2.6310460946097 2.6583361226685,7.417615310027 2.6583361226685,7.417615310027 0,0 -12.6914111662885,11.3193667158787 -17.493566742722,14.7494778419027 -4.8021555764335,3.4301111260241 -14.749477841903,9.6043111528671 -22.9817445443605,10.2903333780719 -8.2322667024574,0.6860222252049 -13.7204445040957,-0.3430111126027 -16.8075445175173,-1.0290333378073 -3.0871000134215,-0.6860222252046 -3.7731222386263,-5.4881778016379 -3.0871000134215,-7.20323336465 0.6860222252048,-1.7150555630121 -4.1161333512287,-9.9473222654694 -4.1161333512287,-9.9473222654694 0,0 -3.430111126024,7.8892555898551 -6.5172111394455,12.0053889410837 -3.0871000134215,4.1161333512287 -4.4591444638311,7.5462444772527 -4.4591444638311,11.31936671587883 0,3.77312223862623 3.6674272022139,14.82924687495006 1.2663494139972,20.3174246765884 -2.4010777882167,5.48817780163833 -3.8776782667634,10.42081540957426 -3.1916560415587,13.16490431039344 0.6860222252047,2.74408890081917 4.8862560022533,10.92769598104334 4.2002337770485,15.25408039682176 -0.391081136758,2.46634478186116 -4.7500447528289,11.05368228088038 -5.0930558654315,13.11174895649495 -0.3430111126023,2.05806667561454 2.7013851305962,7.98012976389054 4.4164406936081,17.92745202935998 1.715055563012,9.947322265469436 5.0888049372841,32.14238571139549 5.4249491897004,36.17611674039039 0.3361442524163,4.03373102899445 -1.3445770096649,10.14123179088507 -0.3361442524164,13.50267431504733 1.0084327572488,3.36144252416229 1.6807212620811,10.08432757248671 0.6722885048326,12.10119308698405 -1.0084327572488,2.01686551449712 -33.9505694940383,13.78191434906478 -52.4385033769305,15.79877986356212 -18.487933882892,2.01686551449746 -27.5638286981298,3.36144252416214 -37.6481562706164,2.68915401932973 -10.0843275724867,-0.6722885048323 -71.598725764655,-6.0505965434919 -83.6999188516387,-8.73975056282166 -12.1011930869837,-2.68915401932977 -14.9610597615092,-4.70601953382711 -18.3225022856715,-8.40360631040551 -3.3614425241619,-3.6975867765784 -3.697586776579,-10.75661607731887 -3.697586776579,-12.77348159181633 0,-2.01686551449734 0.5337307441846,-22.103867117221625 2.5505962586823,-28.15446366071319 2.0168655144977,-6.050596543492019 6.646390852722,-24.454293656155858 6.3033797401197,-29.256449232589368 -0.343011112603,-4.8021555764335 -3.4301111260237,-17.15055563011947 -3.4301111260237,-22.2957223191554 0,-5.14516668903595 2.5557668277902,-11.97849397147958 2.5557668277902,-16.78064954791303 0,-4.80215557643346 -0.2767976521003,-21.8552142207843 -0.9628198773055,-27.00038090982025 -0.6860222252045,-5.1451666890359 2.8659020211112,-10.85454248298504 2.522890908509,-12.91260915859914 -0.3430111126022,-2.0580666756143 -2.3241211644713,-1.0738898343539 -4.7251989526884,-4.8470120729802 -2.4010777882163,-3.7731222386262 -1.9362535553222,-7.058991996085 -3.6513091183341,-8.4310364464945 -1.7150555630119,-1.3720444504095 -0.9969332106092,3.3628263812036 -2.3689776610189,4.734870831613 -1.3720444504097,1.3720444504095 -4.1263408723122,8.6425625598802 -5.4983853227219,9.6715958976872 -1.3720444504097,1.0290333378076 -17.4935667427219,1.0290333378074 -26.7548667829866,-1.0290333378073 -9.2613000402647,-2.0580666756143 -16.8294371236318,-5.4881778016381 -18.8875037992459,-7.5462444772524 -2.0580666756141,-2.0580666756144 -14.4064667293012,-12.3484000536867 -14.7494778419034,-14.4064667293008 -0.1715055563011,-1.029033337807 4.4682505227828,-6.4933016501637 6.0190074646523,-11.8334938247704 4.3475077889068,-14.9710934360674 16.7912315234072,-47.1644175428419 17.9917704175158,-49.222484218456 2.4010777882171,-4.1161333512282 14.0634556166982,-28.8129334586008 17.4935667427219,-33.6150890350342 3.4301111260238,-4.8021555764335 29.155944571203,-19.551633418336 33.9581001476373,-20.5806667561435 4.8021555764334,-1.0290333378073 13.3774333914929,0.3430111126022 17.4935667427219,-0.6860222252049 2.0580666756141,-0.5145166689035 8.5978177984747,-3.4444712764626 19.5579042363795,-6.8504961398108 1.7102022614996,-0.5314731281569 0.1536350972018,-1.3744505692781 4.7849626776748,-3.651166622189 3.3153978236619,-1.6298176528782 9.6152332335821,-4.9338373051077 9.6152332335823,-4.9338373051075 z"
         id="path7095"
         inkscape:connector-curvature="0"
         sodipodi:nodetypes="cssscssssssscsssscsssssssssssssssssssssssssssssssssssc" />
    </g>
  </g>
</svg>
