<?xml version="1.0" encoding="UTF-8" standalone="no"?>
<!-- Created with Inkscape (http://www.inkscape.org/) -->

<svg
   xmlns:dc="http://purl.org/dc/elements/1.1/"
   xmlns:cc="http://creativecommons.org/ns#"
   xmlns:rdf="http://www.w3.org/1999/02/22-rdf-syntax-ns#"
   xmlns:svg="http://www.w3.org/2000/svg"
   xmlns="http://www.w3.org/2000/svg"
   xmlns:sodipodi="http://sodipodi.sourceforge.net/DTD/sodipodi-0.dtd"
   xmlns:inkscape="http://www.inkscape.org/namespaces/inkscape"
   width="332.0511474609375"
   height="320.832763671875"
   id="svg6396"
   version="1.1"
   inkscape:version="0.48.4 r9939"
   sodipodi:docname="remera-colores.svg"
   inkscape:export-filename="/home/manuq/prog/nodakar/static/nodakar/imagenes/remera.png"
   inkscape:export-xdpi="165.3359680175781"
   inkscape:export-ydpi="165.3359680175781">
  <defs
     id="defs6398" />
  <sodipodi:namedview
     id="base"
     pagecolor="#ffffff"
     bordercolor="#666666"
     borderopacity="1.0"
     inkscape:pageopacity="0.0"
     inkscape:pageshadow="2"
     inkscape:zoom="0.58801713"
     inkscape:cx="58.590197"
     inkscape:cy="184.21925"
     inkscape:document-units="px"
     inkscape:current-layer="layer3"
     showgrid="false"
     inkscape:window-width="1024"
     inkscape:window-height="541"
     inkscape:window-x="0"
     inkscape:window-y="27"
     inkscape:window-maximized="1"
     fit-margin-top="0"
     fit-margin-left="0"
     fit-margin-right="0"
     fit-margin-bottom="0" />
  <metadata
     id="metadata6401">
    <rdf:RDF>
      <cc:Work
         rdf:about="">
        <dc:format>image/svg+xml</dc:format>
        <dc:type
           rdf:resource="http://purl.org/dc/dcmitype/StillImage" />
        <dc:title></dc:title>
      </cc:Work>
    </rdf:RDF>
  </metadata>
  <g
     inkscape:groupmode="layer"
     id="layer3"
     inkscape:label="Capa"
     transform="translate(686.5181756105187,259.25)">
    <path
       style="fill:#ff6057;stroke:none;stroke-width:1px;stroke-linecap:butt;stroke-linejoin:miter;stroke-opacity:1;fill-opacity:1"
       d="m -559.10811,-258.62629 c 5.14516,5.83119 6.83929,9.38368 16.10059,12.12777 9.2613,2.74409 33.73426,4.21759 45.25974,-0.12238 5.38106,-2.02626 12.04404,-10.63335 13.41609,-10.97636 1.37204,-0.34301 3.0871,0.34301 3.0871,0.34301 0,0 1.71505,-0.34301 4.11613,2.40108 2.40108,2.74409 1.37205,1.02904 12.3484,5.14517 10.97636,4.11613 14.74948,7.88925 25.72584,10.29033 10.97635,2.40108 26.06884,5.48818 28.81293,6.51721 2.74409,1.02904 15.09249,11.31937 19.89464,20.58067 4.80216,9.2613 26.41186,60.36996 28.46993,64.8291 1.02903,2.22957 1.7273,8.80804 4.20188,10.76197 3.33211,2.63105 2.65834,7.41762 2.65834,7.41762 0,0 -12.69141,11.31937 -17.49357,14.74948 -4.80215,3.43011 -14.74948,9.60431 -22.98174,10.29033 -8.23227,0.68602 -13.72045,-0.34301 -16.80755,-1.02903 -3.0871,-0.68602 -3.77312,-5.48818 -3.0871,-7.20324 0.68602,-1.71505 -4.11613,-9.94732 -4.11613,-9.94732 0,0 -3.43011,7.88926 -6.51721,12.00539 -3.0871,4.11613 -4.45915,7.54625 -4.45915,11.319368 0,3.773122 3.66743,14.829246 1.26635,20.317424 -2.40107,5.488178 -3.87768,10.420816 -3.19165,13.164905 0.68602,2.744088 4.88625,10.927696 4.20023,15.25408 -0.39108,2.466345 -4.75004,11.053682 -5.09306,13.111749 -0.34301,2.058067 2.70139,7.98013 4.41645,17.927452 1.71505,9.9473222 5.0888,32.142386 5.42494,36.176117 0.33615,4.033731 -1.34457,10.141232 -0.33614,13.502674 1.00843,3.361443 1.68072,10.084328 0.67229,12.101193 -1.00843,2.016866 -33.95057,13.781914 -52.4385,15.79878 -18.48794,2.016866 -27.56383,3.361443 -37.64816,2.689154 -10.08433,-0.672288 -71.59873,-6.050597 -83.69992,-8.739751 -12.10119,-2.689154 -14.96106,-4.706019 -18.3225,-8.403606 -3.36144,-3.697587 -3.69759,-10.756616 -3.69759,-12.773481 0,-2.016866 0.53373,-22.1038676 2.5506,-28.1544641 2.01686,-6.0505966 6.64639,-24.4542939 6.30338,-29.2564489 -0.34301,-4.802156 -3.43011,-17.150556 -3.43011,-22.295723 0,-5.145166 2.55576,-11.978494 2.55576,-16.780649 0,-4.802156 -0.27679,-21.855214 -0.96282,-27.000381 -0.68602,-5.145167 2.86591,-10.854542 2.52289,-12.912612 -0.34301,-2.05806 -2.32412,-1.07389 -4.72519,-4.84701 -2.40108,-3.77312 -1.93626,-7.05899 -3.65131,-8.43104 -1.71506,-1.37204 -0.99694,3.36283 -2.36898,4.73488 -1.37205,1.37204 -4.12634,8.64256 -5.49839,9.67159 -1.37204,1.02903 -17.49356,1.02903 -26.75486,-1.02903 -9.2613,-2.05807 -16.82944,-5.48818 -18.88751,-7.54625 -2.05806,-2.05806 -14.40646,-12.3484 -14.74948,-14.40646 -0.1715,-1.02904 4.46826,-6.49331 6.01901,-11.8335 4.34751,-14.97109 16.79123,-47.16441 17.99177,-49.22248 2.40108,-4.11614 14.06346,-28.81294 17.49357,-33.61509 3.43011,-4.80216 29.15594,-19.55163 33.9581,-20.58067 4.80216,-1.02903 13.37743,0.34301 17.49357,-0.68602 2.05806,-0.51452 8.59781,-3.44447 19.5579,-6.8505 1.7102,-0.53147 0.15364,-1.37445 4.78496,-3.65116 3.3154,-1.62982 9.61524,-4.93384 9.61524,-4.93384 z"
       id="path6978"
       inkscape:connector-curvature="0"
       sodipodi:nodetypes="cssscssssssscsssscsssssssssssssssssssssssssssssssssssc"
       inkscape:export-xdpi="165"
       inkscape:export-ydpi="165" />
    <path
       sodipodi:nodetypes="cssscssssssscsssscsssssssssssssssssssssssssssssssssssc"
       inkscape:connector-curvature="0"
       id="path7095"
       d="m -559.10811,-258.62629 c 5.14516,5.83119 6.83929,9.38368 16.10059,12.12777 9.2613,2.74409 33.73426,4.21759 45.25974,-0.12238 5.38106,-2.02626 12.04404,-10.63335 13.41609,-10.97636 1.37204,-0.34301 3.0871,0.34301 3.0871,0.34301 0,0 1.71505,-0.34301 4.11613,2.40108 2.40108,2.74409 1.37205,1.02904 12.3484,5.14517 10.97636,4.11613 14.74948,7.88925 25.72584,10.29033 10.97635,2.40108 26.06884,5.48818 28.81293,6.51721 2.74409,1.02904 15.09249,11.31937 19.89464,20.58067 4.80216,9.2613 26.41186,60.36996 28.46993,64.8291 1.02903,2.22957 1.7273,8.80804 4.20188,10.76197 3.33211,2.63105 2.65834,7.41762 2.65834,7.41762 0,0 -12.69141,11.31937 -17.49357,14.74948 -4.80215,3.43011 -14.74948,9.60431 -22.98174,10.29033 -8.23227,0.68602 -13.72045,-0.34301 -16.80755,-1.02903 -3.0871,-0.68602 -3.77312,-5.48818 -3.0871,-7.20324 0.68602,-1.71505 -4.11613,-9.94732 -4.11613,-9.94732 0,0 -3.43011,7.88926 -6.51721,12.00539 -3.0871,4.11613 -4.45915,7.54625 -4.45915,11.319368 0,3.773122 3.66743,14.829246 1.26635,20.317424 -2.40107,5.488178 -3.87768,10.420816 -3.19165,13.164905 0.68602,2.744088 4.88625,10.927696 4.20023,15.25408 -0.39108,2.466345 -4.75004,11.053682 -5.09306,13.111749 -0.34301,2.058067 2.70139,7.98013 4.41645,17.927452 1.71505,9.9473222 5.0888,32.142386 5.42494,36.176117 0.33615,4.033731 -1.34457,10.141232 -0.33614,13.502674 1.00843,3.361443 1.68072,10.084328 0.67229,12.101193 -1.00843,2.016866 -33.95057,13.781914 -52.4385,15.79878 -18.48794,2.016866 -27.56383,3.361443 -37.64816,2.689154 -10.08433,-0.672288 -71.59873,-6.050597 -83.69992,-8.739751 -12.10119,-2.689154 -14.96106,-4.706019 -18.3225,-8.403606 -3.36144,-3.697587 -3.69759,-10.756616 -3.69759,-12.773481 0,-2.016866 0.53373,-22.1038676 2.5506,-28.1544641 2.01686,-6.0505966 6.64639,-24.4542939 6.30338,-29.2564489 -0.34301,-4.802156 -3.43011,-17.150556 -3.43011,-22.295723 0,-5.145166 2.55576,-11.978494 2.55576,-16.780649 0,-4.802156 -0.27679,-21.855214 -0.96282,-27.000381 -0.68602,-5.145167 2.86591,-10.854542 2.52289,-12.912612 -0.34301,-2.05806 -2.32412,-1.07389 -4.72519,-4.84701 -2.40108,-3.77312 -1.93626,-7.05899 -3.65131,-8.43104 -1.71506,-1.37204 -0.99694,3.36283 -2.36898,4.73488 -1.37205,1.37204 -4.12634,8.64256 -5.49839,9.67159 -1.37204,1.02903 -17.49356,1.02903 -26.75486,-1.02903 -9.2613,-2.05807 -16.82944,-5.48818 -18.88751,-7.54625 -2.05806,-2.05806 -14.40646,-12.3484 -14.74948,-14.40646 -0.1715,-1.02904 4.46826,-6.49331 6.01901,-11.8335 4.34751,-14.97109 16.79123,-47.16441 17.99177,-49.22248 2.40108,-4.11614 14.06346,-28.81294 17.49357,-33.61509 3.43011,-4.80216 29.15594,-19.55163 33.9581,-20.58067 4.80216,-1.02903 13.37743,0.34301 17.49357,-0.68602 2.05806,-0.51452 8.59781,-3.44447 19.5579,-6.8505 1.7102,-0.53147 0.15364,-1.37445 4.78496,-3.65116 3.3154,-1.62982 9.61524,-4.93384 9.61524,-4.93384 z"
       style="fill:none;stroke:none;stroke-width:1px;stroke-linecap:butt;stroke-linejoin:miter;stroke-opacity:1" />
  </g>
</svg>
